<svg width="17" height="22" viewBox="0 0 17 22" fill="none" xmlns="http://www.w3.org/2000/svg">
<path d="M11.701 18.6132C10.7028 20.0691 9.51988 20.8387 8.27938 20.8387C5.97357 20.8387 3.93241 18.16 2.81902 13.6737C2.79697 13.5846 2.70753 13.5301 2.61809 13.5527C2.52926 13.5748 2.47505 13.6645 2.4971 13.7533C3.66655 18.4671 5.77417 21.1704 8.27938 21.1704C9.63413 21.1704 10.912 20.3512 11.9742 18.8009C12.026 18.7256 12.0067 18.6224 11.9311 18.5706C11.8557 18.5183 11.7522 18.5376 11.701 18.6132Z" fill="#1B2063"/>
<path d="M14.2443 11.1832C13.8155 13.9701 13.0688 16.3346 12.0849 18.0218C12.039 18.1008 12.0659 18.2025 12.1447 18.2484C12.2234 18.2943 12.3254 18.2677 12.3713 18.1887C13.3757 16.466 14.1368 14.061 14.5721 11.2334C14.7439 10.1156 15.2974 9.12798 16.083 8.38655C16.0619 8.25578 16.0386 8.12716 16.0141 7.99915C15.0915 8.80366 14.4394 9.91596 14.2443 11.1832Z" fill="#1B2063"/>
<path d="M2.26569 12.6989C2.28438 12.7889 2.37198 12.8471 2.46173 12.8281C2.55116 12.8097 2.60905 12.7221 2.59067 12.6324C2.4948 12.1654 2.40781 11.6772 2.33154 11.1817C2.14838 9.99375 1.56243 8.94424 0.730224 8.15442C0.706945 8.28549 0.684278 8.41718 0.664062 8.55131C1.35905 9.27161 1.84423 10.1965 2.00381 11.2319C2.08069 11.7332 2.1689 12.2266 2.26569 12.6989Z" fill="#1B2063"/>
<path d="M14.4427 15.4864C14.4706 15.3994 14.4225 15.306 14.3352 15.2778C14.2482 15.2499 14.1545 15.298 14.1266 15.3853C12.8279 19.437 10.7534 21.6686 8.28585 21.6686C6.32616 21.6686 4.61029 20.2648 3.32292 17.609C3.2831 17.5269 3.18386 17.4929 3.10147 17.5321C3.01877 17.5722 2.98446 17.6711 3.02459 17.7538C4.37137 20.5315 6.19047 22 8.28585 22C10.9099 21.9997 13.0966 19.6869 14.4427 15.4864Z" fill="#1B2063"/>
<path d="M14.3577 14.6054C14.3332 14.6933 14.3846 14.7848 14.4725 14.8097C14.5604 14.8342 14.6523 14.7827 14.6768 14.6945C14.9641 13.6698 15.2021 12.5474 15.3853 11.3588C15.494 10.6508 15.7881 10.0061 16.2089 9.46499C16.1955 9.31064 16.1814 9.1566 16.1639 9.00562C15.5927 9.63741 15.1929 10.4275 15.0576 11.3086C14.8762 12.484 14.641 13.5932 14.3577 14.6054Z" fill="#1B2063"/>
<path d="M2.54347 16.6432C2.57686 16.7281 2.67365 16.77 2.75849 16.737C2.84364 16.7036 2.88561 16.6071 2.85222 16.522C2.26903 15.0367 1.81878 13.2828 1.51523 11.309C1.39363 10.5207 1.0613 9.8047 0.584398 9.20996C0.567245 9.37411 0.551621 9.53918 0.539062 9.707C0.865575 10.1949 1.09407 10.7541 1.18719 11.3595C1.49471 13.3572 1.95109 15.135 2.54347 16.6432Z" fill="#1B2063"/>
<path d="M0.692812 11.4357C0.653912 11.1818 0.5853 10.9383 0.495861 10.705C0.495248 10.7696 0.492188 10.833 0.492187 10.8985C0.492187 10.98 0.492792 11.0614 0.493711 11.1429C0.492792 11.2244 0.492187 11.3058 0.492187 11.3873C0.492187 11.7474 0.506269 12.0978 0.528016 12.442C1.0576 15.3094 1.90666 17.6636 3.00688 19.4003C3.60079 20.1445 4.2676 20.7521 4.97301 21.2151C2.93123 19.4916 1.41016 16.0971 0.692812 11.4357Z" fill="#1B2063"/>
<path d="M16.2741 10.899C16.2741 10.6941 16.2698 10.4923 16.2625 10.2926C16.075 10.6439 15.9403 11.0276 15.8775 11.4364C15.0881 16.5646 13.3266 20.1603 10.9687 21.6829C11.6374 21.3614 12.2855 20.9158 12.8862 20.3507C14.4471 18.4045 15.6067 15.376 16.2055 11.4867C16.2224 11.3773 16.2456 11.2702 16.2729 11.1648C16.2729 11.1578 16.2729 11.1507 16.2729 11.1434C16.2735 11.0616 16.2741 10.9801 16.2741 10.899Z" fill="#1B2063"/>
<path d="M12.5167 10.9186C12.2073 12.9279 11.7096 14.732 11.0771 16.1356C11.0397 16.2189 11.0767 16.3175 11.1601 16.3548C11.2434 16.3934 11.342 16.3555 11.3794 16.2722C12.0333 14.8211 12.5258 13.0369 12.8444 10.9691C13.1338 9.08724 14.1694 7.50118 15.6268 6.48106C15.5925 6.37112 15.557 6.26209 15.5202 6.15491C13.948 7.22188 12.826 8.90839 12.5167 10.9186Z" fill="#1B2063"/>
<path d="M3.71627 10.9672C4.61127 16.781 6.70879 19.4292 8.27887 19.4292C9.18735 19.4292 10.1473 18.5903 10.981 17.0668C11.0251 16.9865 10.9954 16.8858 10.9152 16.842C10.8343 16.7979 10.7338 16.8273 10.6904 16.9078C9.92829 18.2997 9.04951 19.0978 8.27887 19.0978C6.83652 19.0978 4.86212 16.2307 4.04431 10.917C3.74536 8.97412 2.68926 7.33048 1.19912 6.25891C1.16237 6.36977 1.12836 6.484 1.09375 6.59732C2.46565 7.61958 3.43754 9.15572 3.71627 10.9672Z" fill="#1B2063"/>
<path d="M11.7132 10.7914C10.9098 16.0111 9.06282 18.2694 8.29799 18.2694C7.66886 18.2694 6.11532 16.5768 5.20286 12.4985C5.18264 12.409 5.09321 12.3527 5.00469 12.3729C4.91525 12.3928 4.85889 12.4813 4.87911 12.5707C5.80995 16.7299 7.43852 18.6005 8.29799 18.6005C9.32562 18.6005 11.2262 16.1346 12.0413 10.8414C12.3791 8.64585 13.6233 6.81203 15.3603 5.67371C15.3189 5.56805 15.2773 5.46331 15.2335 5.36072C13.3911 6.54621 12.0694 8.47619 11.7132 10.7914Z" fill="#1B2063"/>
<path d="M4.54655 10.8436C4.57779 11.0445 4.60996 11.2411 4.64365 11.4334C4.65958 11.5234 4.74595 11.5844 4.83569 11.5678C4.92574 11.5519 4.98609 11.4659 4.97046 11.3758C4.93708 11.186 4.90492 10.9918 4.87429 10.7933C4.52787 8.54332 3.27083 6.65652 1.50962 5.46399C1.46674 5.56781 1.42324 5.67071 1.38281 5.77698C3.03896 6.92112 4.21881 8.71329 4.54655 10.8436Z" fill="#1B2063"/>
<path d="M3.64214 6.76006C3.69911 6.83111 3.80356 6.84367 3.87524 6.7867C3.94691 6.72974 3.95885 6.62562 3.90188 6.55365C3.31654 5.81651 2.62431 5.19298 1.85704 4.69104C1.80711 4.78996 1.75872 4.89041 1.71094 4.99239C2.43441 5.47106 3.08805 6.06273 3.64214 6.76006Z" fill="#1B2063"/>
<path d="M11.0677 9.8082C11.045 9.8967 11.0986 9.98705 11.1875 10.0097C11.2012 10.0134 11.215 10.0149 11.2288 10.0149C11.3026 10.0149 11.37 9.9653 11.389 9.89027C11.9318 7.77011 13.2654 6.01897 15.0272 4.90668C14.9791 4.80561 14.9292 4.70762 14.8789 4.60962C13.0332 5.76479 11.6353 7.59218 11.0677 9.8082Z" fill="#1B2063"/>
<path d="M8.20228 17.7239C8.22862 17.7398 8.25802 17.7475 8.28742 17.7475C8.31683 17.7475 8.34624 17.7398 8.37258 17.7239C8.39065 17.7132 10.1932 16.5782 11.1201 11.2709C11.136 11.1809 11.0753 11.0952 10.9856 11.0792C10.8934 11.0615 10.8095 11.1239 10.7935 11.214C10.0891 15.2476 8.82681 16.9583 8.29232 17.3769C7.93028 17.0688 6.44076 15.533 5.69155 10.6649C5.51758 9.53511 5.13624 8.4709 4.55826 7.50223C4.5114 7.42353 4.41001 7.3978 4.33098 7.44466C4.25227 7.49151 4.22653 7.59319 4.2734 7.6719C4.82932 8.60381 5.19628 9.62791 5.36382 10.7151C6.25331 16.4955 8.18267 17.7126 8.20228 17.7239Z" fill="#1B2063"/>
<path d="M6.19062 10.5903C6.7248 14.0595 7.65411 15.7656 8.16073 16.4737C8.19197 16.5175 8.2422 16.5432 8.29581 16.5432C8.34941 16.5432 8.39964 16.5175 8.43058 16.4737C8.93689 15.7653 9.86589 14.0595 10.4004 10.5903C10.8249 7.83284 12.417 5.5372 14.6346 4.16153C14.5789 4.06506 14.5228 3.9695 14.4652 3.8761C12.1643 5.30077 10.5128 7.68064 10.0723 10.5401C9.59358 13.6482 8.80181 15.2989 8.2955 16.0823C7.78919 15.2989 6.9971 13.6488 6.51836 10.5401C6.0874 7.73913 4.49435 5.39693 2.26696 3.96338C2.21029 4.0574 2.15608 4.15448 2.10156 4.25126C4.2438 5.63642 5.77528 7.89317 6.19062 10.5903Z" fill="#1B2063"/>
<path d="M10.9513 6.07592C10.8992 6.15125 10.9182 6.25446 10.9935 6.30652C11.0223 6.32674 11.0551 6.33592 11.0876 6.33592C11.1402 6.33592 11.192 6.31111 11.2242 6.26456C12.0129 5.12134 13.024 4.17533 14.1778 3.46085C14.115 3.36928 14.0522 3.27741 13.9876 3.18921C12.8019 3.92604 11.7629 4.89961 10.9513 6.07592Z" fill="#1B2063"/>
<path d="M4.56951 5.28556C4.63046 5.35416 4.73552 5.35998 4.80382 5.29873C4.87213 5.2381 4.87795 5.13305 4.81699 5.06476C4.19582 4.36926 3.48644 3.76871 2.71304 3.27136C2.64872 3.36048 2.58531 3.45082 2.52344 3.54362C3.2757 4.02627 3.9658 4.60937 4.56951 5.28556Z" fill="#1B2063"/>
<path d="M10.5012 6.79926C9.86284 7.91247 9.43893 9.12829 9.24137 10.4127C9.01165 11.9047 8.68972 13.1852 8.28357 14.2258C7.87742 13.1855 7.55551 11.905 7.32579 10.4127C7.08167 8.82632 6.50093 7.36215 5.59889 6.06059C5.54681 5.98556 5.44297 5.96718 5.36824 6.01863C5.29319 6.071 5.27421 6.1742 5.32628 6.24954C6.19922 7.50914 6.76158 8.92677 6.99774 10.4629C7.26024 12.1654 7.64158 13.5998 8.13104 14.7274C8.15738 14.7878 8.21711 14.827 8.28327 14.827C8.34912 14.827 8.40885 14.7878 8.43519 14.7274C8.92527 13.5995 9.30661 12.1647 9.5688 10.4629C9.76024 9.21863 10.1707 8.04171 10.7888 6.96433C10.8341 6.8847 10.8068 6.78333 10.7272 6.73801C10.6485 6.69238 10.5465 6.71994 10.5012 6.79926Z" fill="#1B2063"/>
<path d="M7.08968 7.73957C7.12521 7.82379 7.22261 7.86299 7.30684 7.82808C7.39107 7.79255 7.43089 7.69516 7.39536 7.61095C6.51721 5.52263 5.05036 3.80764 3.23064 2.61755C3.15836 2.70177 3.08577 2.7866 3.01562 2.8745C4.79613 4.02967 6.23236 5.70087 7.08968 7.73957Z" fill="#1B2063"/>
<path d="M8.42351 10.286C8.38063 10.5628 8.33469 10.8342 8.28507 11.0978C8.23575 10.8351 8.1892 10.5637 8.14662 10.286C8.06637 9.76534 7.94998 9.2487 7.80112 8.75043C7.77478 8.66285 7.68289 8.61293 7.59498 8.63926C7.50707 8.6656 7.45745 8.75778 7.48349 8.84568C7.62836 9.32925 7.74108 9.83088 7.81888 10.3362C7.90709 10.9077 8.0094 11.4516 8.12335 11.9529C8.14081 12.0282 8.20757 12.0818 8.28507 12.0818C8.36256 12.0818 8.42964 12.0282 8.44649 11.9529C8.56135 11.4473 8.66396 10.9034 8.75125 10.3362C9.24807 7.10771 11.1006 4.41609 13.6839 2.78898C13.6125 2.7017 13.5402 2.61595 13.467 2.53296C10.8255 4.21182 8.93288 6.97541 8.42351 10.286Z" fill="#1B2063"/>
<path d="M8.12939 8.14438C8.15236 8.21145 8.21515 8.25617 8.28621 8.25617C8.35666 8.25617 8.41976 8.21145 8.44304 8.14438C9.30894 5.62916 10.9884 3.55616 13.1309 2.17191C13.051 2.09075 12.9701 2.01266 12.8883 1.93579C10.8377 3.27931 9.20511 5.23838 8.28652 7.60814C7.3854 5.2834 5.79755 3.35342 3.80172 2.01266C3.72086 2.09045 3.64122 2.16946 3.5625 2.25153C5.64685 3.63517 7.27972 5.67663 8.12939 8.14438Z" fill="#1B2063"/>
<path d="M7.73196 5.37598C7.78036 5.45377 7.88235 5.47765 7.96015 5.42957C8.03795 5.38149 8.06215 5.2792 8.01376 5.20141C7.08721 3.70722 5.85864 2.44364 4.43865 1.45813C4.34891 1.52857 4.25978 1.60115 4.17188 1.67679C5.58789 2.64393 6.81276 3.89343 7.73196 5.37598Z" fill="#1B2063"/>
<path d="M8.28693 5.67418C8.24221 5.75381 8.27008 5.85487 8.35002 5.89958C8.37575 5.91398 8.40363 5.92071 8.4312 5.92071C8.48909 5.92071 8.54544 5.89009 8.57607 5.83619C9.54796 4.10619 10.9048 2.66498 12.5062 1.59188C12.4167 1.51746 12.3264 1.4458 12.2354 1.37659C10.6292 2.47173 9.26708 3.92918 8.28693 5.67418Z" fill="#1B2063"/>
<path d="M6.86164 2.63821C6.92719 2.57421 6.92811 2.46916 6.86409 2.40362C6.33665 1.86524 5.77123 1.37891 5.17517 0.941284C5.0744 1.00284 4.97424 1.06654 4.875 1.13422C5.49433 1.58012 6.08212 2.07931 6.62733 2.63576C6.69165 2.7013 6.7964 2.70222 6.86164 2.63821Z" fill="#1B2063"/>
<path d="M8.28369 4.11431C8.07081 3.81051 7.84324 3.51283 7.60585 3.2271C7.54766 3.15697 7.4432 3.14717 7.37245 3.20566C7.302 3.26385 7.2922 3.36859 7.35071 3.43903C7.63342 3.77896 7.90081 4.13575 8.14616 4.49988C8.17679 4.54581 8.22825 4.57276 8.28369 4.57276C8.33882 4.57276 8.39028 4.54551 8.42091 4.49988C9.33765 3.14074 10.4841 1.98557 11.7899 1.06743C11.6903 1.0022 11.5905 0.939113 11.4894 0.879395C10.2618 1.76109 9.17225 2.84582 8.28369 4.11431Z" fill="#1B2063"/>
<path d="M8.15517 3.11159C8.18672 3.1511 8.2342 3.17376 8.28473 3.17376C8.33497 3.17376 8.38244 3.1511 8.4143 3.11159C8.72703 2.72082 9.06518 2.34138 9.41957 1.98429C9.48389 1.91936 9.48358 1.81432 9.41865 1.75001C9.3534 1.68478 9.24835 1.6857 9.18402 1.75093C8.87007 2.06728 8.56775 2.40109 8.28473 2.74501C7.59649 1.90895 6.82554 1.1617 5.98904 0.51123C5.87479 0.561762 5.76115 0.615967 5.64844 0.673848C6.57009 1.37332 7.41485 2.18611 8.15517 3.11159Z" fill="#1B2063"/>
<path d="M9.8775 1.33306C9.93784 1.40166 10.0426 1.4084 10.1115 1.34776C10.4022 1.09143 10.7042 0.849802 11.0129 0.619503C10.8993 0.564072 10.7854 0.512315 10.6705 0.464233C10.4053 0.667277 10.144 0.876751 9.8922 1.09909C9.82328 1.15942 9.81685 1.26416 9.8775 1.33306Z" fill="#1B2063"/>
<path d="M8.1658 1.84591C8.19735 1.88021 8.24176 1.89981 8.28832 1.89981C8.33488 1.89981 8.37929 1.88051 8.41054 1.84591C8.93645 1.26985 9.50463 0.74004 10.1083 0.258004C9.97939 0.217579 9.85013 0.18236 9.72056 0.151123C9.21732 0.565785 8.73675 1.00954 8.28802 1.48943C7.85277 1.02424 7.3875 0.592735 6.90141 0.189098C6.77522 0.223092 6.64933 0.261985 6.52344 0.30486C7.10663 0.77434 7.65674 1.28792 8.1658 1.84591Z" fill="#1B2063"/>
<path d="M8.28443 0.706517C8.3264 0.706517 8.36805 0.690592 8.40052 0.659355C8.62136 0.443143 8.85047 0.236424 9.08357 0.0342998C8.93011 0.0153123 8.77696 0.00551249 8.62443 0C8.51079 0.1029 8.39532 0.20396 8.28474 0.310228C8.17693 0.207022 8.06513 0.109024 7.95455 0.00918711C7.80876 0.0195996 7.66234 0.0373623 7.51562 0.0597185C7.73861 0.253881 7.957 0.452636 8.16866 0.659661C8.20051 0.690592 8.24247 0.706517 8.28443 0.706517Z" fill="#1B2063"/>
<path d="M2.86408 11.1005C3.34558 14.2285 4.25897 16.8488 5.43546 18.4799C5.46762 18.5246 5.51877 18.5488 5.56992 18.5488C5.6033 18.5488 5.63731 18.5387 5.66671 18.5172C5.74084 18.4636 5.75767 18.3601 5.70407 18.286C4.5573 16.6969 3.66505 14.1271 3.19152 11.0503C2.94648 9.45837 2.11856 8.09893 0.944521 7.16028C0.914504 7.27696 0.886329 7.39517 0.859375 7.51461C1.90691 8.39875 2.64049 9.64917 2.86408 11.1005Z" fill="#1B2063"/>
<path d="M13.1331 13.1826C13.0439 13.1621 12.9542 13.2154 12.9328 13.3045C11.9333 17.4156 10.151 19.9694 8.28132 19.9694C7.68833 19.9694 7.10269 19.7201 6.54063 19.2295C6.47172 19.1695 6.36728 19.1762 6.30663 19.2451C6.24629 19.3143 6.25333 19.4188 6.32256 19.4791C6.94679 20.0245 7.60594 20.3011 8.28132 20.3011C10.3427 20.3011 12.2022 17.7151 13.255 13.3832C13.2764 13.2938 13.2219 13.2047 13.1331 13.1826Z" fill="#1B2063"/>
<path d="M13.3812 11.0488C13.3202 11.4445 13.251 11.8399 13.175 12.2236C13.1573 12.3133 13.2161 12.4006 13.3058 12.4184C13.3166 12.4205 13.3273 12.4214 13.338 12.4214C13.4155 12.4214 13.4847 12.3666 13.5003 12.2876C13.5769 11.8993 13.647 11.4996 13.7089 11.099C13.9439 9.57238 14.7457 8.27205 15.8809 7.38239C15.8527 7.26388 15.8221 7.14781 15.7908 7.03174C14.5304 7.97223 13.6372 9.38404 13.3812 11.0488Z" fill="#1B2063"/>
</svg>
