<svg width="565" height="550" viewBox="0 0 565 550" fill="none" xmlns="http://www.w3.org/2000/svg">
<path d="M82.6682 501.215C192.891 566.261 371.597 566.263 481.817 501.216C592.04 436.167 592.04 330.706 481.817 265.659C371.595 200.611 192.888 200.611 82.6657 265.658C-27.5556 330.704 -27.5556 436.168 82.6682 501.215Z" fill="#F5F5F5"/>
<path d="M452.511 487.579C482.331 487.579 506.506 473.622 506.506 456.404C506.506 439.187 482.331 425.23 452.511 425.23C422.69 425.23 398.516 439.187 398.516 456.404C398.516 473.622 422.69 487.579 452.511 487.579Z" fill="#E0E0E0"/>
<path d="M418.647 55.1431L428.016 60.5535C427.97 60.1356 427.937 59.7189 427.937 59.3133V56.5983C427.937 51.7683 431.329 49.8097 435.511 52.2253C437.205 53.2028 438.764 54.7533 440.026 56.5665C440.712 50.4927 445.477 48.2298 451.265 51.5716C457.523 55.1846 462.598 63.9722 462.598 71.1995V75.261C462.598 77.1328 462.252 78.709 461.638 79.9651L469.422 84.4579C471.742 85.7983 473.624 89.0557 473.624 91.7353C473.624 94.4148 471.743 95.501 469.422 94.1607L418.647 64.8458C416.327 63.5055 414.445 60.248 414.445 57.5685C414.447 54.8901 416.327 53.8039 418.647 55.1431Z" fill="#EBEBEB"/>
<path d="M378.547 82.4441L385.618 86.5263C385.582 86.2111 385.558 85.8971 385.558 85.5904V83.5413C385.558 79.8953 388.118 78.4181 391.275 80.2411C392.553 80.9791 393.73 82.1496 394.682 83.5181C395.198 78.9337 398.796 77.2268 403.164 79.7487C407.887 82.4759 411.717 89.1081 411.717 94.5625V97.6269C411.717 99.0394 411.455 100.229 410.992 101.178L416.866 104.568C418.617 105.579 420.036 108.038 420.036 110.061C420.036 112.083 418.617 112.903 416.866 111.891L378.546 89.7667C376.794 88.7562 375.375 86.2966 375.375 84.2744C375.376 82.2535 376.796 81.4336 378.547 82.4441Z" fill="#EBEBEB"/>
<path d="M64.8687 313.548C64.1771 313.924 51.4026 317.55 46.6691 311.299C41.9369 305.048 49.7886 295.304 45.3495 291.713C40.9105 288.122 28.4696 291.733 25.4748 284.169C22.48 276.604 31.3568 273.363 26.368 265.749C23.2254 260.954 15.5106 258.268 14.8312 253.835C13.6949 246.426 25.9733 243.022 36.474 250.015C46.9746 257.011 53.3246 253.806 56.6566 253.336C59.9886 252.867 67.1707 253.902 66.941 265.598C66.7113 277.295 64.8687 313.548 64.8687 313.548Z" fill="#E7F4FF"/>
<path d="M65.7186 296.914C65.3838 296.914 65.0893 296.672 65.0331 296.332C61.3761 274.137 35.5754 256.071 22.1594 252.194C21.7904 252.088 21.5765 251.702 21.6841 251.333C21.7904 250.965 22.1765 250.753 22.5455 250.858C36.2645 254.821 62.6542 273.332 66.4065 296.105C66.4688 296.484 66.211 296.844 65.8322 296.906C65.7944 296.912 65.7565 296.914 65.7186 296.914Z" fill="white"/>
<path d="M35.2989 278.337C35.0607 278.337 34.8297 278.215 34.699 277.997C34.5035 277.667 34.611 277.24 34.9422 277.043C35.36 276.795 45.2864 270.992 55.0674 273.706C55.4376 273.809 55.6551 274.192 55.5512 274.563C55.4486 274.933 55.0686 275.154 54.6947 275.047C45.4929 272.493 35.7486 278.182 35.6521 278.239C35.5409 278.305 35.4187 278.337 35.2989 278.337Z" fill="white"/>
<path d="M69.8438 322.072C69.8438 325.236 72.2129 329.171 75.1356 330.857L223.379 416.444C226.3 418.132 231.039 418.132 233.96 416.444L436.797 299.337C439.718 297.649 442.087 293.716 442.087 290.55C442.087 287.384 439.72 283.451 436.797 281.764L288.554 196.176C285.632 194.489 280.894 194.489 277.973 196.176L75.1344 313.287C72.2117 314.974 69.8438 318.907 69.8438 322.072Z" fill="#37474F"/>
<path d="M228.673 406.259V417.708C226.755 417.708 224.836 417.293 223.382 416.449L75.1344 330.858C72.2142 329.172 69.8438 325.238 69.8438 322.073C69.8438 319.104 71.9331 315.463 74.5968 313.63C72.2264 315.329 72.4097 317.821 75.1344 319.397L223.382 404.988C224.836 405.832 226.756 406.259 228.673 406.259Z" fill="#263238"/>
<path d="M64.8707 313.476C62.13 311.894 59.9075 307.875 59.9075 304.502L59.9062 127.595C59.9062 124.221 62.2754 120.118 65.1969 118.431L268.035 1.32322C270.957 -0.364167 275.548 -0.448473 278.289 1.13383C281.031 2.71614 283.253 6.73483 283.253 10.1084V187.015C283.253 190.389 280.884 194.492 277.963 196.179L75.1245 313.287C72.2018 314.974 67.6113 315.058 64.8707 313.476Z" fill="#455A64"/>
<path d="M74.5109 313.606C71.5906 314.974 67.4363 314.95 64.8826 313.471C62.1457 311.895 59.9219 307.875 59.9219 304.503V127.59C59.9219 125.904 60.5084 124.035 61.4736 122.385L71.3951 128.103V128.116C70.4421 129.777 69.8434 131.634 69.8434 133.321V310.233C69.8434 313.361 71.8851 314.767 74.5109 313.606Z" fill="#263238"/>
<path d="M69.8438 133.325V310.232C69.8438 313.606 72.2129 314.974 75.1344 313.287L277.973 196.179C280.894 194.492 283.263 190.389 283.263 187.015V10.1084C283.263 6.73481 280.894 5.36633 277.973 7.05372L75.1344 124.161C72.2117 125.849 69.8438 129.952 69.8438 133.325Z" fill="#37474F"/>
<path d="M75.1217 319.396L223.366 404.983C226.287 406.67 231.026 406.67 233.947 404.983L436.785 287.875C439.707 286.188 439.707 283.453 436.785 281.766L288.542 196.179C285.621 194.491 280.883 194.491 277.961 196.179L75.1217 313.286C72.199 314.974 72.199 317.708 75.1217 319.396Z" fill="#455A64"/>
<path d="M77.9556 133.98L273.518 21.1026C275.271 20.0909 276.692 20.9107 276.692 22.9353V176.076C276.692 178.1 275.271 180.562 273.518 181.574L77.9556 294.449C76.2023 295.461 74.7812 294.641 74.7812 292.616V139.477C74.7812 137.454 76.2023 134.992 77.9556 133.98Z" fill="white"/>
<path opacity="0.6" d="M77.9556 133.98L273.518 21.1026C275.271 20.0909 276.692 20.9107 276.692 22.9353V176.076C276.692 178.1 275.271 180.562 273.518 181.574L77.9556 294.449C76.2023 295.461 74.7812 294.641 74.7812 292.616V139.477C74.7812 137.454 76.2023 134.992 77.9556 133.98Z" fill="#E7F4FF"/>
<path d="M175.365 124.297C180.572 121.29 184.793 123.728 184.793 129.739C184.793 135.752 180.572 143.063 175.365 146.068C170.159 149.074 165.938 146.638 165.938 140.625C165.938 134.613 170.159 127.303 175.365 124.297Z" fill="#F0F0F0"/>
<path d="M193.934 156.451C193.934 146.573 186.999 142.188 178.446 147.127L173.098 150.213C164.545 155.152 157.609 167.163 157.609 177.04V179.699L193.934 158.742V156.451Z" fill="#F0F0F0"/>
<path d="M212.276 161.331C211.931 160.534 211.053 160.332 210.06 160.902L146.625 197.504C145.986 197.872 145.389 198.512 144.969 199.256C144.54 199.991 144.281 200.815 144.281 201.569V209.033C144.281 210.304 145.039 210.926 146.064 210.636C146.17 210.606 146.23 210.584 146.23 210.584C146.371 210.531 146.501 210.462 146.625 210.391L210.06 173.789C211.356 173.045 212.408 171.222 212.408 169.724V162.259C212.407 161.962 212.373 161.588 212.276 161.331Z" fill="#F0F0F0"/>
<path d="M152.346 198.429C153.576 197.719 154.575 198.295 154.575 199.716C154.575 201.137 153.577 202.865 152.346 203.576C151.114 204.287 150.117 203.71 150.117 202.289C150.117 200.868 151.114 199.139 152.346 198.429Z" fill="#E7F4FF"/>
<path d="M159.729 194.174C160.959 193.463 161.957 194.039 161.957 195.46C161.957 196.881 160.959 198.609 159.729 199.32C158.498 200.03 157.5 199.455 157.5 198.034C157.5 196.613 158.497 194.884 159.729 194.174Z" fill="#E7F4FF"/>
<path d="M167.08 189.917C168.311 189.207 169.309 189.782 169.309 191.203C169.309 192.624 168.312 194.352 167.08 195.063C165.849 195.774 164.852 195.197 164.852 193.776C164.852 192.355 165.849 190.628 167.08 189.917Z" fill="#E7F4FF"/>
<path d="M174.463 185.661C175.693 184.95 176.692 185.526 176.692 186.947C176.692 188.368 175.695 190.096 174.463 190.807C173.231 191.518 172.234 190.942 172.234 189.521C172.234 188.1 173.231 186.372 174.463 185.661Z" fill="#E7F4FF"/>
<path d="M181.83 181.405C183.061 180.695 184.059 181.27 184.059 182.691C184.059 184.112 183.061 185.84 181.83 186.551C180.6 187.261 179.602 186.686 179.602 185.265C179.602 183.844 180.599 182.116 181.83 181.405Z" fill="#E7F4FF"/>
<path d="M189.197 177.149C190.428 176.44 191.426 177.015 191.426 178.436C191.426 179.857 190.429 181.585 189.197 182.296C187.966 183.007 186.969 182.43 186.969 181.009C186.969 179.588 187.967 177.861 189.197 177.149Z" fill="#E7F4FF"/>
<path d="M196.58 172.893C197.811 172.183 198.809 172.759 198.809 174.18C198.809 175.601 197.812 177.329 196.58 178.04C195.35 178.751 194.352 178.174 194.352 176.753C194.352 175.332 195.35 173.605 196.58 172.893Z" fill="#E7F4FF"/>
<path d="M203.94 168.638C205.17 167.928 206.168 168.503 206.168 169.924C206.168 171.345 205.171 173.073 203.94 173.784C202.709 174.494 201.711 173.919 201.711 172.498C201.712 171.077 202.709 169.348 203.94 168.638Z" fill="#E7F4FF"/>
<path d="M92.346 314.815L280.623 206.115C282.085 205.272 284.453 205.272 285.914 206.115L295.543 211.674C297.005 212.517 297.005 213.886 295.543 214.729L107.238 323.412C105.777 324.255 103.407 324.255 101.947 323.412L92.346 317.87C90.8847 317.025 90.8847 315.658 92.346 314.815Z" fill="#37474F"/>
<path d="M117.157 329.143L305.432 220.44C306.893 219.597 309.261 219.597 310.722 220.44L369.954 254.639C371.416 255.482 371.416 256.851 369.954 257.694L181.895 366.246C180.433 367.089 178.063 367.093 176.599 366.254L117.163 332.19C115.698 331.35 115.695 329.986 117.157 329.143Z" fill="#263238"/>
<path d="M285.929 269.347L291.823 265.944C292.073 265.798 292.059 265.555 291.79 265.4L284.973 261.464C284.704 261.309 284.283 261.301 284.032 261.445L278.137 264.849C277.886 264.993 277.901 265.236 278.171 265.391L284.988 269.327C285.257 269.482 285.678 269.491 285.929 269.347ZM274.295 255.823L268.4 259.226C268.149 259.371 268.165 259.614 268.434 259.77L275.251 263.705C275.52 263.86 275.941 263.869 276.192 263.725L282.086 260.321C282.336 260.177 282.322 259.933 282.053 259.778L275.236 255.843C274.967 255.687 274.546 255.679 274.295 255.823ZM255.25 266.82L245.274 272.58C245.023 272.724 245.038 272.967 245.307 273.122L252.124 277.058C252.392 277.213 252.814 277.221 253.064 277.077L263.041 271.317C263.291 271.173 263.277 270.93 263.008 270.775L256.192 266.839C255.922 266.683 255.501 266.674 255.25 266.82ZM265.68 260.797L259.785 264.201C259.535 264.346 259.549 264.589 259.819 264.744L266.636 268.679C266.904 268.835 267.325 268.843 267.575 268.699L273.471 265.296C273.721 265.151 273.706 264.909 273.438 264.754L266.621 260.818C266.352 260.662 265.931 260.653 265.68 260.797ZM242.554 274.15L236.66 277.553C236.409 277.698 236.424 277.94 236.693 278.095L243.509 282.031C243.778 282.186 244.199 282.194 244.449 282.05L250.345 278.646C250.595 278.502 250.58 278.259 250.31 278.104L243.495 274.168C243.225 274.014 242.803 274.006 242.554 274.15ZM233.937 279.124L228.043 282.527C227.793 282.671 227.807 282.914 228.076 283.069L234.893 287.005C235.162 287.16 235.583 287.169 235.834 287.024L241.729 283.622C241.98 283.476 241.965 283.234 241.696 283.079L234.878 279.143C234.609 278.988 234.189 278.98 233.937 279.124ZM260.75 295.128L266.645 291.724C266.895 291.579 266.881 291.336 266.611 291.181L259.794 287.246C259.526 287.09 259.104 287.082 258.854 287.226L252.958 290.629C252.708 290.774 252.722 291.016 252.991 291.173L259.808 295.108C260.078 295.263 260.499 295.272 260.75 295.128ZM252.135 300.102L258.029 296.699C258.279 296.554 258.265 296.312 257.995 296.155L251.179 292.221C250.91 292.066 250.489 292.057 250.238 292.201L244.344 295.606C244.093 295.75 244.108 295.994 244.377 296.148L251.194 300.084C251.464 300.238 251.884 300.246 252.135 300.102ZM243.519 305.076L249.415 301.672C249.665 301.528 249.65 301.285 249.382 301.13L242.565 297.194C242.296 297.039 241.875 297.03 241.624 297.174L235.73 300.577C235.479 300.723 235.494 300.965 235.764 301.12L242.58 305.055C242.847 305.212 243.269 305.22 243.519 305.076ZM234.903 310.05L240.798 306.647C241.049 306.503 241.034 306.26 240.764 306.105L233.948 302.169C233.68 302.014 233.258 302.006 233.008 302.15L227.113 305.553C226.863 305.697 226.878 305.94 227.146 306.095L233.963 310.03C234.232 310.186 234.652 310.196 234.903 310.05ZM277.313 274.321L283.208 270.917C283.458 270.772 283.443 270.529 283.175 270.374L276.358 266.439C276.089 266.283 275.669 266.275 275.418 266.419L269.523 269.822C269.272 269.967 269.287 270.21 269.556 270.366L276.373 274.301C276.641 274.458 277.063 274.465 277.313 274.321ZM269.366 290.154L282.516 282.561C282.767 282.416 282.751 282.174 282.482 282.018L265.928 272.461C265.659 272.306 265.238 272.297 264.987 272.442L258.185 276.369C257.935 276.514 257.949 276.756 258.218 276.912L266.983 281.972C267.251 282.127 267.266 282.37 267.016 282.515L261.575 285.656C261.324 285.8 261.339 286.043 261.608 286.198L268.424 290.134C268.694 290.289 269.116 290.298 269.366 290.154ZM225.322 284.098L219.427 287.502C219.176 287.646 219.191 287.889 219.461 288.045L226.278 291.98C226.546 292.135 226.967 292.144 227.218 292L233.114 288.597C233.364 288.452 233.35 288.21 233.08 288.053L226.264 284.118C225.994 283.962 225.573 283.954 225.322 284.098ZM216.707 289.072L210.811 292.475C210.561 292.621 210.575 292.864 210.844 293.019L217.66 296.954C217.929 297.11 218.35 297.118 218.601 296.974L224.495 293.57C224.745 293.426 224.731 293.181 224.462 293.027L217.645 289.092C217.378 288.937 216.957 288.928 216.707 289.072ZM173.653 344.851C173.922 345.006 174.343 345.015 174.594 344.871L180.49 341.467C180.74 341.323 180.726 341.078 180.457 340.923L173.64 336.987C173.371 336.832 172.95 336.824 172.699 336.968L166.805 340.371C166.554 340.516 166.569 340.758 166.838 340.914L173.653 344.851ZM147.781 328.867L141.885 332.27C141.635 332.414 141.649 332.657 141.918 332.812L148.735 336.748C149.004 336.903 149.425 336.913 149.676 336.767L155.571 333.365C155.822 333.22 155.807 332.977 155.537 332.822L148.72 328.888C148.453 328.731 148.032 328.722 147.781 328.867ZM161.647 340.538C161.916 340.693 162.338 340.702 162.588 340.558L168.484 337.154C168.734 337.009 168.718 336.766 168.449 336.611L161.634 332.675C161.365 332.52 160.945 332.512 160.693 332.656L154.799 336.059C154.548 336.204 154.563 336.446 154.832 336.601L161.647 340.538ZM188.866 347.874L194.761 344.471C195.011 344.326 194.997 344.084 194.728 343.929L187.911 339.993C187.642 339.838 187.221 339.829 186.97 339.975L181.076 343.378C180.827 343.522 180.84 343.765 181.11 343.92L187.927 347.855C188.195 348.01 188.615 348.02 188.866 347.874ZM179.309 352.829C179.578 352.984 180 352.993 180.249 352.848L186.144 349.444C186.395 349.3 186.38 349.057 186.111 348.902L179.295 344.966C179.026 344.811 178.606 344.802 178.354 344.947L172.458 348.351C172.208 348.495 172.223 348.738 172.493 348.893L179.309 352.829ZM156.397 323.893L150.502 327.296C150.251 327.441 150.266 327.683 150.536 327.838L157.351 331.774C157.62 331.929 158.042 331.937 158.292 331.793L164.186 328.389C164.437 328.245 164.422 328.002 164.153 327.847L157.337 323.911C157.068 323.756 156.648 323.747 156.397 323.893ZM199.475 299.021L193.579 302.423C193.33 302.569 193.344 302.811 193.614 302.966L200.43 306.902C200.699 307.057 201.12 307.065 201.371 306.921L207.267 303.517C207.517 303.373 207.503 303.13 207.234 302.975L200.417 299.039C200.146 298.885 199.725 298.876 199.475 299.021ZM165.012 318.919L159.117 322.321C158.866 322.466 158.881 322.709 159.15 322.864L165.967 326.8C166.235 326.955 166.657 326.965 166.908 326.819L172.802 323.416C173.052 323.271 173.038 323.029 172.768 322.874L165.952 318.938C165.684 318.782 165.263 318.773 165.012 318.919ZM208.09 294.046L202.196 297.451C201.946 297.595 201.96 297.838 202.23 297.993L209.047 301.929C209.316 302.084 209.736 302.094 209.988 301.948L215.883 298.545C216.134 298.4 216.119 298.158 215.85 298.003L209.034 294.067C208.762 293.911 208.341 293.902 208.09 294.046ZM190.86 303.996L184.964 307.399C184.714 307.543 184.728 307.786 184.997 307.941L191.814 311.876C192.083 312.031 192.504 312.041 192.755 311.895L198.649 308.492C198.899 308.348 198.885 308.105 198.616 307.95L191.799 304.014C191.532 303.859 191.11 303.851 190.86 303.996ZM182.244 308.969L176.35 312.373C176.1 312.517 176.114 312.76 176.383 312.916L183.2 316.851C183.469 317.006 183.89 317.015 184.141 316.871L190.036 313.468C190.285 313.322 190.271 313.079 190.002 312.924L183.186 308.989C182.915 308.833 182.494 308.825 182.244 308.969ZM173.629 313.944L167.733 317.347C167.483 317.493 167.498 317.736 167.766 317.891L174.583 321.827C174.852 321.982 175.274 321.99 175.524 321.846L181.42 318.442C181.67 318.298 181.655 318.054 181.385 317.898L174.569 313.964C174.3 313.808 173.879 313.799 173.629 313.944ZM217.672 319.999L223.567 316.595C223.818 316.45 223.803 316.206 223.535 316.052L216.718 312.116C216.449 311.961 216.027 311.953 215.777 312.097L209.881 315.5C209.631 315.645 209.646 315.887 209.916 316.044L216.732 319.979C217 320.136 217.422 320.144 217.672 319.999ZM293.34 244.828L287.446 248.232C287.196 248.376 287.212 248.619 287.479 248.774L294.296 252.71C294.565 252.865 294.986 252.873 295.237 252.729L301.132 249.326C301.383 249.181 301.367 248.939 301.099 248.783L294.283 244.847C294.012 244.692 293.591 244.683 293.34 244.828ZM282.911 250.849L277.015 254.253C276.765 254.397 276.779 254.64 277.048 254.795L283.865 258.731C284.134 258.886 284.555 258.895 284.806 258.751L290.701 255.348C290.952 255.202 290.937 254.959 290.668 254.804L283.852 250.868C283.583 250.713 283.161 250.705 282.911 250.849ZM301.956 239.853L296.062 243.256C295.811 243.4 295.826 243.644 296.095 243.8L302.911 247.736C303.18 247.891 303.602 247.899 303.851 247.755L309.746 244.352C309.997 244.207 309.982 243.964 309.713 243.809L302.898 239.873C302.628 239.718 302.207 239.709 301.956 239.853ZM257.36 285.84L263.256 282.438C263.506 282.292 263.492 282.05 263.222 281.894L256.406 277.958C256.137 277.803 255.716 277.795 255.465 277.939L249.57 281.343C249.319 281.487 249.334 281.73 249.603 281.885L256.42 285.821C256.69 285.976 257.11 285.985 257.36 285.84ZM311.512 234.899C311.243 234.744 310.822 234.735 310.571 234.879L304.677 238.282C304.426 238.427 304.441 238.669 304.71 238.825L311.527 242.76C311.795 242.915 312.217 242.924 312.466 242.78L318.362 239.376C318.612 239.231 318.597 238.988 318.329 238.833L311.512 234.899ZM226.287 315.024L232.182 311.622C232.432 311.476 232.417 311.234 232.147 311.079L225.331 307.144C225.062 306.988 224.642 306.98 224.39 307.124L218.494 310.528C218.244 310.672 218.259 310.915 218.527 311.071L225.343 315.006C225.615 315.161 226.037 315.169 226.287 315.024ZM331.943 254.024L337.838 250.622C338.089 250.477 338.074 250.233 337.805 250.078L330.988 246.143C330.72 245.988 330.298 245.98 330.048 246.124L324.153 249.527C323.903 249.671 323.917 249.914 324.186 250.071L331.003 254.006C331.272 254.16 331.692 254.169 331.943 254.024ZM313.59 253.377L319.486 249.973C319.736 249.829 319.722 249.585 319.452 249.43L312.635 245.495C312.366 245.34 311.944 245.331 311.695 245.475L305.8 248.878C305.549 249.023 305.564 249.265 305.833 249.422L312.649 253.357C312.918 253.513 313.34 253.521 313.59 253.377ZM321.25 240.52C320.981 240.365 320.56 240.357 320.309 240.501L314.414 243.905C314.165 244.049 314.178 244.292 314.448 244.448L321.265 248.383C321.534 248.538 321.955 248.547 322.204 248.403L328.1 245C328.35 244.854 328.336 244.613 328.067 244.457L321.25 240.52ZM323.065 239.473L339.618 249.031C339.887 249.186 340.307 249.194 340.559 249.05L346.453 245.647C346.704 245.502 346.689 245.26 346.42 245.104L329.865 235.546C329.597 235.391 329.175 235.383 328.925 235.527L323.03 238.93C322.78 239.075 322.795 239.318 323.065 239.473ZM303.079 250.451L297.184 253.853C296.934 253.998 296.949 254.241 297.217 254.396L304.034 258.33C304.303 258.485 304.724 258.495 304.975 258.35L310.869 254.947C311.12 254.802 311.105 254.56 310.836 254.403L304.02 250.468C303.749 250.314 303.329 250.305 303.079 250.451ZM238.235 287.887L232.339 291.291C232.089 291.435 232.103 291.678 232.372 291.834L239.189 295.769C239.458 295.924 239.879 295.933 240.13 295.789L246.025 292.386C246.276 292.241 246.26 291.999 245.991 291.843L239.176 287.908C238.905 287.751 238.485 287.743 238.235 287.887ZM322.388 258.979C322.656 259.134 323.078 259.143 323.329 258.999L329.224 255.596C329.473 255.45 329.46 255.208 329.19 255.053L322.373 251.118C322.104 250.963 321.683 250.954 321.433 251.098L315.538 254.502C315.287 254.646 315.302 254.89 315.571 255.045L322.388 258.979ZM246.85 282.914L240.955 286.317C240.704 286.462 240.72 286.704 240.989 286.859L247.804 290.795C248.073 290.95 248.493 290.959 248.745 290.815L254.641 287.411C254.891 287.266 254.876 287.023 254.608 286.868L247.791 282.932C247.521 282.777 247.1 282.769 246.85 282.914ZM182.269 339.877C182.538 340.032 182.959 340.041 183.21 339.897L189.105 336.494C189.354 336.348 189.341 336.106 189.071 335.951L182.254 332.016C181.985 331.86 181.565 331.852 181.314 331.996L175.419 335.4C175.168 335.544 175.183 335.788 175.452 335.943L182.269 339.877ZM169.308 327.682L163.413 331.086C163.163 331.23 163.177 331.473 163.447 331.628L170.264 335.564C170.533 335.719 170.954 335.728 171.205 335.584L177.1 332.181C177.351 332.035 177.336 331.793 177.067 331.637L170.251 327.701C169.98 327.546 169.559 327.538 169.308 327.682ZM191.825 334.921L197.72 331.518C197.971 331.374 197.956 331.131 197.687 330.976L190.871 327.041C190.602 326.886 190.18 326.877 189.93 327.022L184.034 330.425C183.785 330.569 183.798 330.812 184.069 330.967L190.885 334.903C191.153 335.057 191.574 335.067 191.825 334.921ZM200.44 329.948L206.336 326.545C206.586 326.4 206.571 326.158 206.303 326.003L199.486 322.067C199.218 321.912 198.797 321.904 198.545 322.048L192.651 325.451C192.4 325.596 192.415 325.838 192.685 325.993L199.502 329.929C199.768 330.084 200.19 330.092 200.44 329.948ZM209.055 324.973L214.951 321.57C215.201 321.425 215.187 321.183 214.918 321.026L208.101 317.091C207.832 316.936 207.412 316.927 207.16 317.072L201.266 320.475C201.016 320.619 201.03 320.864 201.299 321.018L208.115 324.953C208.385 325.11 208.805 325.118 209.055 324.973ZM177.924 322.708L172.03 326.11C171.779 326.255 171.794 326.498 172.063 326.654L178.879 330.589C179.148 330.744 179.568 330.752 179.82 330.608L185.716 327.205C185.966 327.061 185.951 326.817 185.683 326.661L178.866 322.726C178.596 322.572 178.175 322.563 177.924 322.708ZM186.54 317.733L180.645 321.136C180.394 321.282 180.409 321.524 180.678 321.679L187.495 325.614C187.763 325.77 188.185 325.778 188.435 325.634L194.331 322.23C194.58 322.086 194.567 321.842 194.297 321.687L187.48 317.752C187.211 317.598 186.791 317.589 186.54 317.733ZM221.003 297.837L215.107 301.24C214.857 301.385 214.872 301.627 215.142 301.783L221.958 305.718C222.227 305.873 222.647 305.881 222.899 305.737L228.793 302.334C229.044 302.19 229.029 301.946 228.76 301.791L221.944 297.856C221.674 297.7 221.253 297.691 221.003 297.837ZM212.388 302.811L206.492 306.215C206.242 306.359 206.256 306.603 206.525 306.757L213.341 310.693C213.609 310.848 214.031 310.857 214.281 310.713L220.177 307.31C220.427 307.164 220.413 306.922 220.144 306.766L213.327 302.83C213.058 302.674 212.638 302.665 212.388 302.811ZM229.618 292.861L223.723 296.264C223.472 296.409 223.487 296.651 223.756 296.807L230.571 300.742C230.84 300.897 231.262 300.906 231.512 300.762L237.407 297.358C237.658 297.213 237.643 296.97 237.373 296.815L230.557 292.88C230.29 292.726 229.869 292.717 229.618 292.861ZM195.156 312.759L189.26 316.163C189.01 316.307 189.024 316.551 189.293 316.706L196.11 320.641C196.379 320.797 196.799 320.805 197.051 320.661L202.946 317.258C203.197 317.113 203.182 316.871 202.913 316.716L196.096 312.781C195.828 312.624 195.406 312.614 195.156 312.759ZM203.771 307.785L197.875 311.188C197.625 311.333 197.64 311.575 197.91 311.73L204.726 315.666C204.995 315.821 205.416 315.83 205.666 315.686L211.56 312.281C211.811 312.137 211.796 311.894 211.527 311.739L204.711 307.803C204.443 307.648 204.021 307.641 203.771 307.785ZM197.481 342.9L203.375 339.496C203.626 339.352 203.611 339.109 203.342 338.953L196.525 335.018C196.257 334.863 195.836 334.854 195.585 334.998L189.69 338.401C189.44 338.547 189.454 338.79 189.723 338.945L196.539 342.88C196.81 343.036 197.23 343.044 197.481 342.9ZM146.923 337.795L140.106 333.859C139.837 333.704 139.417 333.696 139.165 333.84L133.271 337.244C133.02 337.388 133.035 337.631 133.304 337.786L140.121 341.722C140.39 341.877 140.811 341.886 141.062 341.742L146.956 338.339C147.206 338.193 147.19 337.951 146.923 337.795ZM159.834 341.585L153.017 337.65C152.749 337.494 152.328 337.485 152.077 337.63L143.008 342.866C142.757 343.01 142.772 343.253 143.042 343.408L149.859 347.343C150.128 347.498 150.548 347.508 150.8 347.362L159.868 342.127C160.118 341.984 160.103 341.74 159.834 341.585ZM136.464 330.187L129.648 326.251C129.379 326.096 128.959 326.086 128.707 326.231L121.452 330.42C121.201 330.564 121.216 330.808 121.486 330.962L128.302 334.898C128.571 335.053 128.992 335.062 129.243 334.918L136.498 330.729C136.748 330.586 136.733 330.342 136.464 330.187ZM142.027 326.976C142.296 327.131 142.716 327.139 142.966 326.995L148.861 323.591C149.111 323.447 149.096 323.204 148.828 323.048L142.011 319.113C141.742 318.958 141.321 318.949 141.07 319.093L135.176 322.496C134.925 322.642 134.94 322.884 135.209 323.039L142.027 326.976ZM171.839 345.898L165.022 341.963C164.753 341.808 164.332 341.799 164.081 341.944L152.745 348.489C152.494 348.634 152.509 348.876 152.779 349.031L159.595 352.967C159.864 353.122 160.284 353.131 160.536 352.986L171.872 346.441C172.124 346.297 172.108 346.054 171.839 345.898ZM177.496 353.876L170.679 349.942C170.412 349.786 169.99 349.777 169.74 349.922L162.484 354.111C162.234 354.255 162.249 354.499 162.517 354.653L169.334 358.589C169.603 358.744 170.024 358.752 170.275 358.608L177.53 354.42C177.78 354.275 177.764 354.031 177.496 353.876ZM206.085 289.991C206.354 290.146 206.774 290.155 207.025 290.011L212.919 286.607C213.169 286.462 213.155 286.219 212.886 286.064L206.069 282.128C205.8 281.973 205.379 281.965 205.128 282.109L199.234 285.512C198.984 285.657 198.998 285.899 199.267 286.054L206.085 289.991ZM188.853 299.941C189.122 300.096 189.544 300.104 189.794 299.96L195.69 296.556C195.94 296.412 195.925 296.169 195.655 296.014L188.839 292.078C188.57 291.923 188.15 291.914 187.898 292.058L182.002 295.461C181.752 295.607 181.767 295.849 182.035 296.005L188.853 299.941ZM150.642 322.001C150.911 322.156 151.332 322.166 151.583 322.021L157.478 318.618C157.729 318.474 157.714 318.231 157.445 318.075L150.629 314.14C150.36 313.985 149.94 313.976 149.688 314.12L143.792 317.523C143.542 317.667 143.557 317.911 143.825 318.066L150.642 322.001ZM197.469 294.965C197.737 295.12 198.159 295.13 198.409 294.985L204.305 291.582C204.555 291.438 204.54 291.195 204.271 291.039L197.455 287.104C197.186 286.949 196.766 286.94 196.514 287.084L190.62 290.487C190.37 290.631 190.384 290.874 190.653 291.03L197.469 294.965ZM180.238 304.915C180.507 305.07 180.928 305.079 181.179 304.933L187.073 301.53C187.324 301.386 187.309 301.142 187.04 300.987L180.225 297.051C179.956 296.896 179.534 296.887 179.284 297.031L173.388 300.434C173.138 300.58 173.152 300.822 173.422 300.978L180.238 304.915ZM182.231 354.516C181.962 354.361 181.54 354.351 181.29 354.497L172.221 359.732C171.971 359.876 171.986 360.12 172.254 360.275L179.071 364.21C179.34 364.366 179.76 364.374 180.012 364.23L189.081 358.994C189.331 358.85 189.316 358.607 189.046 358.452L182.231 354.516ZM167.874 312.053C168.143 312.208 168.563 312.217 168.815 312.073L174.71 308.67C174.961 308.524 174.946 308.282 174.677 308.126L167.861 304.19C167.592 304.035 167.17 304.027 166.92 304.171L161.024 307.575C160.774 307.719 160.788 307.962 161.057 308.117L167.874 312.053ZM159.257 317.027C159.526 317.182 159.948 317.191 160.198 317.047L166.093 313.643C166.343 313.498 166.328 313.255 166.06 313.1L159.243 309.164C158.974 309.009 158.552 309.001 158.302 309.145L152.407 312.548C152.156 312.693 152.171 312.935 152.441 313.09L159.257 317.027ZM341.848 262.361C341.579 262.206 341.158 262.197 340.907 262.342L326.398 270.72C326.147 270.864 326.162 271.107 326.431 271.264L333.248 275.199C333.516 275.354 333.937 275.363 334.188 275.219L348.699 266.841C348.95 266.696 348.935 266.453 348.666 266.298L341.848 262.361ZM322.803 273.357C322.534 273.202 322.114 273.193 321.862 273.337L315.967 276.74C315.716 276.885 315.732 277.127 316.001 277.284L322.817 281.219C323.085 281.375 323.507 281.383 323.757 281.238L329.652 277.835C329.902 277.691 329.887 277.448 329.617 277.292L322.803 273.357ZM206.097 337.926L211.993 334.523C212.243 334.378 212.229 334.136 211.959 333.979L205.142 330.044C204.873 329.888 204.453 329.88 204.201 330.024L198.307 333.428C198.056 333.572 198.071 333.815 198.34 333.971L205.157 337.906C205.425 338.061 205.847 338.07 206.097 337.926ZM305.571 283.305C305.302 283.15 304.881 283.141 304.63 283.286L298.735 286.688C298.484 286.834 298.499 287.077 298.769 287.232L305.586 291.168C305.855 291.323 306.276 291.331 306.527 291.187L312.422 287.783C312.673 287.639 312.658 287.396 312.389 287.241L305.571 283.305ZM350.464 257.387C350.195 257.232 349.773 257.223 349.523 257.367L343.627 260.772C343.378 260.916 343.391 261.159 343.661 261.314L350.478 265.25C350.747 265.405 351.169 265.413 351.419 265.269L357.314 261.866C357.565 261.721 357.55 261.479 357.282 261.324L350.464 257.387ZM365.896 256.348L349.341 246.79C349.072 246.635 348.65 246.626 348.4 246.77L342.504 250.174C342.254 250.319 342.269 250.562 342.539 250.717L359.092 260.275C359.361 260.431 359.783 260.439 360.033 260.295L365.929 256.891C366.179 256.747 366.164 256.504 365.896 256.348ZM273.375 301.893C273.107 301.738 272.685 301.729 272.436 301.874L265.18 306.062C264.93 306.206 264.944 306.45 265.213 306.606L272.03 310.541C272.299 310.697 272.72 310.705 272.971 310.561L280.226 306.373C280.477 306.228 280.462 305.984 280.193 305.83L273.375 301.893ZM295.141 289.326C294.873 289.171 294.451 289.163 294.201 289.307L285.131 294.544C284.88 294.688 284.896 294.931 285.164 295.086L291.981 299.022C292.249 299.177 292.67 299.186 292.921 299.041L301.99 293.806C302.24 293.662 302.226 293.418 301.957 293.263L295.141 289.326ZM253.424 313.413C253.155 313.258 252.733 313.249 252.483 313.393L203.963 341.407C203.712 341.551 203.727 341.794 203.996 341.949L210.813 345.885C211.081 346.04 211.502 346.05 211.753 345.905L260.273 317.892C260.524 317.747 260.509 317.504 260.24 317.348L253.424 313.413ZM202.184 342.996C201.915 342.841 201.493 342.833 201.243 342.977L193.988 347.165C193.737 347.31 193.752 347.553 194.022 347.709L200.839 351.645C201.107 351.8 201.529 351.809 201.779 351.663L209.035 347.475C209.284 347.33 209.271 347.087 209.001 346.932L202.184 342.996ZM263.4 307.653C263.131 307.498 262.711 307.489 262.459 307.634L255.204 311.822C254.953 311.967 254.968 312.209 255.237 312.366L262.054 316.3C262.322 316.457 262.744 316.465 262.994 316.32L270.25 312.13C270.5 311.986 270.486 311.743 270.216 311.587L263.4 307.653ZM192.207 348.756C191.938 348.601 191.518 348.593 191.266 348.737L184.011 352.925C183.761 353.071 183.776 353.313 184.045 353.468L190.861 357.403C191.13 357.559 191.55 357.567 191.802 357.423L199.057 353.234C199.308 353.089 199.293 352.847 199.024 352.691L192.207 348.756ZM283.352 296.135C283.083 295.979 282.663 295.97 282.411 296.115L275.156 300.304C274.906 300.448 274.92 300.691 275.19 300.846L282.007 304.782C282.275 304.937 282.697 304.945 282.946 304.801L290.202 300.613C290.452 300.469 290.437 300.225 290.167 300.07L283.352 296.135ZM314.187 278.331C313.918 278.176 313.496 278.167 313.246 278.311L307.352 281.715C307.101 281.86 307.116 282.103 307.386 282.258L314.201 286.194C314.47 286.349 314.892 286.357 315.142 286.213L321.038 282.81C321.288 282.665 321.272 282.423 321.005 282.266L314.187 278.331ZM333.064 264.62L338.959 261.218C339.209 261.072 339.194 260.829 338.926 260.674L332.109 256.738C331.84 256.583 331.418 256.574 331.168 256.719L325.272 260.122C325.023 260.266 325.037 260.509 325.307 260.665L332.123 264.601C332.393 264.757 332.815 264.766 333.064 264.62ZM294.544 264.372L300.438 260.97C300.689 260.825 300.674 260.582 300.405 260.426L293.588 256.491C293.32 256.336 292.899 256.326 292.648 256.472L286.752 259.875C286.502 260.02 286.516 260.262 286.786 260.417L293.602 264.352C293.873 264.508 294.294 264.518 294.544 264.372ZM275.022 298.131L292.254 288.183C292.505 288.039 292.49 287.795 292.22 287.64L285.403 283.705C285.134 283.549 284.714 283.541 284.462 283.685L267.231 293.633C266.98 293.778 266.995 294.021 267.264 294.176L274.079 298.11C274.352 298.268 274.772 298.277 275.022 298.131ZM323.509 269.576C323.778 269.731 324.2 269.74 324.449 269.596L330.344 266.193C330.595 266.048 330.58 265.806 330.311 265.649L323.495 261.714C323.226 261.558 322.804 261.55 322.555 261.694L316.66 265.098C316.409 265.242 316.425 265.486 316.693 265.641L323.509 269.576ZM314.712 263.973L320.607 260.569C320.857 260.425 320.843 260.181 320.573 260.026L313.758 256.091C313.489 255.935 313.067 255.927 312.817 256.071L306.921 259.474C306.671 259.619 306.686 259.861 306.954 260.016L313.771 263.952C314.04 264.11 314.462 264.117 314.712 263.973ZM266.407 303.107L272.303 299.702C272.553 299.558 272.538 299.315 272.27 299.16L265.453 295.224C265.184 295.069 264.762 295.061 264.512 295.205L258.616 298.609C258.366 298.753 258.381 298.996 258.651 299.151L265.467 303.087C265.735 303.242 266.157 303.251 266.407 303.107ZM304.463 280.572C304.732 280.727 305.153 280.736 305.404 280.591L311.298 277.187C311.549 277.043 311.534 276.8 311.265 276.645L304.448 272.709C304.18 272.554 303.758 272.545 303.508 272.69L297.612 276.092C297.362 276.238 297.376 276.48 297.645 276.635L304.463 280.572ZM223.329 327.977L229.223 324.573C229.474 324.429 229.459 324.186 229.19 324.031L222.374 320.095C222.105 319.94 221.685 319.931 221.433 320.076L215.539 323.48C215.288 323.624 215.303 323.867 215.572 324.022L222.388 327.958C222.657 328.113 223.078 328.122 223.329 327.977ZM231.945 323.003L237.84 319.6C238.09 319.455 238.076 319.213 237.806 319.058L230.989 315.122C230.72 314.967 230.3 314.959 230.049 315.104L224.154 318.507C223.904 318.651 223.918 318.894 224.187 319.049L231.004 322.985C231.273 323.139 231.694 323.147 231.945 323.003ZM214.713 332.952L220.608 329.549C220.859 329.405 220.844 329.161 220.575 329.006L213.758 325.071C213.49 324.915 213.068 324.906 212.818 325.051L206.923 328.454C206.673 328.598 206.688 328.841 206.956 328.996L213.773 332.932C214.042 333.087 214.462 333.096 214.713 332.952ZM249.175 313.055L255.071 309.652C255.321 309.507 255.306 309.263 255.038 309.108L248.221 305.173C247.952 305.018 247.531 305.009 247.28 305.153L241.385 308.557C241.134 308.701 241.149 308.945 241.418 309.1L248.234 313.035C248.504 313.191 248.925 313.199 249.175 313.055ZM240.56 318.028L246.454 314.625C246.705 314.481 246.69 314.238 246.421 314.082L239.604 310.147C239.336 309.992 238.914 309.983 238.664 310.127L232.768 313.53C232.518 313.676 232.532 313.919 232.802 314.074L239.619 318.009C239.888 318.165 240.309 318.173 240.56 318.028ZM257.791 308.079L263.686 304.677C263.936 304.532 263.922 304.289 263.653 304.134L256.836 300.198C256.567 300.043 256.146 300.034 255.895 300.179L250 303.582C249.749 303.726 249.765 303.969 250.034 304.124L256.85 308.06C257.12 308.216 257.54 308.225 257.791 308.079ZM297.208 234.494C297.476 234.649 297.898 234.658 298.148 234.514L304.044 231.11C304.294 230.966 304.28 230.722 304.011 230.567L302.196 229.519C301.928 229.364 301.506 229.355 301.256 229.499L295.361 232.903C295.112 233.048 295.126 233.291 295.396 233.446L297.208 234.494ZM254.816 261.855C255.084 262.011 255.506 262.02 255.757 261.875L261.653 258.472C261.903 258.328 261.889 258.085 261.62 257.93L254.804 253.994C254.535 253.838 254.114 253.829 253.863 253.974L247.969 257.378C247.719 257.523 247.733 257.766 248.002 257.921L254.816 261.855ZM272.048 251.907C272.317 252.062 272.738 252.071 272.988 251.927L278.883 248.524C279.134 248.378 279.119 248.136 278.85 247.98L272.034 244.044C271.765 243.889 271.343 243.881 271.093 244.025L265.197 247.429C264.948 247.573 264.962 247.817 265.232 247.971L272.048 251.907ZM244.296 267.93C244.565 268.086 244.985 268.094 245.237 267.95L251.133 264.547C251.383 264.403 251.368 264.16 251.098 264.005L244.282 260.069C244.013 259.914 243.591 259.905 243.341 260.051L237.445 263.454C237.195 263.598 237.21 263.841 237.478 263.997L244.296 267.93ZM263.432 256.882C263.701 257.038 264.122 257.046 264.373 256.902L270.267 253.498C270.516 253.354 270.503 253.111 270.233 252.955L263.416 249.02C263.147 248.865 262.727 248.856 262.476 249L256.581 252.403C256.33 252.548 256.345 252.79 256.614 252.946L263.432 256.882ZM227.064 277.879C227.333 278.034 227.754 278.043 228.005 277.897L233.9 274.494C234.15 274.35 234.135 274.107 233.867 273.951L227.05 270.015C226.781 269.86 226.359 269.851 226.109 269.995L220.214 273.398C219.963 273.544 219.979 273.787 220.248 273.942L227.064 277.879ZM235.68 272.905C235.949 273.06 236.37 273.068 236.621 272.924L242.516 269.52C242.767 269.376 242.752 269.133 242.482 268.978L235.666 265.042C235.398 264.887 234.976 264.878 234.726 265.022L228.831 268.425C228.581 268.571 228.595 268.813 228.864 268.969L235.68 272.905ZM279.976 244.443C280.245 244.598 280.666 244.606 280.917 244.462L286.812 241.058C287.063 240.914 287.048 240.671 286.779 240.516L284.965 239.468C284.696 239.313 284.275 239.305 284.025 239.449L278.13 242.853C277.879 242.997 277.894 243.24 278.163 243.396L279.976 244.443ZM305.823 229.519C306.092 229.674 306.513 229.684 306.764 229.538L312.659 226.136C312.91 225.99 312.895 225.748 312.625 225.593L310.811 224.545C310.542 224.39 310.12 224.381 309.87 224.526L303.974 227.929C303.724 228.073 303.738 228.318 304.007 228.473L305.823 229.519ZM320.142 237.786C320.411 237.941 320.832 237.95 321.083 237.806L326.978 234.403C327.229 234.257 327.214 234.015 326.945 233.86L320.128 229.925C319.86 229.769 319.438 229.761 319.188 229.905L313.292 233.309C313.042 233.453 313.056 233.696 313.325 233.852L320.142 237.786ZM341.681 259.646L347.576 256.242C347.827 256.098 347.812 255.855 347.543 255.7L340.727 251.764C340.458 251.609 340.036 251.6 339.786 251.744L333.891 255.147C333.641 255.293 333.656 255.535 333.926 255.69L340.741 259.625C341.009 259.783 341.43 259.79 341.681 259.646ZM288.592 239.467C288.861 239.622 289.281 239.632 289.533 239.487L295.429 236.084C295.679 235.94 295.664 235.697 295.396 235.541L293.581 234.494C293.312 234.339 292.891 234.331 292.64 234.475L286.745 237.878C286.496 238.023 286.509 238.265 286.779 238.42L288.592 239.467ZM218.449 282.853C218.718 283.008 219.139 283.017 219.39 282.873L225.285 279.47C225.536 279.324 225.521 279.082 225.252 278.927L218.436 274.992C218.167 274.836 217.745 274.828 217.495 274.972L211.599 278.376C211.35 278.52 211.364 278.763 211.634 278.919L218.449 282.853Z" fill="#455A64"/>
<path d="M256.651 334.568L314.824 300.982C316.577 299.97 319.419 299.97 321.172 300.982L354.53 320.241C356.284 321.252 356.284 322.893 354.53 323.906L296.356 357.493C294.603 358.504 291.761 358.504 290.008 357.493L256.651 338.234C254.898 337.221 254.898 335.58 256.651 334.568Z" fill="#263238"/>
<path d="M363.622 173.052C363.622 173.04 363.634 173.04 363.634 173.04L363.561 172.991L353.63 167.27C353.056 167.014 352.212 167.258 351.198 168.028C341.956 175.101 329.536 177.293 319.38 174.063C318.731 173.458 318.108 172.819 317.521 172.136C317.46 172.063 317.399 171.989 317.338 171.928H317.326C316.984 171.549 316.642 171.268 316.3 171.085L316.129 170.987L306.185 165.279C305.049 164.741 304.022 165.279 303.338 166.965C293.734 190.828 273.268 215.008 259.62 221.057C258.606 221.509 257.665 222.205 256.932 223.06C255.967 224.172 255.368 225.541 255.417 226.97L257.384 280.549C257.384 296.03 263.921 312.378 277.251 320.333L287.537 326.273L287.72 326.371C292.828 329.291 298.9 331.002 305.95 331.002C307.38 331.002 308.834 330.941 310.337 330.794C312.854 330.55 316.348 328.729 318.108 326.909C347.933 296.106 362.437 254.416 362.437 231.347L364.404 175.301C364.453 174.091 364.16 173.346 363.622 173.052Z" fill="#E7F4FF"/>
<path d="M364.41 175.3L362.443 231.347C362.443 254.416 347.94 296.105 318.114 326.908C316.355 328.729 312.86 330.55 310.343 330.794C308.84 330.941 307.386 331.002 305.957 331.002C298.907 331.002 292.834 329.291 287.727 326.371L287.543 326.273L287.189 326.053C273.858 318.099 267.322 301.75 267.322 286.269L265.354 232.691C265.305 231.261 265.904 229.893 266.869 228.781C267.603 227.926 268.543 227.229 269.558 226.777C283.206 220.729 303.672 196.548 313.276 172.686C313.96 170.999 314.998 170.45 316.135 170.987L316.306 171.085C316.648 171.268 316.99 171.549 317.332 171.928H317.344C317.405 171.989 317.467 172.062 317.528 172.136C327.718 184 347.756 183.988 361.136 173.749C362.15 172.979 362.993 172.734 363.567 172.991L363.641 173.04C363.641 173.04 363.628 173.04 363.628 173.052C364.166 173.345 364.459 174.091 364.41 175.3Z" fill="#E7F4FF"/>
<path opacity="0.4" d="M363.556 172.985C362.982 172.728 362.139 172.973 361.125 173.742C348.528 183.383 330.016 183.957 319.398 174.06C329.552 177.298 341.954 175.099 351.191 168.024C352.205 167.254 353.048 167.01 353.623 167.267L363.556 172.985Z" fill="white"/>
<path opacity="0.4" d="M316.121 170.981C314.985 170.443 313.946 170.993 313.262 172.679C303.658 196.542 283.192 220.723 269.544 226.771C268.53 227.223 267.589 227.92 266.856 228.775C266.599 229.068 266.367 229.386 266.171 229.716L256.25 223.985C256.445 223.668 256.665 223.35 256.922 223.057C257.056 222.898 257.203 222.751 257.362 222.605L257.374 222.592C257.435 222.543 257.484 222.482 257.545 222.421C257.606 222.372 257.655 222.323 257.716 222.262C258.278 221.774 258.926 221.346 259.61 221.053C273.258 215.005 293.724 190.824 303.328 166.961C304.012 165.275 305.039 164.737 306.175 165.275L316.121 170.981Z" fill="white"/>
<path d="M257.381 222.58C257.43 222.519 257.491 222.47 257.552 222.421C257.491 222.482 257.442 222.544 257.381 222.592C257.381 222.592 257.368 222.58 257.381 222.58Z" fill="#E7F4FF"/>
<path opacity="0.15" d="M257.552 222.421C257.491 222.482 257.442 222.544 257.38 222.592C257.38 222.592 257.368 222.58 257.38 222.58C257.428 222.519 257.489 222.47 257.552 222.421Z" fill="black"/>
<path opacity="0.15" d="M287.738 326.365L287.555 326.279L277.267 320.329C263.937 312.374 257.4 296.026 257.4 280.545L255.433 226.966C255.396 225.916 255.714 224.889 256.276 223.985L266.197 229.716C265.647 230.62 265.33 231.634 265.366 232.685L267.333 286.263C267.333 301.744 273.87 318.093 287.201 326.047L287.555 326.267L287.738 326.365Z" fill="black"/>
<path d="M322.833 277.066L306.954 286.234L309.414 257.509C307.514 256.505 306.305 254.034 306.305 250.486C306.305 244.16 310.15 236.813 314.894 234.074C319.638 231.336 323.483 234.243 323.483 240.568C323.483 244.116 322.272 247.985 320.373 251.182L322.833 277.066Z" fill="#455A64"/>
<path d="M322.832 277.066L308.45 268.762L306.953 286.235L322.832 277.066Z" fill="#37474F"/>
<path d="M314.895 234.074C311.792 235.866 309.081 239.633 307.57 243.794L320.374 251.186V251.182C322.274 247.985 323.484 244.116 323.484 240.568C323.484 234.243 319.637 231.336 314.895 234.074Z" fill="#37474F"/>
<path d="M116.227 443.935V448.711C116.207 454.323 119.904 459.939 127.321 464.22C138.49 470.668 154.894 472.24 168.63 468.952L181.387 476.318L191.189 474.101L197.879 477.963L198.244 486.048L201.847 488.129L210.899 488.925L217.404 492.554V497.111L225.567 501.824H246.326L253.767 497.53V492.71L187.373 459.198C190.431 455.954 191.965 452.357 191.972 448.761V443.934C190.974 439.273 187.091 436.869 180.891 433.29C166.098 424.749 142.114 424.749 127.321 433.29C120.671 437.131 116.897 438.914 116.227 443.935ZM136.562 438.356C140.753 435.936 147.547 435.936 151.737 438.356C155.928 440.775 155.928 444.698 151.737 447.118C147.547 449.537 140.753 449.537 136.562 447.118C132.371 444.698 132.371 440.775 136.562 438.356Z" fill="#E7F4FF"/>
<path opacity="0.1" d="M116.227 443.935V448.711C116.207 454.323 119.904 459.939 127.321 464.22C138.49 470.668 154.894 472.24 168.63 468.952L181.387 476.318L191.189 474.101L197.879 477.963L198.244 486.048L201.847 488.129L210.899 488.925L217.404 492.554V497.111L225.567 501.824H246.326L253.767 497.53V492.71L187.373 459.198C190.431 455.954 191.965 452.357 191.972 448.761V443.934C190.974 439.273 187.091 436.869 180.891 433.29C166.098 424.749 142.114 424.749 127.321 433.29C120.671 437.131 116.897 438.914 116.227 443.935ZM136.562 438.356C140.753 435.936 147.547 435.936 151.737 438.356C155.928 440.775 155.928 444.698 151.737 447.118C147.547 449.537 140.753 449.537 136.562 447.118C132.371 444.698 132.371 440.775 136.562 438.356Z" fill="black"/>
<path d="M127.321 459.4C138.49 465.848 154.894 467.42 168.63 464.132L181.387 471.498L191.189 469.283L197.879 473.145L198.244 481.23L201.847 483.311L210.899 484.106L217.956 488.044L217.404 492.293L225.567 497.005H246.327L253.768 492.712L187.373 454.38C195.193 446.084 193.046 435.49 180.891 428.471C166.098 419.93 142.114 419.93 127.321 428.471C112.528 437.011 112.528 450.859 127.321 459.4ZM136.562 433.536C140.753 431.117 147.547 431.117 151.738 433.536C155.929 435.955 155.929 439.879 151.738 442.298C147.547 444.717 140.753 444.717 136.562 442.298C132.371 439.877 132.371 435.955 136.562 433.536Z" fill="#E7F4FF"/>
<path opacity="0.3" d="M154.097 461.609C144.706 461.609 135.939 459.535 129.411 455.766C123.692 452.464 120.414 448.152 120.414 443.935C120.414 439.719 123.694 435.407 129.411 432.105C135.939 428.337 144.707 426.262 154.098 426.262C163.489 426.262 172.256 428.337 178.785 432.105C184.502 435.408 187.781 439.72 187.781 443.936C187.781 448.153 184.502 452.465 178.786 455.766C172.255 459.535 163.488 461.609 154.097 461.609ZM154.097 427.941C144.997 427.941 136.527 429.936 130.249 433.559C125.066 436.553 122.092 440.334 122.092 443.935C122.092 447.536 125.066 451.318 130.249 454.312C136.525 457.935 144.995 459.93 154.096 459.93C163.196 459.93 171.665 457.935 177.943 454.312C183.126 451.319 186.099 447.537 186.099 443.936C186.099 440.336 183.126 436.554 177.942 433.559C171.667 429.936 163.199 427.941 154.097 427.941Z" fill="black"/>
<path opacity="0.1" d="M140.477 464.334V469.153C149.526 471.168 159.65 471.101 168.633 468.952V464.133C159.651 466.282 149.527 466.349 140.477 464.334Z" fill="black"/>
<path opacity="0.1" d="M181.391 471.498V476.319L191.192 474.103V469.282L181.391 471.498Z" fill="black"/>
<path opacity="0.1" d="M197.883 473.144V477.965L198.248 486.05V481.23L197.883 473.144Z" fill="black"/>
<path opacity="0.1" d="M201.836 483.311V488.131L210.887 488.927V484.105L201.836 483.311Z" fill="black"/>
<path opacity="0.1" d="M246.337 497.005H225.578V501.825H246.337V497.005Z" fill="black"/>
<path opacity="0.15" d="M253.761 492.711V497.532L246.32 501.825V497.005L249.581 495.122V497.203L251.381 496.164V494.062L253.761 492.711Z" fill="black"/>
<path d="M251.37 494.062L249.57 495.122V497.203L251.37 496.165V494.062Z" fill="#E7F4FF"/>
<path opacity="0.15" d="M251.393 494.062V496.165L183.305 456.849L185.104 455.788L251.393 494.062Z" fill="black"/>
<path opacity="0.15" d="M185.104 455.788V457.891L183.305 456.849L185.104 455.788Z" fill="black"/>
<path d="M481.096 313.473C481.952 281.649 479.401 274.023 470.929 268.192L467.647 286.632C467.647 286.632 471.506 308.363 471.092 315.6C470.728 321.959 470.11 329.913 468.606 335.053C468.339 335.963 467.725 336.73 466.921 337.233C464.763 338.583 463.893 339.967 462.268 341.67C460.996 343.001 459.912 343.332 460.08 343.756C460.295 344.301 461.202 345.182 462.762 344.707C463.546 344.468 464.559 343.854 465.822 343.047C465.822 343.047 464.919 345.698 462.687 348.435C459.662 352.143 459.529 354.422 465.637 354.476C469.465 354.51 472.518 352.149 475.398 343.715C476.228 341.286 477.527 337.449 478.089 334.244C479.552 325.897 480.957 318.595 481.096 313.473Z" fill="#B16668"/>
<path d="M463.805 265.775C467.849 265.188 473.346 266.036 476.897 272.387C480.448 278.738 481.319 289.663 481.723 300.527C481.723 300.527 474.669 306.426 466.208 303.525L463.805 265.775Z" fill="#E7F4FF"/>
<path opacity="0.7" d="M463.805 265.775C467.849 265.188 473.346 266.036 476.897 272.387C480.448 278.738 481.319 289.663 481.723 300.527C481.723 300.527 474.669 306.426 466.208 303.525L463.805 265.775Z" fill="black"/>
<path d="M475.722 440.808C476.365 441.051 476.526 442.274 476.624 444.707C476.697 446.547 477.092 449.759 474.937 450.4C472.781 451.042 469.623 450.714 468.242 448.979C466.518 446.814 465.352 444.908 462.891 442.267C460.757 439.976 458.448 437.836 457.586 434.623C456.808 431.718 457.455 430.459 459.437 429.614C462.162 428.453 466.442 432.247 468.577 432.845C470.416 433.359 475.081 440.565 475.722 440.808Z" fill="#263238"/>
<path d="M475.736 438.556V441.543C475.736 441.543 472.631 443.928 468.189 441.747C468.059 441.458 467.406 437.475 467.406 437.475L475.736 438.556Z" fill="#B16668"/>
<path d="M451.54 458.018C451.54 458.018 452.397 460.616 452.859 462.886C453.225 464.691 453.752 467.709 453.119 469.067C452.486 470.425 450.02 471.302 446.197 471.273C443.72 471.254 439.862 472.936 437.22 474.409C434.492 475.932 428.816 476.539 425.929 476.199C422.527 475.8 419.003 473.828 418.454 472.419C417.904 471.01 418.634 469.548 426.65 466.131C426.723 466.099 437.793 462.5 441.672 458.22L451.54 458.018Z" fill="#263238"/>
<path d="M451.542 454.789C451.542 454.789 451.531 457.006 451.542 458.272C451.553 459.537 450.057 461.425 446.186 461.287C443.466 461.191 441.569 460.459 441.676 458.219V454.991L451.542 454.789Z" fill="#B16668"/>
<path d="M477.649 398.929C476.282 389.172 474.123 383.377 474.123 383.377C474.123 383.377 475.189 369.958 475.7 357.236C476.253 343.495 475.671 326.222 475.933 322.793C475.933 322.793 431.591 313.821 430.8 329.707C430.009 345.592 432.549 386.028 433.075 393.006C433.599 399.984 434.805 406.156 436.247 417.467C437.669 428.63 441.658 454.99 441.658 454.99C446.724 457.728 451.524 454.788 451.524 454.788C451.524 454.788 454.644 423.026 454.317 414.974C453.917 405.142 451.263 397.399 451.263 397.399C451.263 397.399 452.104 384.3 452.847 372.908C453.589 361.515 454.375 356.043 454.548 351.087L455.502 350.614C455.502 350.614 456.475 370.269 456.999 377.248C457.523 384.226 458.632 390.917 460.652 403.88C462.403 415.124 467.619 438.915 467.619 438.915C472.685 441.653 475.707 438.557 475.707 438.557C475.707 438.557 479.017 408.685 477.649 398.929Z" fill="#37474F"/>
<path d="M454.578 351.087C454.578 351.087 465.334 345.786 470.719 341.005C470.719 341.005 465.72 348.049 459.158 351.171C459.158 351.171 456.824 375.587 456.836 375.104L455.488 351.05L454.578 351.087Z" fill="#263238"/>
<path d="M444.969 260.743L447.592 275.184L460.637 274.231L457.897 257.861L444.969 260.743Z" fill="#B16668"/>
<path d="M474.438 273.176C473.146 269.249 468.165 264.976 463.18 265.901C454.022 267.602 446.758 269.422 441.35 271.353C436.786 272.983 432.628 276.927 432.251 291.939C432.251 291.939 430.722 326.936 430.695 333.705C442.155 338.239 454.074 338.1 460.663 336.66C474.377 333.664 476.031 327.975 476.031 327.975C476.031 327.975 476.208 302.809 475.798 291.94C475.447 282.706 475.325 275.873 474.438 273.176Z" fill="#E7F4FF"/>
<g opacity="0.15">
<path d="M474.438 273.176C473.146 269.249 468.165 264.976 463.18 265.901C454.022 267.602 446.758 269.422 441.35 271.353C436.786 272.983 432.628 276.927 432.251 291.939C432.251 291.939 430.722 326.936 430.695 333.705C442.155 338.239 454.074 338.1 460.663 336.66C474.377 333.664 476.031 327.975 476.031 327.975C476.031 327.975 476.208 302.809 475.798 291.94C475.447 282.706 475.325 275.873 474.438 273.176Z" fill="black"/>
</g>
<path d="M434.909 243.177C434.909 243.177 431.602 248.451 432.002 248.953C432.404 249.455 434.935 249.859 434.935 249.859L434.909 243.177Z" fill="#9A4A4D"/>
<path d="M444.092 228.586C437.195 230.204 435.262 233.296 434.856 244.321C434.434 255.841 435.688 259.431 437.235 260.946C438.279 261.968 443.953 262.03 446.795 261.177C450.353 260.109 458.378 257.06 462.037 251.188C466.34 244.28 467.303 235.025 462.446 231.348C455.612 226.172 446.899 227.928 444.092 228.586Z" fill="#B16668"/>
<path d="M434.951 231.454C436.976 234.92 441.37 236.577 441.37 236.577C442.692 238.083 441.964 243.961 444.291 244.894C444.291 244.894 445.291 240.616 448.887 241.071C452.507 241.528 453.097 246.116 450.887 248.96C448.675 251.805 446.532 250.782 446.532 250.782C446.532 250.782 446.78 256.858 449.55 260.238C449.55 260.238 452.638 261.161 458.247 259.832C461.695 259.016 466.497 254.575 468.454 249.943C472.592 240.143 472.699 231.408 466.447 228.932C465.677 224.477 462.112 222.552 458.079 221.72C449.397 219.931 443.801 225.349 437.119 224.879C433.295 224.609 432.58 227.393 434.951 231.454Z" fill="#263238"/>
<path d="M466.604 230.424L470.696 227.886C469.994 226.756 468.511 226.409 467.381 227.109C466.251 227.809 465.904 229.294 466.604 230.424Z" fill="#263238"/>
<path d="M386.177 297.35C388.323 298.304 413.596 316.982 417.536 314.806C421.477 312.631 441.694 289.012 441.694 289.012C447.565 279.284 441.694 271.292 441.694 271.292C441.694 271.292 435.21 272.49 431.822 277.618C428.434 282.746 413.78 301.121 413.78 301.121C410.161 299.311 406.555 297.473 402.961 295.613C399.999 294.08 397.032 292.549 394.133 290.899C393.409 290.488 392.454 290.088 391.854 289.494C390.424 288.081 390.67 284.661 390.697 282.801C390.709 281.931 390.721 281.06 390.823 280.196C390.946 279.134 391.149 276.533 389.237 277.358C388.868 277.518 388.57 277.806 388.324 278.125C388.024 278.516 387.79 278.959 387.64 279.429C387.279 280.553 387.395 281.783 387.064 282.917C387.017 283.082 386.954 283.252 386.83 283.369C386.673 283.518 386.442 283.561 386.226 283.554C383.44 283.469 380.805 279.567 379.526 277.494C378.956 276.572 378.395 275.544 377.413 275.086C375.888 274.374 374.058 275.394 373.077 276.76C371.825 278.502 371.449 280.765 371.697 282.896C372.039 285.849 373.172 288.582 375.328 290.591C378.596 293.642 382.144 295.556 386.177 297.35Z" fill="#B16668"/>
<path d="M443.754 270.531C440.966 270.853 436.335 271.063 431.799 276.201C426.494 282.209 419.508 292.017 419.508 292.017C419.508 292.017 421.404 301.528 431.731 303.524C431.731 303.524 441.295 293.726 443.955 288.331C446.613 282.936 447.038 274.173 443.754 270.531Z" fill="#E7F4FF"/>
<path opacity="0.7" d="M443.754 270.531C440.966 270.853 436.335 271.063 431.799 276.201C426.494 282.209 419.508 292.017 419.508 292.017C419.508 292.017 421.404 301.528 431.731 303.524C431.731 303.524 441.295 293.726 443.955 288.331C446.613 282.936 447.038 274.173 443.754 270.531Z" fill="black"/>
</svg>
