<svg width="358" height="350" viewBox="0 0 358 350" fill="none" xmlns="http://www.w3.org/2000/svg">
<path d="M178.999 350C277.858 350 357.998 306.399 357.998 252.615C357.998 198.83 277.858 155.229 178.999 155.229C80.1406 155.229 0 198.83 0 252.615C0 306.399 80.1406 350 178.999 350Z" fill="#F5F5F5"/>
<path d="M210.593 326.752L118.914 273.821L205.851 223.685L297.531 276.615L210.593 326.752Z" fill="#E6E6E6"/>
<path d="M29.3955 272.918L47.6582 283.427C49.498 284.489 52.4803 284.489 54.3202 283.427L175.672 213.247C177.512 212.184 177.512 210.463 175.672 209.401L157.409 198.892C155.569 197.829 152.587 197.829 150.747 198.892L29.3955 269.072C27.5557 270.133 27.5557 271.855 29.3955 272.918Z" fill="#E6E6E6"/>
<path d="M254.637 229.422C241.11 221.612 241.11 208.95 254.637 201.14C268.164 193.33 290.096 193.33 303.623 201.14C317.15 208.95 317.15 221.612 303.623 229.422C290.096 237.232 268.164 237.232 254.637 229.422Z" fill="#E6E6E6"/>
<path d="M223.304 213.256C218.742 210.622 218.742 206.352 223.304 203.717C227.867 201.083 235.264 201.083 239.827 203.717C244.389 206.352 244.389 210.622 239.827 213.256C235.264 215.891 227.867 215.891 223.304 213.256Z" fill="#E6E6E6"/>
<path d="M41.1016 273.172L34.9401 269.619L34.8708 269.573C34.0708 269.073 33.5781 268.042 33.5781 266.604V77.1508L158.567 4.98633L164.821 8.59436L39.8322 80.7589V270.212C39.8322 271.641 40.3171 272.664 41.1016 273.172Z" fill="#EBEBEB"/>
<path d="M164.817 8.59497V198.048C164.817 201.025 162.725 204.641 160.155 206.125L44.4899 272.904C43.2821 273.605 42.1824 273.712 41.359 273.32L41.0975 273.173C40.313 272.666 39.8281 271.643 39.8281 270.211V80.7587L164.817 8.59497Z" fill="#F0F0F0"/>
<path d="M158.567 4.98682L164.821 8.59484L39.8323 80.7586L33.5781 77.1513L158.567 4.98682Z" fill="#FAFAFA"/>
<path d="M40.2299 275.101L38.7916 274.277L38.7224 274.231C37.9223 273.732 37.4297 272.701 37.4297 271.262V80.4242L165.544 6.45728L167.074 7.33438L38.9605 81.3037V272.139C38.9605 273.57 39.4454 274.592 40.2299 275.101Z" fill="#E7F4FF"/>
<path opacity="0.1" d="M40.2299 275.101L38.7916 274.277L38.7224 274.231C37.9223 273.732 37.4297 272.701 37.4297 271.262V80.4242L165.544 6.45728L167.074 7.33438L38.9605 81.3037V272.139C38.9605 273.57 39.4454 274.592 40.2299 275.101Z" fill="black"/>
<path d="M167.076 7.33838V198.173C167.076 201.15 164.983 204.766 162.414 206.251L43.6227 274.835C42.4149 275.535 41.3152 275.642 40.4918 275.25L40.2303 275.104C39.4458 274.596 38.9609 273.573 38.9609 272.142V81.3077L167.076 7.33838Z" fill="#E7F4FF"/>
<path opacity="0.05" d="M167.076 7.33838V198.173C167.076 201.15 164.983 204.766 162.414 206.251L43.6227 274.835C42.4149 275.535 41.3152 275.642 40.4918 275.25L40.2303 275.104C39.4458 274.596 38.9609 273.573 38.9609 272.142V81.3077L167.076 7.33838Z" fill="black"/>
<path d="M165.544 6.45801L167.075 7.33822L38.9605 81.3075L37.4297 80.4242L165.544 6.45801Z" fill="#E7F4FF"/>
<path opacity="0.4" d="M165.544 6.45801L167.075 7.33822L38.9605 81.3075L37.4297 80.4242L165.544 6.45801Z" fill="white"/>
<path d="M42.6744 276.512L41.2362 275.689L41.1669 275.643C40.3669 275.143 39.875 274.112 39.875 272.674V81.8368L167.989 7.86987L169.52 8.74698L41.4051 82.7155V273.55C41.4051 274.982 41.8899 276.005 42.6744 276.512Z" fill="#E7F4FF"/>
<path opacity="0.1" d="M42.6744 276.512L41.2362 275.689L41.1669 275.643C40.3669 275.143 39.875 274.112 39.875 272.674V81.8368L167.989 7.86987L169.52 8.74698L41.4051 82.7155V273.55C41.4051 274.982 41.8899 276.005 42.6744 276.512Z" fill="black"/>
<path d="M169.52 8.75V199.585C169.52 202.562 167.427 206.178 164.858 207.663L46.068 276.247C44.8602 276.947 43.7605 277.055 42.9371 276.663L42.6756 276.516C41.8911 276.009 41.4062 274.985 41.4062 273.554V82.7193L169.52 8.75Z" fill="#E7F4FF"/>
<path d="M167.989 7.86987L169.52 8.75009L41.4058 82.7194L39.875 81.8368L167.989 7.86987Z" fill="#E7F4FF"/>
<path opacity="0.4" d="M167.989 7.86987L169.52 8.75009L41.4058 82.7194L39.875 81.8368L167.989 7.86987Z" fill="white"/>
<path d="M50.4758 278.587L44.3143 275.033L44.245 274.987C43.445 274.487 42.9531 273.456 42.9531 272.018V82.5649L167.942 10.4004L174.196 14.0084L49.2072 86.1729V275.626C49.2065 277.056 49.6913 278.079 50.4758 278.587Z" fill="#EBEBEB"/>
<path d="M174.192 14.0085V203.461C174.192 206.438 172.1 210.054 169.53 211.539L53.8649 278.319C52.6571 279.019 51.5574 279.126 50.734 278.734L50.4725 278.588C49.688 278.08 49.2031 277.057 49.2031 275.626V86.173L174.192 14.0085Z" fill="#F5F5F5"/>
<path d="M167.942 10.4004L174.196 14.0084L49.2065 86.1721L42.9531 82.5649L167.942 10.4004Z" fill="#FAFAFA"/>
<path d="M58.6075 87.976C60.3322 86.9782 61.7307 87.7861 61.7307 89.7792C61.7307 91.7723 60.3322 94.1966 58.6075 95.1928C56.8821 96.189 55.4844 95.3811 55.4844 93.3896C55.4844 91.398 56.8821 88.9737 58.6075 87.976Z" fill="#E0E0E0"/>
<path d="M49.8045 63.0487C46.4043 61.0867 43.1426 60.8026 40.6272 62.2564C38.1119 63.7024 36.7266 66.6723 36.7266 70.6033C36.7266 72.0337 36.9188 73.5264 37.2729 75.0339L39.3579 73.8261C39.1423 72.7342 39.0349 71.6493 39.0349 70.6033C39.0349 67.526 40.0116 65.2722 41.7814 64.2495C43.5504 63.2261 45.9895 63.511 48.6511 65.0496C54.59 68.4732 59.4207 76.8426 59.4207 83.7046C59.4207 85.4199 59.1133 86.8814 58.5436 88.0123C58.0821 88.9049 57.4509 89.5968 56.6742 90.0505C56.6128 90.0887 56.5513 90.1198 56.4898 90.1509C55.9668 90.9969 55.6049 91.9588 55.5053 92.8663C56.3287 92.7355 57.1132 92.4585 57.8284 92.0507C59.3281 91.1813 60.4286 89.7813 61.0668 87.9508C61.5049 86.7196 61.7283 85.2891 61.7283 83.7046C61.7275 76.111 56.3816 66.8411 49.8045 63.0487Z" fill="#455A64"/>
<path d="M73.7638 79.2135C75.4884 78.2158 76.887 79.0236 76.887 81.0167C76.887 83.0099 75.4884 85.4342 73.7638 86.4303C72.0384 87.4265 70.6406 86.6195 70.6406 84.6271C70.6406 82.6347 72.0384 80.2112 73.7638 79.2135Z" fill="#E0E0E0"/>
<path d="M64.96 54.2862C61.5597 52.3242 58.298 52.0402 55.7827 53.4939C53.2673 54.94 51.8828 57.9098 51.8828 61.8408C51.8828 63.2721 52.075 64.764 52.4292 66.2715L54.5141 65.0636C54.2985 63.9717 54.1911 62.8868 54.1911 61.8408C54.1911 58.7636 55.1679 56.5097 56.9376 55.4871C58.7066 54.4637 61.1457 54.7485 63.8074 56.2871C69.7463 59.7107 74.577 68.0802 74.577 74.9421C74.577 76.6574 74.2758 78.1221 73.6999 79.2498C73.243 80.1448 72.601 80.8235 71.8305 81.2881C71.7682 81.3254 71.7075 81.3573 71.646 81.3885C71.123 82.2344 70.7612 83.1964 70.6615 84.1038C71.4849 83.9731 72.271 83.6991 72.9846 83.2882C74.4883 82.4243 75.5786 81.0165 76.223 79.1883C76.6573 77.9563 76.8845 76.5267 76.8845 74.9421C76.883 67.3478 71.5371 58.0787 64.96 54.2862Z" fill="#455A64"/>
<path d="M88.9591 70.4506C90.6845 69.4528 92.0823 70.2607 92.0823 72.2538C92.0823 74.2469 90.6837 76.6712 88.9591 77.6674C87.2345 78.6636 85.8359 77.8557 85.8359 75.8642C85.8359 73.871 87.2337 71.4475 88.9591 70.4506Z" fill="#E0E0E0"/>
<path d="M80.1553 45.5228C76.7551 43.5608 73.4934 43.2767 70.978 44.7305C68.4627 46.1765 67.0781 49.1464 67.0781 53.0766C67.0781 54.5078 67.2704 55.9998 67.6245 57.5073L69.7094 56.2994C69.4939 55.2075 69.3865 54.1226 69.3865 53.0766C69.3865 49.9994 70.3632 47.7455 72.1329 46.7229C73.9019 45.6995 76.341 45.9843 79.0027 47.5229C84.9416 50.9457 89.7723 59.316 89.7723 66.1771C89.7723 67.8924 89.4711 69.3571 88.8952 70.4848C88.4384 71.3798 87.7963 72.0585 87.0258 72.5231C86.9635 72.5604 86.9028 72.5924 86.8413 72.6235C86.3184 73.4695 85.9565 74.4314 85.8568 75.3388C86.6802 75.2081 87.4663 74.9334 88.18 74.5232C89.6828 73.6594 90.7739 72.2515 91.4183 70.4233C91.8526 69.1913 92.0798 67.7617 92.0798 66.1771C92.0791 58.5852 86.7324 49.3153 80.1553 45.5228Z" fill="#455A64"/>
<path d="M104.131 61.6874C105.856 60.6896 107.254 61.4975 107.254 63.4906C107.254 65.4845 105.856 67.908 104.131 68.9042C102.406 69.9004 101.008 69.0933 101.008 67.101C101.008 65.1086 102.406 62.6851 104.131 61.6874Z" fill="#E0E0E0"/>
<path d="M95.3272 36.7601C91.9269 34.7981 88.6652 34.514 86.1499 35.9678C83.6345 37.4138 82.25 40.3837 82.25 44.3139C82.25 45.7452 82.4422 47.2371 82.7963 48.7446L84.8813 47.5367C84.6657 46.444 84.5583 45.3599 84.5583 44.3131C84.5583 41.2359 85.5351 38.982 87.3048 37.9594C89.0738 36.936 91.5129 37.2208 94.1746 38.7595C100.113 42.1823 104.944 50.5525 104.944 57.4137C104.944 59.129 104.643 60.5936 104.067 61.7213C103.61 62.6164 102.968 63.2942 102.198 63.7596C102.135 63.797 102.075 63.8289 102.013 63.86C101.49 64.706 101.128 65.6679 101.029 66.5754C101.852 66.4446 102.638 66.1699 103.352 65.7598C104.855 64.8959 105.946 63.488 106.59 61.6599C107.024 60.4279 107.252 58.9982 107.252 57.4137C107.251 49.8217 101.904 40.5526 95.3272 36.7601Z" fill="#455A64"/>
<path d="M119.287 52.9252C121.012 51.9274 122.41 52.7353 122.41 54.7284C122.41 56.7223 121.012 59.1458 119.287 60.142C117.562 61.1382 116.164 60.3304 116.164 58.3388C116.164 56.3464 117.563 53.9221 119.287 52.9252Z" fill="#E0E0E0"/>
<path d="M110.483 27.9972C107.083 26.0352 103.821 25.7511 101.306 27.2049C98.7908 28.6509 97.4062 31.6208 97.4062 35.5518C97.4062 36.983 97.5985 38.4749 97.9526 39.9824L100.038 38.7746C99.822 37.6819 99.7146 36.5977 99.7146 35.551C99.7146 32.4737 100.691 30.2199 102.461 29.1972C104.23 28.1738 106.669 28.4587 109.331 29.9973C115.27 33.4201 120.1 41.7903 120.1 48.6515C120.1 50.3668 119.799 51.8315 119.223 52.9592C118.766 53.8542 118.124 54.5321 117.354 54.9975C117.292 55.0348 117.231 55.0667 117.169 55.0971C116.646 55.9431 116.285 56.905 116.185 57.8124C117.008 57.6817 117.794 57.407 118.508 56.9968C120.011 56.1329 121.102 54.7251 121.746 52.8969C122.181 51.6649 122.408 50.2353 122.408 48.6507C122.407 41.0595 117.061 31.7896 110.483 27.9972Z" fill="#455A64"/>
<path d="M134.483 44.1617C136.208 43.164 137.606 43.9718 137.606 45.965C137.606 47.9581 136.207 50.3824 134.483 51.3786C132.758 52.3748 131.359 51.5669 131.359 49.5753C131.359 47.583 132.758 45.1595 134.483 44.1617Z" fill="#E0E0E0"/>
<path d="M125.679 19.2345C122.278 17.2725 119.017 16.9884 116.501 18.4422C113.986 19.8882 112.602 22.8581 112.602 26.7891C112.602 28.2195 112.794 29.7122 113.148 31.2197L115.233 30.0119C115.017 28.9192 114.91 27.8351 114.91 26.7891C114.91 23.7118 115.887 21.458 117.656 20.4345C119.425 19.4111 121.864 19.696 124.526 21.2346C130.464 24.6582 135.296 33.0276 135.296 39.8896C135.296 41.6049 134.995 43.0696 134.419 44.1973C133.962 45.0923 133.32 45.7701 132.549 46.2355C132.487 46.2729 132.426 46.3048 132.365 46.3352C131.842 47.1811 131.48 48.1431 131.38 49.0505C132.204 48.9198 132.99 48.645 133.703 48.2349C135.207 47.371 136.297 45.9639 136.942 44.135C137.376 42.903 137.603 41.4733 137.603 39.8888C137.603 32.2961 132.256 23.0269 125.679 19.2345Z" fill="#455A64"/>
<path d="M149.662 35.3988C151.388 34.4011 152.785 35.2089 152.785 37.202C152.785 39.196 151.387 41.6195 149.662 42.6149C147.937 43.611 146.539 42.804 146.539 40.8116C146.539 38.8201 147.938 36.3958 149.662 35.3988Z" fill="#E0E0E0"/>
<path d="M140.858 10.471C137.458 8.50903 134.196 8.22497 131.681 9.67876C129.166 11.1248 127.781 14.0946 127.781 18.0256C127.781 19.4561 127.973 20.9488 128.328 22.4563L130.413 21.2484C130.197 20.1557 130.09 19.0716 130.09 18.0256C130.09 14.9484 131.066 12.6945 132.836 11.6719C134.605 10.6485 137.044 10.9333 139.706 12.472C145.645 15.8955 150.475 24.265 150.475 31.1269C150.475 32.8422 150.174 34.3069 149.598 35.4346C149.141 36.3296 148.499 37.0083 147.729 37.4729C147.667 37.5102 147.606 37.5422 147.544 37.5733C147.021 38.4193 146.66 39.3812 146.56 40.2886C147.383 40.1579 148.169 39.8832 148.883 39.473C150.386 38.6092 151.477 37.2021 152.121 35.3731C152.556 34.1404 152.783 32.7115 152.783 31.1269C152.782 23.5334 147.436 14.2635 140.858 10.471Z" fill="#455A64"/>
<path d="M164.818 26.6361C166.544 25.6384 167.942 26.4462 167.942 28.4394C167.942 30.4333 166.543 32.8568 164.818 33.8522C163.093 34.8483 161.695 34.0413 161.695 32.0489C161.695 30.0574 163.094 27.6338 164.818 26.6361Z" fill="#E0E0E0"/>
<path d="M156.015 1.70883C152.614 -0.253175 149.353 -0.537241 146.837 0.916556C144.322 2.36257 142.938 5.33242 142.938 9.26266C142.938 10.6939 143.13 12.1858 143.484 13.6933L145.569 12.4854C145.353 11.3935 145.246 10.3086 145.246 9.26266C145.246 6.1854 146.223 3.93155 147.992 2.90891C149.761 1.88549 152.2 2.17034 154.862 3.70896C160.801 7.13177 165.632 15.502 165.632 22.3632C165.632 24.0785 165.324 25.54 164.755 26.6709C164.293 27.5635 163.663 28.2554 162.885 28.7091C162.824 28.7473 162.762 28.7784 162.701 28.8095C162.178 29.6555 161.816 30.6174 161.716 31.5249C162.54 31.3941 163.324 31.1171 164.039 30.7093C165.539 29.8399 166.64 28.4399 167.278 26.6094C167.717 25.3782 167.939 23.9477 167.939 22.3632C167.938 14.7704 162.592 5.50131 156.015 1.70883Z" fill="#455A64"/>
<g opacity="0.3">
<path d="M58.77 102.288L164.594 41.1857C166.433 40.1234 167.925 40.9849 167.926 43.1088L167.928 49.8509C167.929 51.9747 166.439 54.5586 164.599 55.6201L58.7677 116.722C56.9279 117.784 55.4367 116.922 55.4375 114.799L55.4383 108.058C55.4383 105.933 56.9302 103.35 58.77 102.288Z" stroke="#E7F4FF" stroke-width="0.592891" stroke-miterlimit="10"/>
<path d="M167.925 46.4792L55.4375 111.428" stroke="#E7F4FF" stroke-width="0.592891" stroke-miterlimit="10"/>
</g>
<g opacity="0.3">
<path d="M58.7685 123.939L164.593 62.8402C166.433 61.7779 167.924 62.6394 167.924 64.7633V194.161C167.924 196.286 166.433 198.869 164.593 199.931L58.7685 261.034C56.9287 262.097 55.4375 261.235 55.4375 259.111V129.708C55.4375 127.584 56.9287 125.001 58.7685 123.939Z" stroke="#E7F4FF" stroke-width="0.592891" stroke-miterlimit="10"/>
<path d="M167.923 68.1284L55.4375 133.078" stroke="#E7F4FF" stroke-width="0.592891" stroke-miterlimit="10"/>
<path d="M167.923 75.344L55.4375 140.294" stroke="#E7F4FF" stroke-width="0.592891" stroke-miterlimit="10"/>
<path d="M167.923 82.5598L55.4375 147.51" stroke="#E7F4FF" stroke-width="0.592891" stroke-miterlimit="10"/>
<path d="M167.923 89.7751L55.4375 154.725" stroke="#E7F4FF" stroke-width="0.592891" stroke-miterlimit="10"/>
<path d="M167.923 96.9902L55.4375 161.941" stroke="#E7F4FF" stroke-width="0.592891" stroke-miterlimit="10"/>
<path d="M167.923 104.206L55.4375 169.156" stroke="#E7F4FF" stroke-width="0.592891" stroke-miterlimit="10"/>
<path d="M167.923 111.422L55.4375 176.372" stroke="#E7F4FF" stroke-width="0.592891" stroke-miterlimit="10"/>
<path d="M167.923 118.638L55.4375 183.588" stroke="#E7F4FF" stroke-width="0.592891" stroke-miterlimit="10"/>
<path d="M167.923 125.853L55.4375 190.803" stroke="#E7F4FF" stroke-width="0.592891" stroke-miterlimit="10"/>
<path d="M167.923 133.068L55.4375 198.019" stroke="#E7F4FF" stroke-width="0.592891" stroke-miterlimit="10"/>
<path d="M167.923 140.284L55.4375 205.234" stroke="#E7F4FF" stroke-width="0.592891" stroke-miterlimit="10"/>
<path d="M167.923 147.5L55.4375 212.45" stroke="#E7F4FF" stroke-width="0.592891" stroke-miterlimit="10"/>
<path d="M167.923 154.716L55.4375 219.666" stroke="#E7F4FF" stroke-width="0.592891" stroke-miterlimit="10"/>
<path d="M167.923 161.931L55.4375 226.881" stroke="#E7F4FF" stroke-width="0.592891" stroke-miterlimit="10"/>
<path d="M167.923 169.147L55.4375 234.097" stroke="#E7F4FF" stroke-width="0.592891" stroke-miterlimit="10"/>
<path d="M167.923 176.363L55.4375 241.313" stroke="#E7F4FF" stroke-width="0.592891" stroke-miterlimit="10"/>
<path d="M167.923 183.578L55.4375 248.528" stroke="#E7F4FF" stroke-width="0.592891" stroke-miterlimit="10"/>
<path d="M167.923 190.794L55.4375 255.744" stroke="#E7F4FF" stroke-width="0.592891" stroke-miterlimit="10"/>
</g>
<path d="M60.1536 132.318C60.0866 128.673 60.0866 125.773 60.1403 125.226C60.2072 124.653 60.3147 124.325 60.4477 124.177C60.4477 124.159 60.475 124.144 60.5014 124.128C60.6353 124.05 60.7816 124.234 61.0882 124.964C61.2758 125.336 61.5832 125.977 61.756 126.393C61.9692 126.75 62.4097 127.723 62.7576 128.484C63.3981 129.894 63.8923 130.889 64.1725 131.387L64.3328 131.633V130.44C64.3328 129.781 64.3064 128.267 64.2659 127.098C64.2394 125.921 64.2122 124.353 64.2122 123.606C64.2122 122.093 64.2254 122.014 64.4659 121.875C64.6395 121.775 64.7461 121.802 64.7858 121.992C64.813 122.084 64.8527 122.986 64.8799 124.003C64.9064 125.02 64.9196 126.596 64.9461 127.452C65.013 130.047 65.0263 133.029 64.9461 133.289C64.8527 133.716 64.613 133.944 64.4254 133.785C64.1997 133.541 63.732 132.637 62.8238 130.688C62.5568 130.094 62.184 129.295 61.97 128.921L61.2493 127.45C60.9559 126.855 60.875 126.705 60.8493 126.792C60.8096 126.957 60.8369 131.729 60.9022 133.63C60.9559 135.183 60.9287 135.697 60.7824 135.942C60.6625 136.153 60.5295 136.231 60.4353 136.142C60.2602 135.976 60.2073 135.313 60.1536 132.318Z" fill="#455A64"/>
<path d="M66.4067 130.794C66.3265 130.52 66.3125 130.351 66.3125 129.621C66.3125 128.641 66.3662 128.22 66.5927 127.59C66.753 127.125 67.153 126.377 67.5274 125.912C67.9142 125.44 68.2613 125.187 68.8216 125.218C69.3827 125.268 69.796 125.705 69.9166 126.277C70.0233 126.697 70.0365 127.933 69.9696 128.434C69.7828 129.628 69.2753 130.686 68.5414 131.341C68.234 131.625 67.9679 131.779 67.7009 131.827C67.0729 131.958 66.6059 131.586 66.4067 130.794ZM69.396 127.592C69.396 127.181 69.3835 127.066 69.2761 126.824C69.1298 126.446 68.8893 126.158 68.6893 126.113C68.5827 126.086 68.4621 126.137 68.2083 126.284C67.7819 126.531 67.6075 126.737 67.3406 127.372C66.9538 128.272 66.8472 128.903 66.9662 129.67C67.0604 130.239 67.1803 130.579 67.3538 130.8C67.648 131.128 67.9679 131.05 68.5414 130.523C69.0224 130.084 69.396 128.801 69.396 127.592Z" fill="#455A64"/>
<path d="M71.6984 125.868L71.6711 123.658L71.5645 123.756C71.2306 124.056 70.9777 124.202 70.8041 124.213C70.5637 124.227 70.4438 124.119 70.4967 123.946C70.6033 123.634 70.7372 123.487 71.1777 123.18C71.4042 123.031 71.6182 122.872 71.6447 122.821C71.6711 122.788 71.6844 122.478 71.6844 122.015C71.6844 120.805 71.7645 118.818 71.8182 118.575C71.8587 118.426 71.8984 118.332 71.9653 118.294C72.019 118.263 72.0719 118.286 72.1381 118.354C72.2852 118.483 72.3256 118.94 72.3793 120.813L72.433 122.206C72.4455 122.233 72.6066 122.177 72.8463 122.056C73.2876 121.837 73.4199 121.849 73.4868 122.113C73.5141 122.239 73.5141 122.293 73.4339 122.428C73.3537 122.563 73.2728 122.628 72.9265 122.828C72.6992 122.977 72.4992 123.111 72.472 123.143C72.3529 123.337 72.3116 126.705 72.4183 127.712C72.4323 127.9 72.4587 128.294 72.486 128.563C72.4984 129.018 72.4984 129.072 72.4183 129.242C72.3256 129.439 72.0852 129.595 71.9653 129.539C71.7793 129.434 71.7256 128.735 71.6984 125.868Z" fill="#455A64"/>
<path d="M74.0841 125.983C73.9775 124.425 74.4981 122.595 75.3783 121.409C75.713 120.967 76.2733 120.449 76.7271 120.49C77.1279 120.542 77.408 120.967 77.3279 121.441C77.2205 122.198 76.4469 123.569 75.485 124.712C74.9106 125.399 74.8188 125.577 74.8444 125.828C74.9106 126.253 75.1643 126.586 75.4048 126.555C75.9114 126.493 76.9131 125.559 77.3668 124.764C77.4874 124.534 77.5271 124.493 77.6602 124.434C77.8205 124.376 77.8867 124.427 77.8867 124.552C77.8867 124.694 77.447 125.5 77.1263 125.934C76.4321 126.905 75.9387 127.314 75.4048 127.408C74.565 127.54 74.1782 127.104 74.0841 125.983ZM76.4204 122.375C76.5932 122.025 76.6064 121.964 76.6064 121.733C76.6064 121.537 76.5932 121.474 76.513 121.449C76.4593 121.427 76.3924 121.447 76.3122 121.493C76.1519 121.586 75.9387 121.781 75.7651 122.023C75.2709 122.664 74.7238 124.191 74.8304 124.574C74.8569 124.683 74.8437 124.691 75.0569 124.46C75.4188 124.074 76.0998 123.041 76.4204 122.375Z" fill="#455A64"/>
<path d="M79.1809 124.874C78.847 124.799 78.7536 124.675 78.7668 124.383C78.7808 124.179 78.7941 124.154 78.9271 124.06C79.0338 123.98 79.1949 123.959 79.461 123.964C79.928 123.997 80.2082 123.924 80.6362 123.66C81.0635 123.377 81.1296 123.25 81.1561 122.736C81.1833 122.418 81.1701 122.372 81.037 122.183C80.8635 121.927 80.5833 121.662 80.142 121.365C79.742 121.097 79.6089 120.943 79.5015 120.579C79.2883 119.829 79.3817 119.224 79.7957 118.646C79.8751 118.529 79.9817 118.432 80.1156 118.355C80.609 118.07 81.3833 118.104 81.6231 118.534C81.7164 118.712 81.7164 118.729 81.6503 118.911C81.5569 119.196 81.3569 119.259 80.9701 119.073C80.823 119.016 80.2089 118.871 80.1693 119.536C80.142 120.103 80.3163 120.323 80.9701 120.657C81.7437 121.046 82.1313 122.103 81.8775 123.051C81.6643 123.796 81.0495 124.454 80.3163 124.753C79.9288 124.904 79.475 124.952 79.1809 124.874Z" fill="#455A64"/>
<path d="M83.0703 118.396C83.0703 118.146 83.1909 117.863 83.2976 117.624C83.4174 117.342 83.6711 117.124 83.8042 117.278C83.9513 117.442 84.005 117.786 83.8844 118.122C83.7653 118.404 83.5248 118.508 83.3513 118.59C83.2174 118.649 83.0968 118.541 83.0703 118.396ZM83.0703 122.649C83.0703 122.401 83.1909 122.117 83.2976 121.878C83.4174 121.594 83.6711 121.378 83.8042 121.532C83.9513 121.696 84.005 122.039 83.8844 122.376C83.7653 122.658 83.5248 122.761 83.3513 122.843C83.2174 122.902 83.0968 122.794 83.0703 122.649Z" fill="#455A64"/>
<path d="M116.935 124.212C116.903 124.046 116.653 124.094 116.557 124.138C115.748 124.517 115.153 125.259 114.566 125.921C114.341 126.185 114.114 126.449 113.886 126.711C113.296 127.345 112.937 127.397 112.811 126.868C112.78 126.868 112.599 126.696 112.529 126.694C110.928 126.669 110.309 128.096 109.225 129.006C108.845 127.657 107.502 128.934 106.896 129.787C105.654 131.535 103.075 132.047 101.638 133.703C101.642 133.176 101.522 132.661 101 132.652C100.994 132.165 100.878 131.685 100.627 131.403C100.57 131.34 100.47 131.323 100.39 131.34C99.1458 131.608 98.4204 133.285 97.9978 134.431C98.0842 132.927 98.1566 131.421 98.1698 129.916C98.1722 129.631 97.6546 129.734 97.6453 129.986C97.5573 132.417 96.6336 134.174 95.2272 136.088C94.8708 136.573 94.4669 137.065 94.0318 137.474C93.4014 138.065 92.8496 138.138 92.09 138.469C91.6869 138.645 91.7305 138.557 91.3258 138.855C91.009 139.089 90.8728 139.237 90.6464 139.343C90.5203 139.402 90.3055 139.311 90.1304 139.407C89.5747 139.711 89.2315 140.283 88.8719 140.799C88.4026 140.424 88.1186 140.472 87.5582 140.897C87.1527 141.204 86.8088 141.82 86.3947 142.063C85.3861 142.659 85.9519 141.961 85.4351 141.41C84.7596 140.693 84.021 141.359 83.4435 141.848C82.6894 142.487 82.1532 143.193 81.8162 144.009C81.6707 143.334 81.3492 142.768 80.6441 142.881C79.5974 143.05 78.9421 144.979 78.535 145.715C77.956 146.761 77.5638 147.566 76.5302 148.277C76.0524 148.605 75.534 148.882 74.99 148.98C74.8227 149.009 74.7379 148.862 74.5488 148.935C74.2126 149.065 74.0569 149.258 73.7542 149.456C73.2102 149.811 73.9604 150.08 72.9027 149.771C72.2171 149.57 72.2941 149.315 71.9805 148.784C71.9182 148.677 71.7416 148.696 71.6505 148.739C71.1439 148.971 70.8676 149.415 70.536 149.849C70.0971 150.423 69.0713 152.378 68.3048 152.433C67.016 152.523 66.991 149.257 66.9677 148.494C66.9202 146.936 67.1101 145.366 67.1693 143.81C67.1755 143.638 66.8043 143.638 66.7747 143.793C66.3856 145.88 65.9046 148.031 65.2119 150.042C64.545 151.982 63.5091 153.791 63.4141 155.877C63.4087 155.999 63.6702 156.053 63.6788 155.934C63.8336 153.768 64.9699 151.836 65.6641 149.81C66.0221 148.767 66.3171 147.681 66.577 146.588C66.5077 147.696 66.4789 148.805 66.6144 149.907C66.7078 150.67 66.7023 152.747 67.7327 152.971C68.5094 153.14 69.4029 151.991 69.792 151.522C70.0753 151.182 70.7563 149.827 71.196 149.658C72.0754 149.323 71.8902 150.356 72.3743 150.715C72.9027 151.107 73.1494 150.893 73.6071 150.554C74.2102 150.107 73.962 149.675 75.0344 149.455C75.292 149.402 75.5675 149.588 75.8726 149.48C76.7108 149.184 77.6673 148.169 78.1801 147.466C78.7156 146.734 79.0814 145.681 79.5133 144.86C79.6378 144.622 80.0309 143.639 80.364 143.577C80.7079 143.951 81.0512 144.323 81.3952 144.697C81.4115 145.069 81.4138 145.441 81.4029 145.813C81.3998 146.103 81.9119 145.989 81.9298 145.739C82.0341 144.316 82.782 142.085 84.4592 142.036C85.439 142.007 85.0795 142.483 85.6927 143.061C85.8102 143.172 86.004 143.14 86.1138 143.033C86.6041 142.553 87.8384 140.516 88.6633 141.301C88.8011 141.432 89.0151 141.367 89.1217 141.23C89.3249 140.968 90.195 139.457 90.539 139.915C90.6339 140.041 90.8588 139.986 90.9538 139.895C91.4301 139.438 91.8698 139.123 92.4255 138.854C92.613 138.763 92.8418 138.749 93.0395 138.67C93.9703 138.299 94.6988 137.449 95.3144 136.691C96.3028 135.476 97.0585 134.31 97.5472 133.017C97.4881 134.261 97.4103 135.505 97.3254 136.749C96.9262 138.711 96.9316 140.632 96.948 142.744C96.9503 143.046 97.4811 142.905 97.4928 142.643C97.5823 140.645 97.7278 138.645 97.8616 136.644C97.9332 136.318 98.0142 135.992 98.1154 135.664C98.4142 134.691 98.6959 133.294 99.496 132.613C100.108 132.092 100.448 132.381 100.477 132.879C100.245 133.153 100.18 133.604 100.244 133.91C100.29 134.129 100.666 134.006 100.739 133.874C100.771 133.818 100.796 133.75 100.823 133.684C101.085 133.564 101.179 133.636 101.088 133.917C101.084 134.158 101.067 134.397 101.037 134.636C101.01 134.94 101.482 134.769 101.559 134.611C102.239 133.213 104.49 131.933 105.872 131.295C106.219 131.136 106.492 131.115 106.756 130.866C106.834 130.792 108.613 128.067 108.778 129.442C108.799 129.624 109.027 129.659 109.164 129.568C109.95 129.041 110.294 128.049 111.164 127.6C113.256 126.521 111.877 127.684 113.042 127.876C113.772 127.995 116.481 124.656 116.457 124.533C116.505 124.783 117.008 124.626 116.96 124.369C116.954 124.315 116.944 124.264 116.935 124.212Z" fill="#455A64"/>
<path d="M144.024 107.334C143.646 108.172 142.659 109.187 142.016 109.872C141.662 110.812 140.809 111.081 139.454 110.678C139.372 110.561 139.274 110.46 139.163 110.375C139.034 110.393 138.819 110.269 138.656 110.276C137.642 110.321 137.103 113.013 136.262 111.865C136.176 111.749 135.98 111.805 135.884 111.862C135.287 112.211 134.781 112.76 134.428 113.356C134.284 113.597 134.207 114.045 134.046 114.203C134 114.248 133.968 114.28 133.93 114.319C133.884 114.319 133.805 114.337 133.679 114.388C133.617 114.413 133.217 114.266 133.07 114.3C132.78 114.368 132.59 114.673 132.429 114.893C132.079 115.371 131.97 115.989 131.687 116.501C131.604 116.652 131.571 116.728 131.561 116.758C131.582 116.691 131.648 116.389 131.343 116.179C130.595 115.665 129.86 116.878 129.38 117.73C129.213 116.862 128.934 115.957 127.91 116.372C126.684 116.87 126.261 117.952 125.878 119.047C125.843 117.467 125.675 115.214 124.377 115.452C123.523 115.608 122.648 117.203 122.263 117.835C121.724 118.724 121.512 120.045 120.799 120.798C120.655 120.951 121.021 121.057 121.131 120.95C122.088 120.033 122.517 118.226 123.314 117.143C123.643 116.695 124.161 115.742 124.932 116.414C125.153 116.606 125.089 117.485 125.13 117.819C125.242 118.722 125.245 119.618 125.335 120.519C125.366 120.818 125.805 120.658 125.889 120.485C126.164 119.923 126.277 119.346 126.528 118.771C126.662 118.197 126.963 117.72 127.429 117.343C128.447 117.326 128.945 117.744 128.921 118.599C128.977 118.864 129.332 118.761 129.451 118.61C129.784 118.192 130.821 116.087 131.157 117.309C131.199 117.463 131.331 117.488 131.475 117.463C132.268 117.328 132.853 114.118 133.574 115.115C133.655 115.227 133.863 115.181 133.954 115.117C134.73 114.563 135.15 111.721 136.293 113.022C136.347 113.083 136.457 113.105 136.533 113.083C137.187 112.889 137.315 112.331 137.738 111.842C138.057 111.472 137.9 111.393 138.501 111.2C139.619 110.84 138.627 111.187 139.319 111.3C139.784 111.377 139.916 111.568 140.435 111.529C141.04 111.484 141.684 111.139 142.083 110.689C142.585 110.122 142.937 109.412 143.431 108.822C143.839 108.333 144.214 107.972 144.435 107.373C144.51 107.171 144.098 107.169 144.024 107.334Z" fill="#455A64"/>
<path d="M161.053 99.6138C160.533 99.6379 160.432 99.7072 159.978 99.9585C159.059 100.468 158.195 101.175 157.29 101.719C156.827 101.998 156.435 102.424 155.992 102.697C154.854 103.396 154.535 102.538 153.796 101.733C153.73 101.661 153.607 101.674 153.524 101.695C152.565 101.935 152.598 102.682 151.86 103.149C151.373 103.458 151.395 103.518 151 102.958C150.762 102.62 150.752 102.254 150.453 101.938C150.351 101.831 150.179 101.873 150.07 101.939C149.196 102.472 148.691 103.404 148 104.137C147.219 104.965 146.418 106.525 145.346 106.904C145.149 106.974 145.322 107.165 145.474 107.133C146.295 106.961 146.627 106.365 147.154 105.732C147.654 105.128 148.196 104.578 148.728 104.002C148.997 103.711 149.496 102.816 149.746 102.741C150.819 102.419 150.438 104.946 151.841 104.009C152.225 103.753 152.282 103.177 152.638 102.916C153.685 102.149 153.607 102.71 154.186 103.107C154.707 103.463 154.872 103.956 155.559 103.794C155.741 103.751 155.854 103.551 156.013 103.469C156.133 103.344 156.238 103.206 156.329 103.056C156.94 102.479 157.631 102.05 158.4 101.769C159.214 101.213 160.009 100.261 160.993 100.048C161.225 99.9975 161.399 99.5974 161.053 99.6138Z" fill="#455A64"/>
<path d="M97.0055 151.111C96.6483 152.485 94.568 154.306 93.452 152.568C92.9593 151.8 93.2379 150.119 93.2379 149.234C93.2379 147.859 93.2379 146.484 93.2372 145.109C93.2527 144.088 93.2411 143.061 93.2364 142.032C93.2348 141.653 92.6309 141.8 92.6309 142.113V144.097C92.6029 147.385 92.3585 150.48 90.8121 153.566C90.465 154.26 90.0696 155.306 89.5459 155.875C88.5466 156.96 87.6329 156.833 87.0305 156.341C87.1574 156.089 87.2788 155.842 87.4056 155.626C87.6438 155.221 88.3427 154.485 88.124 153.926C87.8197 153.148 86.4032 153.197 86.0071 153.865C85.5705 154.601 85.7892 155.593 86.3207 156.338C85.832 157.018 85.2195 157.721 84.4677 156.997C84.3416 156.875 84.1159 156.948 84.0171 157.065C83.6279 157.526 83.4458 158.113 83.0855 158.571C82.6038 159.185 82.5633 160.094 81.5726 160.129C81.3788 160.136 81.1749 160.094 81.0262 159.969C80.5421 159.564 81.1624 158.644 81.2566 158.16C81.3865 157.494 81.413 156.715 81.0223 156.126C80.9414 156.004 80.7951 155.989 80.6651 156.048C79.3841 156.628 78.4657 158.246 78.8946 159.659C78.9809 159.943 79.3592 160.336 79.2105 160.551C79.0276 160.817 78.4673 160.79 78.2089 160.708C77.812 160.583 77.4929 160.287 77.2221 159.971C76.5387 159.171 75.3706 162.284 75.1433 162.714C74.6079 163.723 74.2312 164.668 73.2358 165.296C73.0552 165.41 72.8443 165.502 72.6342 165.465C72.1633 165.384 72.3097 164.874 72.2248 164.551C72.2661 164.707 72.1727 163.737 72.1844 163.83C72.168 163.701 71.9664 163.701 71.8816 163.723C71.3135 163.873 71.2855 164.228 70.9368 164.745C70.7703 164.993 70.515 165.447 70.3259 165.677C70.1749 166.073 69.8799 166.359 69.4402 166.534C69.297 166.534 69.1546 166.535 69.0122 166.538C68.4938 166.909 68.0985 167.482 67.5661 167.833C66.7038 168.402 65.9551 168.775 65.8555 167.402C65.8221 166.937 65.8368 166.529 65.7341 166.074C65.6866 165.864 65.3434 165.964 65.2601 166.085C64.7045 166.893 64.2842 167.619 63.9169 168.525C63.6943 169.075 62.1837 172.712 61.6109 170.241C61.4334 169.477 62.4047 168.043 62.7269 167.349C63.3441 166.02 63.4055 165.657 65.3808 165.456C65.622 165.432 66.3388 165.518 66.482 165.512C66.6634 165.504 66.6276 165.296 66.461 165.291C65.1792 165.253 64.3581 164.599 63.2522 165.596C62.509 166.266 62.2436 167.359 61.8272 168.23C61.442 169.036 60.9789 169.816 61.0754 170.751C61.1649 171.618 61.6739 172.222 62.5728 171.762C63.1044 171.49 63.4491 170.694 63.7005 170.204C64.2764 169.082 64.6936 167.953 65.3138 166.876C65.373 167.707 65.2874 168.496 65.9645 169.15C66.0369 169.22 66.1536 169.248 66.2509 169.208C67.0463 168.874 67.5942 168.313 68.2596 167.784C68.8254 167.334 69.648 167.214 70.1617 166.741C70.687 166.257 70.9687 165.476 71.3664 164.896C71.368 164.894 71.6497 164.543 71.7672 164.341C71.733 164.584 71.7166 165.081 71.7439 165.198C71.996 166.27 72.821 166.194 73.607 165.624C74.2981 165.123 74.7464 164.348 75.1768 163.636C75.7371 162.709 76.1193 161.301 76.8524 160.448C77.3481 161.625 78.7514 161.821 79.7927 160.952C79.83 160.921 79.8658 160.873 79.9032 160.838C80.753 161.192 81.887 160.872 82.6178 160.174C83.0069 159.803 83.2388 159.372 83.491 158.901C83.6287 158.601 83.7735 158.304 83.9252 158.01C84.1572 157.583 84.3969 157.552 84.6444 157.918C85.2607 157.925 85.3207 158.149 85.9254 157.786C86.281 157.572 86.5425 157.22 86.7659 156.837C87.1901 157.212 87.7068 157.441 88.2345 157.382C90.1654 157.167 91.2985 153.903 91.9289 152.476C92.2005 151.86 92.4021 151.236 92.5741 150.607C92.5328 151.572 92.5648 152.621 93.157 153.25C94.8964 155.093 97.1386 152.937 97.6133 151.135C97.7215 150.723 97.0919 150.781 97.0055 151.111ZM79.4214 158.36C79.5818 157.448 80.904 156.081 80.6986 157.757C80.6558 158.109 80.5554 158.455 80.4526 158.792C80.3919 159.039 80.3055 159.276 80.1919 159.505C80.1771 159.56 80.1538 159.602 80.1359 159.652C79.437 159.717 79.2191 159.509 79.4214 158.36ZM86.239 154.519C86.2616 154.29 86.3425 154.057 86.548 153.973C86.6336 153.938 86.7293 153.935 86.8219 153.941C86.948 153.95 87.0772 153.976 87.1784 154.052C87.3084 154.148 87.3737 154.314 87.38 154.477C87.3901 154.741 87.3045 155.015 87.1192 155.203C86.9823 155.399 86.8468 155.595 86.7122 155.792C86.6857 155.826 86.6585 155.864 86.6313 155.902C86.6282 155.907 86.3589 155.316 86.3386 155.25C86.2795 155.054 86.2305 154.848 86.2328 154.641C86.2328 154.601 86.2351 154.56 86.239 154.519Z" fill="#455A64"/>
<path d="M129.991 130.232C129.924 130.242 129.858 130.253 129.791 130.263C129.692 130.278 129.618 130.355 129.592 130.447C129.388 131.158 128.291 132.732 127.708 133.306C125.692 135.29 125.771 132.363 125.662 131.334C125.64 131.127 125.383 131.137 125.248 131.222C124.295 131.823 123.834 132.642 123.342 133.639C123.228 133.869 122.553 135.397 122.424 135.348C122.621 135.423 122.32 134.006 122.2 133.8C122.153 133.718 121.999 133.709 121.922 133.739C120.203 134.394 118.578 136.358 118.144 138.234C117.921 138.035 117.626 138.006 117.194 138.196C116.704 138.411 116.341 139.586 115.978 139.641C116.006 139.637 115.555 139.092 115.376 139.044C114.434 138.79 113.294 140.204 112.742 140.748C111.284 142.184 112.05 140.067 110.743 139.933C110.651 139.923 110.507 139.956 110.455 140.045C109.825 141.106 109.237 142.212 108.467 143.181C107.778 144.047 107.219 144.378 106.938 143.011C106.743 142.065 107.542 141.045 107.665 140.099C107.694 139.88 107.326 139.892 107.235 140.021C105.587 142.338 104.468 144.845 102.449 146.914C102.301 147.065 102.667 147.156 102.783 147.042C104.497 145.364 105.541 143.386 106.789 141.433C106.383 142.665 105.948 144.252 106.921 144.644C107.836 145.012 108.827 143.42 109.21 142.882C109.616 142.314 109.969 141.316 110.491 140.858C110.996 140.416 110.668 140.422 111.18 141.025C111.372 141.252 111.406 141.629 111.674 141.804C112.016 142.028 112.267 142.089 112.62 141.879C113.067 141.613 114.94 138.141 115.547 140.086C115.583 140.204 115.748 140.231 115.849 140.194C116.293 140.029 117.627 137.867 118.04 139.056C118.117 139.276 118.531 139.175 118.541 138.958C118.61 137.418 119.457 136.417 120.457 135.356C120.874 134.914 121.297 134.04 121.947 134.801C121.899 134.746 122.055 135.817 122.042 135.771C122.088 135.928 122.299 135.902 122.408 135.852C123.798 135.227 123.989 132.972 125.151 131.85C125.204 133.048 125.141 134.754 126.802 134.469C127.478 134.353 127.912 133.823 128.298 133.293C128.672 132.779 129.019 132.26 129.402 131.751C129.456 131.68 130.075 130.553 130.112 130.542C130.367 130.468 130.216 130.196 129.991 130.232Z" fill="#455A64"/>
<path d="M156.106 116.142C155.605 116.115 155.332 116.218 154.939 116.53C154.622 116.783 154.456 117.17 154.162 117.434C152.629 118.807 151.844 117.3 151.659 115.917C151.62 115.623 151.225 115.772 151.122 115.931C150.487 116.908 150.749 117.984 149.955 119.018C149.33 119.832 147.039 122.635 146.609 120.254C146.565 120.007 146.238 120.074 146.111 120.212C145.51 120.865 145.146 121.669 144.576 122.352C144.243 122.75 143.288 123.855 142.952 123.837C142.06 123.788 142.049 122.424 141.995 121.869C141.971 121.624 141.644 121.69 141.52 121.807C141.225 122.085 138.72 127.322 138.026 126.789C137.84 126.647 137.423 126.912 137.654 127.093C138.972 128.125 140.587 124.43 141.467 122.764C141.471 123.669 141.535 124.593 142.749 124.364C144.397 124.053 145.228 122.153 146.176 120.882C146.546 121.9 147.402 122.199 148.434 121.451C149.264 120.85 150.172 119.645 150.722 118.79C151.087 118.223 151.14 117.583 151.273 116.981C151.502 117.832 151.956 118.594 153.008 118.628C154.443 118.675 154.675 116.635 156.027 116.551C156.269 116.535 156.423 116.159 156.106 116.142Z" fill="#455A64"/>
<path d="M84.7038 170.749C85.1996 170.154 85.5552 169.677 86.3732 169.673C86.4518 169.673 86.5335 169.677 86.6028 169.715C86.6588 169.746 86.7008 169.796 86.7421 169.845C87.1219 170.306 87.4597 170.715 88.1017 170.761C88.8598 170.817 90.2451 169.563 91.2194 168.248C92.0039 168.547 93.3605 167.477 93.9636 166.916C94.2804 166.621 93.822 166.345 93.5449 166.603C93.1877 167.282 92.5791 167.7 91.7969 167.721C91.751 167.722 91.6903 167.709 91.6872 167.663C91.7533 167.135 92.8958 165.785 91.9946 165.408C91.1603 165.059 90.5945 166.549 90.6373 167.136C90.6607 167.455 90.726 167.693 90.8194 167.873C90.5976 168.234 90.3672 168.592 90.1096 168.929C89.8622 169.252 89.5104 169.422 89.2248 169.716C89.0675 169.878 88.8924 170.033 88.6776 170.101C88.4294 170.179 87.8854 170.048 87.6745 169.885C87.1522 169.482 88.0659 168.903 88.3321 168.581C88.6994 168.136 89.0317 167.652 89.2769 167.129C89.6302 166.375 89.7921 165.317 88.666 165.285C87.1273 165.241 86.2876 167.486 86.5794 169.115C86.2736 169.166 85.9693 169.201 85.6494 169.363C85.1163 169.632 84.6922 170.185 84.3186 170.638C83.6843 171.407 83.3777 171.842 83.4236 170.528C83.4321 170.277 83.0321 170.331 82.9535 170.502C82.3745 171.747 81.8375 173.299 80.923 174.344C80.3922 174.95 79.579 175.631 78.9665 175.338C79.5813 174.415 80.0483 173.398 80.3253 172.264C80.5098 171.512 81.1082 169.045 79.628 168.929C78.4349 168.836 78.031 171.321 77.9018 172.013C77.7127 173.029 77.6131 174.437 78.1516 175.374C78.1874 175.436 78.2248 175.488 78.2614 175.543C77.9936 175.924 77.6987 176.284 77.3679 176.619C76.8153 177.177 76.0526 178.007 75.1958 178.001C75.0316 177.999 74.8541 177.957 74.7537 177.827C74.4004 177.373 75.2643 176.503 75.4472 176.089C75.7359 175.435 75.8417 174.724 75.7382 174.014C75.7219 173.901 75.6479 173.857 75.5413 173.842C75.4682 173.831 75.3942 173.821 75.3211 173.81C75.2067 173.794 75.0868 173.867 75.0214 173.954C74.4953 174.645 73.826 176.333 73.9856 177.494C73.8011 177.699 73.6112 177.901 73.4206 178.115C72.9287 178.667 71.9886 180.306 71.2671 178.937C71.2336 178.874 71.1161 178.851 71.0539 178.863C70.5752 178.956 70.5223 179.132 70.2149 179.55C69.9254 179.943 69.5674 180.96 68.7938 180.266C68.7767 180.251 68.7673 179.277 68.7377 179.139C68.6926 178.929 68.3735 179.029 68.2809 179.133C67.5439 179.956 67.2038 181.272 66.4738 182.123C66.5641 181.521 66.8185 180.888 66.9921 180.358C67.087 180.068 66.5788 180.085 66.4956 180.314C65.8839 182 65.2332 183.854 63.9421 185.127C63.493 185.808 62.8331 186.024 61.9645 185.776C61.4789 184.892 61.5419 184.058 62.1521 183.277C62.4758 182.51 62.9895 181.873 63.6938 181.366C64.3974 181.04 64.7017 181.111 64.6083 181.58C64.6028 181.772 64.9904 181.742 65.0099 181.557C65.1149 180.589 64.2106 180.699 63.5008 181.022C62.3171 181.561 60.889 183.8 60.9722 185.104C61.0454 186.244 62.2634 186.568 63.2175 186.221C64.5359 185.741 65.4114 184.315 66.0481 182.856C66.1469 182.887 66.28 182.856 66.3602 182.8C67.3081 182.137 67.663 180.866 68.2856 179.862C68.2809 180.601 68.1844 181.359 69.2273 181.164C69.9339 181.031 69.9775 180.49 70.4095 180.028C71.1076 179.282 70.6398 179.62 71.3169 180.026C72.2563 180.59 72.8345 179.459 73.3879 178.837C73.6354 178.559 73.8875 178.281 74.1334 177.999C74.1755 178.088 74.2089 178.184 74.2689 178.257C75.1351 179.312 76.2558 178.235 76.9905 177.584C77.5773 177.064 78.1034 176.505 78.5633 175.904C80.0428 177.255 82.0188 173.586 82.9481 171.604C83.0127 171.92 83.1901 172.137 83.6431 172.029C84.0548 171.93 84.4742 171.024 84.7038 170.749ZM74.8744 176.233C74.8245 176.346 74.7732 176.459 74.7171 176.569C74.5864 176.823 74.5148 176.907 74.4891 176.573C74.4518 176.089 74.6253 175.514 74.7825 175.062C74.8471 174.877 74.9288 174.686 75.086 174.568C75.1499 174.52 75.2604 174.496 75.2954 174.568C75.3047 174.587 75.3055 174.61 75.3063 174.633C75.311 174.789 75.3164 174.946 75.2954 175.101C75.258 175.375 75.1429 175.63 75.0292 175.882C74.9763 175.998 74.9265 176.116 74.8744 176.233ZM78.5112 174.851C78.3104 174.454 78.3174 173.924 78.2995 173.481C78.2505 172.292 78.4933 171.204 78.8949 170.085C78.9205 170.014 78.947 169.942 78.9937 169.882C79.1151 169.725 79.354 169.689 79.5354 169.771C79.7167 169.852 79.842 170.028 79.9051 170.217C79.9673 170.405 79.9743 170.607 79.9735 170.806C79.9712 171.471 79.9292 172.182 79.705 172.812C79.5019 173.383 79.2023 173.913 78.9229 174.449C78.8233 174.64 78.7174 174.828 78.6069 175.011C78.5742 174.962 78.5415 174.91 78.5112 174.851ZM87.2441 168.862C87.2129 168.84 87.1849 168.803 87.1608 168.75C87.132 168.686 87.1359 168.613 87.1406 168.543C87.1787 167.963 87.1639 167.416 87.3655 166.864C87.5585 166.336 87.9227 165.789 88.5523 165.817C88.6403 165.821 88.729 165.841 88.8022 165.89C89.3983 166.293 88.8247 167.209 88.543 167.624C88.3484 167.911 88.1297 168.183 87.8908 168.434C87.7725 168.559 87.4472 169.01 87.2441 168.862Z" fill="#455A64"/>
<path d="M96.2131 166.035C95.8987 166.035 95.7244 166.521 96.1174 166.521C96.4318 166.521 96.6061 166.035 96.2131 166.035Z" fill="black"/>
<path d="M266.031 79.7089C262.353 85.9264 258.815 91.3276 256.331 93.9168C251.614 96.1108 240.532 99.4838 236.195 100.048C235.426 100.148 234.654 99.9515 234.019 99.5351C232.314 98.4175 230.996 98.2362 229.198 97.6144C227.791 97.1272 227.195 96.4555 226.93 96.7108C226.591 97.0392 226.22 97.9732 227.077 98.9405C227.508 99.4269 228.294 99.9577 229.305 100.607C229.305 100.607 226.204 101.434 223.434 100.707C219.68 99.7219 217.908 101.527 220.447 105.602C221.356 107.062 224.935 109.399 232.188 108.768C234.278 108.586 237.293 108.411 239.894 107.856C246.851 106.371 254.584 104.933 259.338 103.513C260.539 103.155 262.68 101.766 263.957 100.313C271.954 91.1968 274.603 84.7014 278.109 78.7983L277.806 69.1525C272.139 68.9774 269.108 74.5062 266.031 79.7089Z" fill="#B16668"/>
<path d="M278.782 68.9775C278.782 68.9775 273.833 67.9245 270.112 72.6844C266.219 77.6652 259.336 89.6279 259.336 89.6279C259.336 89.6279 261.594 95.6268 267.67 96.6129L277.43 83.4291C277.431 83.4291 282.053 74.3024 278.782 68.9775Z" fill="#455A64"/>
<path d="M299.887 203.429H293.523V214.774H299.887V203.429Z" fill="#B16668"/>
<path d="M277.827 202.823L271.468 203.051L271.148 191.045L277.827 190.817V202.823Z" fill="#B16668"/>
<path d="M300.785 105.201C300.785 111.529 299.854 162.46 299.854 162.46C300.002 164.281 301.641 167.638 301.286 174.633C300.805 184.134 300.162 209.101 300.162 209.101C300.162 209.101 297.073 210.981 293.077 209.247C293.077 209.247 287.059 174.665 285.918 165.249C284.923 157.032 283.235 129.366 283.235 129.366L279.785 161.535C279.785 161.535 280.958 166.436 280.574 172.067C280.276 176.423 278.23 199.104 278.23 199.104C278.23 199.104 275.235 201.22 270.883 199.689C270.883 199.689 267.264 165.53 267.19 161.534C267.106 156.978 269.306 105.132 269.306 105.132L300.785 105.201Z" fill="#37474F"/>
<path d="M293.521 211.503V210.555C292.912 210.831 291.497 216.453 288.972 218.851C286.965 220.758 284.227 222.961 283.531 225.086C282.806 227.297 287.343 228.517 289.219 228.172C291.397 227.77 295.174 226.172 296.122 224.691C297.07 223.21 297.514 221.024 298.284 219.939C299.055 218.853 300.83 217.641 301.247 216.384C301.476 215.694 301.204 214.183 300.883 212.906C300.588 211.733 300.268 210.445 299.884 210.555C299.884 210.698 299.884 211.277 299.884 211.277C299.422 211.81 298.144 212.34 296.703 212.397C295.771 212.435 293.513 212.242 293.521 211.503Z" fill="#263238"/>
<path d="M271.396 201.007C271.065 201.019 270.797 201.504 270.067 202.326C269.186 203.319 267.746 204.39 266.324 205.131C263.942 206.373 259.309 208.285 257.213 209.268C255.903 209.882 255.964 211.531 257.318 212.468C258.672 213.406 261.94 214.081 265.865 213.167C268.003 212.668 270.786 210.612 272.548 210.723C274.31 210.834 277.606 210.808 278.906 209.874C280.207 208.941 279.686 206.947 279.319 205.234C278.918 203.364 278.416 200.448 277.822 200.576V201.22C277.057 202.427 273.109 202.918 271.429 202.03L271.396 201.007Z" fill="#263238"/>
<path d="M283.243 129.366C283.243 129.366 278.157 127.874 274.383 124.075C274.383 124.075 276.093 127.409 281.177 130.512L280.09 159.239L283.243 129.366Z" fill="#263238"/>
<path d="M297.224 69.926C297.224 69.926 302.456 71.1362 302.102 80.6232L301.002 95.734L301.032 118.41C296.353 123.713 275.609 123.324 268.508 117.986C268.508 117.986 269.313 91.15 269.792 80.824C270.133 73.4826 271.822 69.7866 279.037 68.978L287.91 69.3687L297.224 69.926Z" fill="#E7F4FF"/>
<path opacity="0.1" d="M283.327 75.6562L282.185 83.6226L279.523 83.5727L282.526 84.0467L283.327 75.6562Z" fill="black"/>
<path d="M290.544 50.2057C290.544 55.6551 286.303 60.0725 281.071 60.0725C275.84 60.0725 272.743 55.5337 271.598 50.2057C269.504 40.4618 275.84 40.3389 281.071 40.3389C286.303 40.3389 290.544 44.7563 290.544 50.2057Z" fill="#263238"/>
<path d="M295.393 54.197C295.393 54.197 293.94 61.3065 293.357 62.4746C292.774 63.6428 291.57 63.9751 291.57 63.9751L291.671 58.974L295.393 54.197Z" fill="#263238"/>
<path d="M293.554 44.0116C293.554 44.0116 294.596 43.7508 295.703 45.4801C296.652 46.9627 296.867 50.2921 295.378 54.1975L292.641 54.5243L293.554 44.0116Z" fill="#263238"/>
<path d="M291.83 54.5267C292.379 54.8684 293.162 53.7702 293.839 53.0324C294.516 52.2947 296.725 51.2868 297.828 53.7056C298.951 56.1704 296.855 59.4274 295.115 59.9964C292.118 60.9762 291.668 58.9737 291.668 58.9737L291.439 70.2352C287.46 76.3905 278.445 76.1687 281.686 69.9371L281.695 66.5096C281.695 66.5096 278.979 66.9392 277.654 66.726C275.449 66.3711 274.063 64.5593 273.394 62.0743C272.32 58.0826 271.912 54.859 272.824 47.0087C273.822 38.4034 283.431 38.3139 288.621 41.7157C293.81 45.1175 291.83 54.5267 291.83 54.5267Z" fill="#B16668"/>
<path d="M292.696 40.6021C292.834 40.304 292.917 39.9755 292.917 39.6253C292.917 38.335 291.871 37.289 290.581 37.289C290.022 37.289 289.516 37.4937 289.113 37.8213C288.825 36.8757 287.956 36.1838 286.916 36.1838C286.221 36.1838 285.603 36.4983 285.181 36.9862C284.71 36.0157 283.724 35.3402 282.572 35.3402C281.742 35.3402 280.998 35.692 280.468 36.25C280.024 35.1752 278.968 34.418 277.733 34.418C276.098 34.418 274.773 35.7433 274.773 37.3785C274.773 37.4859 274.793 37.5871 274.805 37.6913C274.423 37.5707 274.017 37.5046 273.596 37.5046C271.381 37.5046 269.586 39.2992 269.586 41.5142C269.586 43.7283 271.381 45.5238 273.596 45.5238C274.219 45.5238 274.807 45.3775 275.333 45.1238C275.592 46.4305 276.744 47.4165 278.127 47.4165C279.409 47.4165 280.482 46.5635 280.839 45.3985C281.201 46.1643 281.974 46.6974 282.877 46.6974C283.799 46.6974 284.589 46.1433 284.94 45.3518C285.909 46.5674 287.993 46.5791 288.888 45.1938C289.702 45.5635 289.877 48.0952 290.02 48.8275C290.502 51.2923 290.902 55.47 291.829 55.4887C292.106 55.4941 293.155 53.68 293.838 53.0333C294.785 52.1359 294.974 44.7222 294.974 44.7222C294.974 44.7222 296.257 41.2994 292.696 40.6021Z" fill="#263238"/>
<path d="M291.488 67.7105C291.488 67.7105 290.088 70.7379 287.59 72.5941C285.295 74.3001 282.875 74.5981 282.875 74.5981C282.875 74.5981 285.21 76.1445 286.202 78.3338C287.194 80.5231 294.369 72.9381 294.196 69.7441C294.196 69.7441 293.034 65.9259 291.529 65.6497L291.488 67.7105Z" fill="#455A64"/>
<path d="M282.882 74.5983C282.882 74.5983 280.723 73.525 281.691 69.9372L281.699 66.5098L280.753 66.6366C280.017 67.2997 278.857 68.8609 278.478 70.5778C278.262 71.5591 277.729 76.5315 278.677 77.5199C279.541 78.4195 280.947 74.8652 282.882 74.5983Z" fill="#455A64"/>
<path d="M281.688 66.5105C281.688 66.5105 286.608 65.4778 288.329 64.5259C289.481 63.8886 290.429 62.7834 290.708 62.0752C290.708 62.0752 290.385 63.5959 289.357 64.9657C288.098 66.6405 281.688 67.8748 281.688 67.8748L281.688 66.5105Z" fill="#9A4A4D"/>
<path d="M282.867 53.2449C282.867 53.8341 283.309 54.3111 283.853 54.3096C284.398 54.308 284.839 53.8294 284.839 53.2395C284.839 52.6503 284.398 52.174 283.853 52.1748C283.309 52.1771 282.867 52.6558 282.867 53.2449Z" fill="#263238"/>
<path d="M284.445 48.9925L286.555 50.2051C286.866 49.5739 286.646 48.7902 286.063 48.4555C285.48 48.1216 284.757 48.3614 284.445 48.9925Z" fill="#263238"/>
<path d="M282.119 60.3398L279.867 61.2201C280.09 61.8917 280.775 62.2404 281.396 61.9968C282.018 61.7532 282.341 61.0115 282.119 60.3398Z" fill="#9A4A4D"/>
<path d="M273.813 49.8968L275.736 48.3535C275.344 47.7799 274.595 47.6601 274.064 48.0866C273.532 48.5123 273.419 49.3232 273.813 49.8968Z" fill="#263238"/>
<path d="M274.656 52.9532C274.656 53.5424 275.098 54.0194 275.642 54.0171C276.187 54.0155 276.628 53.5369 276.628 52.947C276.628 52.3578 276.187 51.8815 275.642 51.8823C275.098 51.8847 274.656 52.3633 274.656 52.9532Z" fill="#263238"/>
<path d="M279.93 52.1279L279.815 58.3564L276.281 57.5454L279.93 52.1279Z" fill="#9A4A4D"/>
<path d="M318.249 98.6363C316.766 93.3605 311.335 82.9994 308.607 78.0209C304.731 70.9496 301.066 69.9806 297.058 69.9238C295.584 71.8267 295.416 80.7269 300.472 86.0323C302.406 90.105 308.556 100.532 308.556 100.532C308.406 101.63 304.242 113.216 302.518 116.947C302.213 117.608 301.659 118.12 300.991 118.411C299.201 119.191 298.383 120.144 296.957 121.251C295.84 122.118 294.98 122.246 295.06 122.587C295.162 123.026 295.751 123.798 296.987 123.613C297.61 123.521 298.449 123.17 299.5 122.7C299.5 122.7 298.513 124.61 296.509 126.434C293.792 128.907 293.933 130.975 298.564 131.709C301.465 132.169 304.052 130.723 307.194 124.647C308.099 122.896 309.065 120.249 310.178 118.014C312.48 113.388 313.253 112.391 315.088 108.913C317.736 103.893 318.906 100.977 318.249 98.6363Z" fill="#B16668"/>
<path d="M296.237 69.9232C296.237 69.9232 300.149 69.12 304.11 71.7934C308.071 74.4659 315.966 91.4259 315.966 91.4259C315.966 91.4259 316.167 95.7071 305.663 97.0947L299.927 86.4208C299.927 86.4208 294.617 81.2991 296.237 69.9232Z" fill="#455A64"/>
<path d="M223.694 206.431C223.622 206.228 223.582 206.013 223.57 205.806L223.591 207.143C223.59 207.222 223.599 207.305 223.605 207.381L223.612 207.432C223.615 207.518 223.629 207.596 223.644 207.675L223.674 207.793C223.687 207.856 223.701 207.919 223.724 207.985L223.84 208.289C223.884 208.39 223.938 208.494 223.997 208.593L224.007 208.611C224.389 209.259 225.023 209.86 225.925 210.367C229.006 212.102 233.977 212.053 237.025 210.252C237.46 209.995 237.83 209.72 238.137 209.421C238.201 209.367 238.261 209.308 238.318 209.242C238.355 209.212 238.384 209.179 238.414 209.137C238.476 209.069 238.536 208.994 238.595 208.92C238.802 208.653 238.961 208.385 239.073 208.105C239.105 208.038 239.128 207.969 239.149 207.909C239.157 207.896 239.16 207.887 239.158 207.872C239.181 207.803 239.198 207.737 239.215 207.672C239.241 207.569 239.264 207.46 239.272 207.352C239.278 207.269 239.288 207.192 239.289 207.112C239.287 207.081 239.288 207.056 239.292 207.023L239.267 205.49C239.273 205.74 239.241 205.997 239.167 206.247C238.89 205.363 238.16 204.516 236.961 203.844C233.877 202.103 228.905 202.153 225.858 203.953C224.664 204.66 223.946 205.529 223.694 206.431Z" fill="#E7F4FF"/>
<path d="M222.008 44.9244L237.709 44.7407L237.725 46.2708L239.262 205.49C239.267 205.741 239.236 205.998 239.162 206.248C238.906 207.145 238.189 208.013 236.995 208.719C233.948 210.519 228.976 210.568 225.892 208.828C224.993 208.327 224.356 207.719 223.978 207.078C223.852 206.866 223.757 206.652 223.69 206.43C223.618 206.227 223.578 206.013 223.567 205.805C223.561 205.768 223.561 205.728 223.559 205.698V205.658C223.561 205.649 223.561 205.649 223.558 205.643L222.008 44.9244Z" fill="#F0F0F0"/>
<path d="M224.34 48.107C221.256 46.3683 221.227 43.4981 224.274 41.6972C227.322 39.8963 232.292 39.8457 235.376 41.5844C238.46 43.323 238.489 46.1932 235.442 47.9941C232.393 49.7958 227.423 49.8456 224.34 48.107Z" fill="#E7F4FF"/>
<path d="M225.362 33.6361C225.335 33.6991 225.312 33.7684 225.295 33.8338L222.194 43.8967C222.188 43.9006 222.185 43.9099 222.183 43.9193L222.16 43.9963C222.139 44.057 222.122 44.1185 222.105 44.1792L222.074 44.2851H222.08C221.759 45.6517 222.505 47.0775 224.331 48.1071C227.415 49.8458 232.385 49.7952 235.433 47.9943C237.201 46.9491 237.927 45.5443 237.628 44.2096H237.634L237.607 44.1271C237.573 43.9963 237.53 43.8664 237.476 43.7372L237.448 43.6531C237.444 43.6469 237.438 43.6352 237.44 43.6259L234.145 33.6446C233.984 33.1442 233.565 32.6773 232.899 32.3014C231.135 31.3044 228.294 31.3324 226.553 32.3613C225.93 32.7294 225.537 33.1676 225.362 33.6361Z" fill="#E0E0E0"/>
<path d="M228.197 164.726C228.188 164.738 228.19 164.754 228.197 164.765V164.979C228.241 165.35 228.512 165.714 229.013 165.997C230.107 166.613 231.882 166.595 232.965 165.956C233.441 165.674 233.707 165.319 233.755 164.957C233.761 164.953 233.758 164.948 233.758 164.948L233.754 164.672L232.566 40.0098L226.984 36.8633L228.197 164.726Z" fill="#455A64"/>
<path d="M232.658 49.0548L232.566 40.0098L226.984 36.8633L227.108 49.11C228.897 49.4813 230.876 49.4618 232.658 49.0548Z" fill="#37474F"/>
<path d="M227.148 29.3481H227.146L227.138 29.3458L224.324 38.4732C224.294 38.555 224.264 38.6375 224.248 38.7184C223.997 39.6959 224.529 40.717 225.838 41.4579C228.014 42.686 231.529 42.6517 233.684 41.3785C234.929 40.643 235.446 39.6585 235.248 38.7184C235.241 38.6943 235.236 38.6748 235.232 38.6561L235.148 38.4055L232.123 29.25L232.118 29.2485C232.026 28.9683 231.793 28.7006 231.414 28.4873C230.422 27.9278 228.823 27.9441 227.843 28.5239C227.447 28.7574 227.221 29.0485 227.148 29.3481Z" fill="#E7F4FF"/>
<path opacity="0.1" d="M227.148 29.3481H227.146L227.138 29.3458L224.324 38.4732C224.294 38.555 224.264 38.6375 224.248 38.7184C223.997 39.6959 224.529 40.717 225.838 41.4579C228.014 42.686 231.529 42.6517 233.684 41.3785C234.929 40.643 235.446 39.6585 235.248 38.7184C235.241 38.6943 235.236 38.6748 235.232 38.6561L235.148 38.4055L232.123 29.25L232.118 29.2485C232.026 28.9683 231.793 28.7006 231.414 28.4873C230.422 27.9278 228.823 27.9441 227.843 28.5239C227.447 28.7574 227.221 29.0485 227.148 29.3481Z" fill="black"/>
<path d="M227.841 28.5215C228.821 27.9425 230.419 27.9269 231.415 28.4888C231.791 28.7021 232.027 28.9698 232.113 29.2477L232.121 29.25L233.648 33.8768C233.893 34.6037 233.534 35.3874 232.56 35.9633C230.992 36.8894 228.43 36.9174 226.846 36.0255C225.904 35.4963 225.519 34.7593 225.687 34.0527L225.743 33.8698L227.134 29.3473L227.143 29.3496C227.217 29.0484 227.444 28.7566 227.841 28.5215Z" fill="#E7F4FF"/>
<path opacity="0.1" d="M227.852 30.5849C226.86 30.0254 226.85 29.1024 227.831 28.5233C228.812 27.9443 230.41 27.928 231.402 28.4868C232.395 29.0463 232.404 29.9693 231.423 30.5484C230.443 31.1282 228.844 31.1445 227.852 30.5849Z" fill="black"/>
<path d="M228.455 188.988C228.453 189.402 228.732 189.807 229.281 190.119C230.375 190.734 232.135 190.718 233.208 190.076C233.755 189.753 234.026 189.338 234.013 188.926L233.769 164.957C233.721 165.318 233.455 165.674 232.979 165.956C231.896 166.596 230.121 166.613 229.027 165.997C228.525 165.714 228.255 165.35 228.211 164.979L228.455 188.988Z" fill="#FAFAFA"/>
<path d="M229.255 187.847C230.331 187.211 232.092 187.194 233.186 187.81C233.725 188.118 234.001 188.519 234.002 188.923C234.016 189.335 233.754 189.752 233.207 190.075C232.134 190.717 230.374 190.734 229.28 190.118C228.731 189.808 228.452 189.401 228.453 188.987C228.449 188.578 228.719 188.164 229.255 187.847Z" fill="#F5F5F5"/>
<path d="M224.256 195.906H224.25L224.251 195.979C224.251 196.013 224.251 196.046 224.252 196.08L224.352 205.534C224.35 205.608 224.35 205.681 224.354 205.754L224.355 205.806H224.359C224.437 206.795 225.127 207.765 226.442 208.507C229.218 210.072 233.691 210.026 236.434 208.406C237.813 207.591 238.491 206.532 238.472 205.483H238.473L238.375 195.912C238.375 195.895 238.375 195.878 238.374 195.861L238.373 195.804H238.368C238.323 194.788 237.628 193.784 236.277 193.023C233.502 191.457 229.029 191.503 226.286 193.124C224.97 193.902 224.298 194.903 224.256 195.906Z" fill="#E7F4FF"/>
<path opacity="0.05" d="M224.256 195.906H224.25L224.251 195.979C224.251 196.013 224.251 196.046 224.252 196.08L224.352 205.534C224.35 205.608 224.35 205.681 224.354 205.754L224.355 205.806H224.359C224.437 206.795 225.127 207.765 226.442 208.507C229.218 210.072 233.691 210.026 236.434 208.406C237.813 207.591 238.491 206.532 238.472 205.483H238.473L238.375 195.912C238.375 195.895 238.375 195.878 238.374 195.861L238.373 195.804H238.368C238.323 194.788 237.628 193.784 236.277 193.023C233.502 191.457 229.029 191.503 226.286 193.124C224.97 193.902 224.298 194.903 224.256 195.906Z" fill="black"/>
<path opacity="0.1" d="M226.341 198.891C223.566 197.326 223.539 194.744 226.283 193.123C229.025 191.502 233.499 191.457 236.274 193.022C239.049 194.587 239.076 197.169 236.332 198.79C233.59 200.411 229.116 200.457 226.341 198.891Z" fill="black"/>
<path d="M228.362 25.5762L228.336 29.5282H228.339C228.331 29.7266 228.457 29.9251 228.72 30.0737C229.229 30.3601 230.048 30.3524 230.551 30.0551C230.802 29.9064 230.927 29.7142 230.924 29.5227L230.965 25.5769C230.959 25.3645 230.9 25.1504 230.784 24.9543C230.419 24.3356 229.62 24.1301 229.001 24.4959C228.604 24.7317 228.377 25.1458 228.362 25.5762Z" fill="#455A64"/>
<path d="M228.401 25.3278L228.398 25.3372C228.385 25.4088 228.371 25.4905 228.367 25.5644C228.371 25.5699 228.365 25.5738 228.368 25.58C228.395 25.7465 228.529 25.9068 228.756 26.0345C229.266 26.3201 230.08 26.3154 230.586 26.0158C230.834 25.8695 230.955 25.6866 230.954 25.4967C230.956 25.4718 230.953 25.4414 230.949 25.4204C230.95 25.3955 230.942 25.3465 230.942 25.3465C230.923 25.2064 230.866 25.0796 230.79 24.9504C230.425 24.3324 229.623 24.1316 229.006 24.4966C228.683 24.6881 228.472 24.9916 228.401 25.3278Z" fill="#263238"/>
<path d="M131.602 267.153L213.796 219.698L292.83 265.328L210.636 312.782L131.602 267.153Z" fill="#E7F4FF"/>
<path opacity="0.3" d="M131.602 267.153L213.796 219.698L292.83 265.328L210.636 312.782L131.602 267.153Z" fill="black"/>
<path d="M131.593 267.153L122.109 261.677L204.304 214.221L213.788 219.697L131.593 267.153Z" fill="#E7F4FF"/>
<path opacity="0.1" d="M131.593 267.153L122.109 261.677L204.304 214.221L213.788 219.697L131.593 267.153Z" fill="black"/>
<path d="M122.109 261.677V272.628L210.628 323.734V312.783L122.109 261.677Z" fill="#E7F4FF"/>
<path opacity="0.2" d="M122.109 261.677V272.628L210.628 323.734V312.783L122.109 261.677Z" fill="black"/>
<path d="M210.633 312.782L292.827 265.328L292.828 276.279L210.633 323.734V312.782Z" fill="#E7F4FF"/>
<path d="M277.498 249.121L213.796 219.698L131.602 267.153L210.636 303.657L281.766 262.591C286.109 260.074 290.313 255.831 290.058 250.265C287.581 251.502 283.599 251.938 277.498 249.121Z" fill="#E7F4FF"/>
<path opacity="0.3" d="M277.498 249.121L213.796 219.698L131.602 267.153L210.636 303.657L281.766 262.591C286.109 260.074 290.313 255.831 290.058 250.265C287.581 251.502 283.599 251.938 277.498 249.121Z" fill="white"/>
<g opacity="0.7">
<path d="M218.469 236.007C218.002 236.48 217.921 236.916 217.818 237.451C217.423 239.506 216.527 240.577 214.035 242.102C212.839 242.833 212.727 243.396 211.98 244.188C210.238 246.031 209.506 244.624 207.858 243.958C207.385 243.767 206.832 244.065 206.921 244.357C207.3 245.601 209.384 249.074 205.82 249.282C203.98 249.39 203.386 248.34 201.847 247.792C200.115 247.176 201.104 250.881 201.243 251.564C201.391 252.288 201.464 253.027 201.46 253.766C201.454 254.665 201.269 255.676 200.523 256.178C200.13 256.441 199.644 256.516 199.173 256.557C197.986 256.659 196.556 256.677 195.425 256.271C195.626 255.788 196.101 255.472 196.304 254.945C196.529 254.364 196.578 253.742 196.508 253.127C196.357 251.793 195.662 250.51 194.701 249.584C193.862 248.775 191.464 247.633 189.782 248.374C188.109 249.111 188.983 251.517 189.417 252.43C190.056 253.776 191.589 255.124 193.409 256.188C192.643 256.611 191.612 256.926 190.297 257.126C188.524 257.396 187.112 257.286 186.568 258.46C186.283 259.077 186.82 260.128 186.207 260.632C185.062 261.573 183.858 260.569 182.87 260.681C181.535 260.833 181.128 261.07 181.121 261.94C181.118 262.211 181.532 262.622 181.447 262.861C181.518 262.972 181.589 263.083 181.661 263.194C180.962 263.294 180.369 263.218 179.881 262.965C179.638 262.906 178.324 262.395 178.333 262.398C177.986 262.275 177.54 262.429 177.441 262.633C176.816 263.921 177.294 265.166 177.551 266.427C175.624 263.776 174.308 261.098 170.656 258.884C168.677 257.684 165.188 256.182 162.739 257.811C159.018 260.288 160.266 267.004 165.358 268.63C165.572 268.698 165.852 268.561 165.951 268.466C166.092 268.332 166.232 268.198 166.373 268.064C166.726 267.729 166.168 267.287 165.696 267.681C164.744 268.479 162.399 264.3 162.317 264.006C161.897 262.505 161.766 260.656 162.848 259.228C165.135 256.207 170.027 259.514 171.896 261.065C174.679 263.375 175.509 266.07 177.704 268.534C178.057 268.93 178.954 268.899 179.053 268.432C179.405 266.785 178.238 265.168 178.63 263.547C180.009 264.192 182.362 265.35 183.245 264.145C183.671 263.565 182.772 262.892 183.05 262.279C183.469 261.356 183.335 261.92 184.652 262.112C185.141 262.183 185.616 262.257 186.112 262.159C186.748 262.032 187.041 261.756 187.333 261.421C188.436 260.155 187.171 258.829 190.011 258.084C191.591 257.67 192.903 257.823 194.298 257.074C194.429 257.004 194.55 256.929 194.669 256.854C194.946 256.987 195.226 257.117 195.508 257.235C197.921 258.24 200.825 258.036 202.064 256.396C202.884 255.31 202.905 254.104 202.894 252.941C202.886 252.149 202.987 251.325 202.886 250.536C202.833 250.115 202.58 249.59 202.415 249.107C203.758 249.897 204.931 250.949 206.987 250.327C209.912 249.442 209.242 247.089 208.63 245.371C210.35 246.289 211.913 247.234 213.149 245.194C213.812 244.1 214.032 243.367 215.454 242.507C216.248 242.026 217.086 241.572 217.693 241.001C219.262 239.527 218.337 237.882 219.497 236.405C219.825 235.989 218.935 235.535 218.469 236.007ZM192.268 254.1C191.106 253.135 190.074 251.681 190.323 250.464C190.481 249.686 191.392 248.761 192.886 249.539C194.23 250.24 194.965 252.242 195.072 253.219C195.175 254.163 194.9 254.959 194.226 255.595C193.423 255.071 192.671 254.434 192.268 254.1Z" fill="#455A64"/>
<path d="M234.76 248.019C234.696 247.958 233.361 248.688 233.256 248.738C232.194 249.249 231.319 249.567 230.081 249.54C230.096 249.493 230.122 249.444 230.135 249.398C230.492 248.074 229.478 246.429 228.089 245.365C227.16 244.655 225.722 244.096 224.379 244.902C222.939 245.766 223.875 247.401 224.74 248.281C225.605 249.159 226.76 249.755 228.015 250.075C227.533 250.5 226.829 250.898 225.891 251.273C224.621 251.781 224.026 251.769 223.981 252.831C223.957 253.388 224.202 253.949 224.31 254.499C224.522 255.569 224.33 256.864 221.995 256.699C220.781 256.612 220.033 256.298 219.048 255.889C218.598 255.702 218.131 255.874 218.086 256.178C217.954 257.073 218.352 257.973 218.308 258.869C218.186 261.373 214.627 258.89 213.525 258.129C212.948 257.731 212.287 258.153 212.505 258.56C213.241 259.928 212.903 261.684 212.513 263.073C212.311 263.794 212.013 265.195 210.909 265.679C209.758 266.183 208.798 265.813 208.033 265.175C209.21 263.096 209.688 260.638 209.097 258.509C208.798 257.428 208.027 256.146 205.846 256.784C203.232 257.548 203.517 259.662 204.021 260.994C204.276 261.665 205.277 263.735 206.735 265.229C205.245 267.707 202.513 269.776 199.056 271.831C198.608 272.098 198.985 272.677 199.587 272.345C203.172 270.366 205.738 268.623 207.551 265.958C208.84 266.941 210.388 267.333 212.052 266.122C214.001 264.702 214.551 261.948 214.145 259.803C215.348 260.647 216.869 261.466 218.333 260.993C220.321 260.351 219.554 258.313 219.356 256.976C220.868 257.543 222.793 258.062 224.378 257.443C226.699 256.537 225.189 254.772 225.326 253.518C225.488 252.04 227.416 252.191 228.76 251.256C229.137 250.994 229.444 250.673 229.68 250.335C232.05 250.483 234.48 249.723 235.843 248.07C235.933 247.962 235.919 247.778 235.799 247.678C235.712 247.607 235.626 247.535 235.54 247.464C235.097 247.093 234.449 247.723 234.76 248.019ZM206.226 262.87C205.622 261.913 203.975 259.398 204.885 258.222C204.987 258.091 205.123 257.989 205.267 257.908C205.738 257.645 206.326 257.599 206.832 257.787C207.661 258.094 208.063 258.854 208.096 259.682C208.121 260.327 208.004 260.991 207.942 261.634C207.852 262.588 207.596 263.476 207.21 264.318C206.781 263.78 206.45 263.226 206.226 262.87ZM225.424 247.634C225.168 247.376 224.934 247.066 224.916 246.705C224.888 246.148 225.424 245.678 225.979 245.624C227.001 245.524 227.574 246.267 228.117 246.973C228.223 247.112 229.208 249.265 228.763 249.221C227.527 249.098 226.337 248.539 225.453 247.664C225.444 247.654 225.434 247.644 225.424 247.634Z" fill="#455A64"/>
<path d="M203.599 280.851C204.169 283.185 206.117 285.213 207.562 287.049C209.135 289.049 210.928 290.947 213.098 292.306C213.715 292.692 214.196 292.084 213.968 291.768C213.509 291.131 213.359 290.607 212.717 290.028C212.547 289.875 212.15 289.987 211.971 290.146C210.621 288.825 209.665 287.363 208.507 285.992C207.152 284.386 205.157 282.305 204.548 280.526C204.395 280.078 203.519 280.527 203.599 280.851Z" fill="#455A64"/>
<path d="M216.214 278.186C214.889 277.925 213.372 277.857 212.081 278.117C212.546 277.563 213.237 277.283 214.226 277.885C214.684 278.165 215.294 277.525 214.882 277.269C213.82 276.61 212.511 276.836 211.416 277.404C210.391 277.935 210.04 278.53 209.963 279.173C209.959 279.196 209.955 279.219 209.955 279.244C209.908 279.783 210.044 280.356 210.138 280.956C210.451 282.956 211.953 284.591 213.587 286.354C214.618 287.467 216.275 288.719 218.776 288.45C223.888 287.899 222.638 283.162 221.009 281.352C219.792 279.998 218.85 278.704 216.214 278.186ZM220.424 286.473C216.876 289.781 212.957 284.237 212.049 282.879C211.498 282.055 211.3 281.205 211.268 280.326C211.261 280.153 211.328 279.705 211.494 279.219C217.607 277.181 223.506 283.599 220.424 286.473Z" fill="#455A64"/>
<path d="M222.072 274.851C221.748 274.763 221.428 274.947 221.356 275.121C221.259 275.352 221.141 275.581 221.054 275.813C221.005 275.944 221.207 276.037 221.412 276.026C221.668 276.012 221.867 275.884 221.955 275.753C222.041 275.624 222.152 275.497 222.251 275.37C222.38 275.205 222.411 274.944 222.072 274.851Z" fill="#455A64"/>
<path d="M231.463 269.214C229.776 268.413 227.706 268.984 226.483 269.883C224.896 271.05 225.368 272.496 225.805 273.849C225.94 274.266 226.856 273.935 226.758 273.618C226.584 273.053 226.312 272.407 226.312 271.786C227.557 273.263 228.66 274.865 229.939 276.399C229.829 276.539 229.724 276.681 229.602 276.816C229.32 277.131 229.992 277.717 230.479 277.322C230.531 277.28 230.576 277.235 230.624 277.191C231.673 278.359 232.863 279.466 234.35 280.419C234.985 280.87 235.779 280.159 235.176 279.768C233.652 278.781 232.422 277.62 231.328 276.398C231.7 275.871 231.973 275.309 232.321 274.787C232.788 274.091 233.271 273.403 233.451 272.659C233.762 271.378 233.262 270.068 231.463 269.214ZM231.478 270.274C233.047 271.441 232.371 272.77 231.542 274.012C231.213 274.506 230.905 275.019 230.573 275.525C229.334 274.039 228.24 272.5 227.034 271.098C226.896 270.938 226.705 270.917 226.532 270.968C226.558 270.922 226.576 270.875 226.609 270.831C227.481 269.64 229.986 269.165 231.478 270.274Z" fill="#455A64"/>
<path d="M253.404 263.999C253.236 264.52 252.318 265.161 251.566 265.451C249.708 266.167 248.008 265.291 246.737 264.45C245.611 263.705 245.327 262.634 244.429 261.827C243.862 261.316 242.801 260.54 241.562 260.817C238.701 261.457 240.004 264.825 240.395 266.705C239.593 266.267 238.895 265.937 237.523 265.877C237.282 265.867 237.068 265.951 236.967 266.075C236.415 266.748 236.418 267.599 236.695 268.439C235.568 267.506 234.472 266.561 233.372 265.616C232.893 265.204 232.111 265.776 232.492 266.109C234.384 267.762 236.236 269.425 238.317 271.002C238.858 271.412 239.428 271.045 239.191 270.429C238.997 269.928 238.295 269.547 237.982 269.105C237.657 268.647 237.513 267.978 237.868 267.542C238.073 267.291 238.406 267.171 238.73 267.162C239.054 267.154 239.372 267.245 239.676 267.354C240.114 267.51 241.672 268.679 241.629 267.591C241.586 266.515 241.476 265.442 241.299 264.379C241.221 263.912 241.133 263.414 241.321 262.98C241.494 262.578 241.898 262.293 242.332 262.227C242.765 262.162 243.218 262.303 243.564 262.574C244.407 263.234 244.859 264.188 245.648 264.881C246.193 265.361 246.788 265.836 247.587 266.185C250.644 267.52 254.164 265.928 254.342 263.978C254.378 263.575 253.509 263.676 253.404 263.999Z" fill="#455A64"/>
</g>
</svg>
