<svg width="247" height="200" viewBox="0 0 247 200" fill="none" xmlns="http://www.w3.org/2000/svg">
<path d="M123.189 200C191.224 200 246.378 196.779 246.378 192.806C246.378 188.833 191.224 185.612 123.189 185.612C55.1535 185.612 0 188.833 0 192.806C0 196.779 55.1535 200 123.189 200Z" fill="#F5F5F5"/>
<path d="M5.54738 101.207L4.90625 101.282L6.05067 111.064L6.6918 110.989L5.54738 101.207Z" fill="#407BFF"/>
<path d="M7.1177 114.625L6.47656 114.7L7.05368 119.633L7.69482 119.558L7.1177 114.625Z" fill="#407BFF"/>
<path d="M49.8567 81.2688L49.0943 79.1315C48.0135 76.1014 44.9835 74.2189 41.7883 74.5925L11.4239 78.1441C7.63592 78.587 4.92485 82.0166 5.36769 85.8046L14.0111 159.699C14.3148 162.296 16.6669 164.156 19.2642 163.852L127.903 151.145C130.501 150.842 132.36 148.49 132.057 145.892L124.586 82.0134C124.282 79.4161 121.93 77.5564 119.332 77.8601L56.2471 85.2385C53.4522 85.5651 50.8021 83.9189 49.8567 81.2688Z" fill="#407BFF"/>
<path d="M52.8888 49.1273L18.5625 55.9701L27.9898 103.261L62.3162 96.4183L52.8888 49.1273Z" fill="#407BFF"/>
<path opacity="0.7" d="M52.8888 49.1273L18.5625 55.9701L27.9898 103.261L62.3162 96.4183L52.8888 49.1273Z" fill="white"/>
<g opacity="0.4">
<path d="M48.3076 60.5149L27.1623 64.7292C26.1368 64.9338 25.14 64.2679 24.9354 63.2424C24.7308 62.217 25.3966 61.2201 26.4221 61.0155L47.5675 56.8012C48.5929 56.5966 49.5898 57.2625 49.7944 58.2879C49.999 59.3134 49.3331 60.3103 48.3076 60.5149Z" fill="#407BFF"/>
<path d="M49.8623 68.3342L28.717 72.5485C27.6915 72.7531 26.6946 72.0872 26.4901 71.0618C26.2855 70.0363 26.9513 69.0394 27.9768 68.8349L49.1221 64.6205C50.1476 64.4159 51.1445 65.0818 51.3491 66.1073C51.553 67.1334 50.8878 68.1302 49.8623 68.3342Z" fill="#407BFF"/>
<path d="M51.4248 76.1542L30.2795 80.3685C29.254 80.5731 28.2571 79.9073 28.0526 78.8818C27.848 77.8563 28.5138 76.8594 29.5393 76.6549L50.6846 72.4405C51.7101 72.2359 52.707 72.9018 52.9116 73.9273C53.1155 74.9527 52.4503 75.9496 51.4248 76.1542Z" fill="#407BFF"/>
<path d="M52.9795 83.9735L31.8342 88.1879C30.8087 88.3924 29.8118 87.7266 29.6073 86.7011C29.4027 85.6757 30.0685 84.6788 31.094 84.4742L52.2393 80.2599C53.2648 80.0553 54.2617 80.7211 54.4663 81.7466C54.6702 82.7727 54.005 83.7696 52.9795 83.9735Z" fill="#407BFF"/>
<path d="M48.7628 92.9454L33.3967 96.0078C32.3712 96.2124 31.3743 95.5466 31.1698 94.5211C30.9652 93.4956 31.631 92.4988 32.6565 92.2942L48.0226 89.2318C49.0481 89.0272 50.045 89.693 50.2495 90.7185C50.4535 91.744 49.7883 92.7409 48.7628 92.9454Z" fill="#407BFF"/>
</g>
<path d="M101.797 40.0167L67.1172 44.763L73.6561 92.5411L108.336 87.7948L101.797 40.0167Z" fill="#407BFF"/>
<path opacity="0.7" d="M101.797 40.0167L67.1172 44.763L73.6561 92.5411L108.336 87.7948L101.797 40.0167Z" fill="white"/>
<g opacity="0.4">
<path d="M96.5276 51.095L75.1656 54.0189C74.1299 54.1606 73.175 53.4357 73.0333 52.4C72.8916 51.3644 73.6166 50.4095 74.6522 50.2678L96.0142 47.3439C97.0498 47.2022 98.0048 47.9271 98.1465 48.9628C98.2888 49.999 97.5638 50.9533 96.5276 51.095Z" fill="#407BFF"/>
<path d="M97.6057 58.9951L76.2437 61.919C75.2081 62.0607 74.2531 61.3357 74.1114 60.3001C73.9698 59.2638 74.6947 58.3095 75.7303 58.1678L97.0923 55.2446C98.128 55.1029 99.0829 55.8278 99.2246 56.8635C99.3663 57.8984 98.6413 58.8534 97.6057 58.9951Z" fill="#407BFF"/>
<path d="M83.2156 69.0127L77.3296 69.8184C76.294 69.9601 75.3391 69.2351 75.1974 68.1995C75.0557 67.1632 75.7806 66.2089 76.8163 66.0672L82.7022 65.2616C83.7379 65.1199 84.6928 65.8448 84.8345 66.8805C84.9762 67.9167 84.2519 68.871 83.2156 69.0127Z" fill="#407BFF"/>
<path d="M94.6297 67.451L88.7437 68.2567C87.7081 68.3983 86.7531 67.6734 86.6114 66.6378C86.4698 65.6021 87.1947 64.6472 88.2303 64.5055L94.1163 63.6999C95.1519 63.5582 96.1069 64.2831 96.2485 65.3188C96.3902 66.3544 95.6653 67.3094 94.6297 67.451Z" fill="#407BFF"/>
<path d="M99.7698 74.7951L78.4078 77.7191C77.3721 77.8607 76.4172 77.1358 76.2755 76.1002C76.1338 75.0639 76.8588 74.1096 77.8944 73.9679L99.2564 71.044C100.293 70.9023 101.247 71.6273 101.389 72.6629C101.531 73.6985 100.806 74.6528 99.7698 74.7951Z" fill="#407BFF"/>
<path d="M95.0174 83.4938L79.4937 85.6184C78.4581 85.7601 77.5031 85.0352 77.3614 83.9995C77.2198 82.9639 77.9447 82.009 78.9803 81.8673L94.504 79.7426C95.5397 79.6009 96.4946 80.3259 96.6363 81.3615C96.7786 82.3972 96.0537 83.3521 95.0174 83.4938Z" fill="#407BFF"/>
</g>
<path d="M69.0798 46.9928L34.2109 50.0309L38.3966 98.0694L73.2654 95.0312L69.0798 46.9928Z" fill="#407BFF"/>
<path opacity="0.8" d="M69.0798 46.9928L34.2109 50.0309L38.3966 98.0694L73.2654 95.0312L69.0798 46.9928Z" fill="white"/>
<g opacity="0.4">
<path d="M63.2793 57.8038L41.7998 59.6756C40.7584 59.7664 39.8403 58.9957 39.7495 57.9538C39.6586 56.9124 40.4293 55.9943 41.4713 55.9035L62.9508 54.0317C63.9922 53.9408 64.9103 54.7115 65.0011 55.7535C65.0913 56.7955 64.3207 57.7129 63.2793 57.8038Z" fill="#407BFF"/>
<path d="M63.9746 65.7477L42.4951 67.6194C41.4537 67.7103 40.5356 66.9396 40.4448 65.8976C40.3539 64.8563 41.1246 63.9382 42.1666 63.8473L63.6461 61.9749C64.6875 61.8841 65.6056 62.6548 65.6964 63.6967C65.7873 64.7387 65.0166 65.6568 63.9746 65.7477Z" fill="#407BFF"/>
<path d="M64.6699 73.691L43.1904 75.5627C42.149 75.6536 41.2309 74.8829 41.1401 73.8409C41.0492 72.7989 41.8199 71.8815 42.8619 71.7906L64.3414 69.9188C65.3828 69.828 66.3009 70.5987 66.3918 71.6406C66.4826 72.682 65.7113 73.6001 64.6699 73.691Z" fill="#407BFF"/>
<path d="M65.3574 81.6342L43.8779 83.506C42.8359 83.5968 41.9184 82.8261 41.8276 81.7841C41.7367 80.7428 42.5074 79.8247 43.5494 79.7338L65.0289 77.8621C66.0703 77.7712 66.9884 78.5419 67.0792 79.5839C67.1695 80.6252 66.3988 81.5433 65.3574 81.6342Z" fill="#407BFF"/>
<path d="M60.1742 90.0895L44.5654 91.4498C43.524 91.5407 42.6059 90.77 42.5151 89.728C42.4242 88.6866 43.1949 87.7685 44.2369 87.6777L59.8457 86.3174C60.8871 86.2265 61.8052 86.9972 61.896 88.0392C61.9863 89.0806 61.2156 89.9987 60.1742 90.0895Z" fill="#407BFF"/>
</g>
<path d="M111.577 44.6478L76.6172 46.3349L78.9415 94.4988L113.901 92.8117L111.577 44.6478Z" fill="#407BFF"/>
<path opacity="0.8" d="M111.577 44.6478L76.6172 46.3349L78.9415 94.4988L113.901 92.8117L111.577 44.6478Z" fill="white"/>
<g opacity="0.4">
<path d="M105.364 55.228L83.8283 56.2674C82.7838 56.3176 81.8962 55.512 81.846 54.4675C81.7958 53.4229 82.6014 52.5353 83.6453 52.4852L105.181 51.4457C106.226 51.3955 107.113 52.2012 107.164 53.2457C107.215 54.2896 106.408 55.1772 105.364 55.228Z" fill="#407BFF"/>
<path d="M105.755 63.1922L84.2189 64.2316C83.1744 64.2818 82.2874 63.4762 82.2366 62.4317C82.1864 61.3871 82.992 60.4995 84.0366 60.4494L105.573 59.4099C106.617 59.3597 107.505 60.1654 107.555 61.2099C107.605 62.2538 106.8 63.1414 105.755 63.1922Z" fill="#407BFF"/>
<path d="M90.5282 71.9093L84.5939 72.1958C83.5494 72.246 82.6618 71.4404 82.6116 70.3958C82.5614 69.3513 83.367 68.4644 84.4109 68.4135L90.3452 68.127C91.3897 68.0768 92.2773 68.8824 92.3275 69.927C92.3783 70.9715 91.5727 71.8591 90.5282 71.9093Z" fill="#407BFF"/>
<path d="M102.036 71.354L96.1017 71.6405C95.0572 71.6907 94.1696 70.8851 94.1194 69.8405C94.0692 68.796 94.8749 67.909 95.9194 67.8582L101.854 67.5717C102.898 67.5215 103.786 68.3271 103.836 69.3716C103.886 70.4162 103.081 71.3031 102.036 71.354Z" fill="#407BFF"/>
<path d="M106.521 79.1206L84.9845 80.16C83.94 80.2102 83.0531 79.4046 83.0022 78.36C82.952 77.3155 83.7577 76.4279 84.8022 76.3777L106.338 75.3383C107.383 75.2881 108.27 76.0937 108.321 77.1382C108.371 78.1828 107.565 79.0697 106.521 79.1206Z" fill="#407BFF"/>
<path d="M101.017 87.3688L85.3673 88.1242C84.3228 88.1744 83.4352 87.3688 83.385 86.3243C83.3348 85.2797 84.1405 84.3921 85.185 84.342L100.835 83.5865C101.88 83.5363 102.767 84.342 102.817 85.3865C102.867 86.431 102.061 87.3186 101.017 87.3688Z" fill="#407BFF"/>
</g>
<path d="M59.5543 82.6367L58.9977 80.5458C58.2086 77.5812 55.3851 75.7456 52.1899 76.1192L21.8255 79.6702C18.0375 80.1131 15.0386 83.4779 15.1269 87.1859L16.85 159.518C16.9103 162.061 19.0655 163.875 21.6628 163.572L130.302 150.865C132.899 150.562 134.956 148.254 134.896 145.711L133.406 83.1831C133.346 80.6404 131.191 78.8259 128.594 79.1296L65.5082 86.508C62.7139 86.8345 60.2443 85.229 59.5543 82.6367Z" fill="#407BFF"/>
<path opacity="0.3" d="M59.5543 82.6367L58.9977 80.5458C58.2086 77.5812 55.3851 75.7456 52.1899 76.1192L21.8255 79.6702C18.0375 80.1131 15.0386 83.4779 15.1269 87.1859L16.85 159.518C16.9103 162.061 19.0655 163.875 21.6628 163.572L130.302 150.865C132.899 150.562 134.956 148.254 134.896 145.711L133.406 83.1831C133.346 80.6404 131.191 78.8259 128.594 79.1296L65.5082 86.508C62.7139 86.8345 60.2443 85.229 59.5543 82.6367Z" fill="#181818"/>
<path d="M165.778 47.8623C165.309 50.2233 164.806 52.5443 164.242 54.8659C163.689 57.1862 163.123 59.5027 162.507 61.8078L161.569 65.261L161.445 65.7026C161.389 65.8925 161.326 66.0844 161.252 66.2814C161.102 66.6753 160.913 67.0876 160.63 67.5082C160.353 67.9257 159.96 68.3653 159.444 68.7142C158.929 69.0649 158.289 69.2885 157.709 69.3406C156.525 69.4327 155.676 69.0769 154.984 68.7389C154.295 68.3736 153.733 67.9555 153.219 67.5171C152.196 66.6232 151.391 65.6829 150.633 64.6021L152.4 63.0131C153.261 63.6681 154.219 64.3365 155.129 64.8258C155.583 65.0742 156.038 65.2807 156.437 65.3925C156.828 65.5196 157.168 65.5024 157.172 65.4376C157.181 65.4141 157.11 65.4135 157.077 65.4173C157.04 65.4166 157.047 65.4014 157.077 65.3112C157.105 65.2254 157.152 65.0894 157.192 64.9204L157.338 64.2209L158.08 60.75L159.572 53.8118C160.056 51.4998 160.575 49.182 161.079 46.8934L165.778 47.8623Z" fill="#FFC3BD"/>
<path d="M163.649 40.6021C158.229 44.7516 158.447 52.5703 158.447 52.5703L168.141 54.8875C168.141 54.8875 171.116 47.0262 169.908 44.1474C168.649 41.1441 166.699 38.2665 163.649 40.6021Z" fill="#263238"/>
<path d="M152.893 63.1363L149.329 59.5726L147.406 65.1485C147.406 65.1485 150.415 66.7731 153.295 65.2419L152.893 63.1363Z" fill="#FFC3BD"/>
<path d="M144.397 59.0224L143.742 63.4286L147.407 65.1485L149.33 59.5726L144.397 59.0224Z" fill="#FFC3BD"/>
<path d="M195.063 188.117L189.611 188.65L183.938 175.673L189.389 175.14L195.063 188.117Z" fill="#FFC3BD"/>
<path d="M230.177 168.933L226.082 172.777L217.242 163.062L221.336 159.217L230.177 168.933Z" fill="#FFC3BD"/>
<path d="M224.198 170.933L227.275 165.389C227.387 165.187 227.619 165.101 227.831 165.182L232.568 166.986C233.059 167.172 233.273 167.803 233.006 168.264C231.9 170.178 231.27 171.047 229.917 173.485C229.084 174.985 227.463 178.425 226.313 180.496C225.189 182.522 223.055 181.541 223.348 180.575C224.662 176.247 224.415 173.837 224.044 171.926C223.977 171.582 224.034 171.228 224.198 170.933Z" fill="#263238"/>
<path d="M188.886 186.965H195.581C195.824 186.965 196.045 187.134 196.11 187.372L197.566 192.67C197.717 193.219 197.312 193.725 196.749 193.73C194.389 193.751 193.271 193.74 190.326 193.74C188.515 193.74 183.828 193.74 181.327 193.74C178.88 193.74 178.369 191.267 179.381 191.043C183.92 190.038 186.537 188.653 187.937 187.332C188.191 187.093 188.53 186.965 188.886 186.965Z" fill="#263238"/>
<path opacity="0.2" d="M183.938 175.677L186.861 182.366H192.548L189.392 175.143L183.938 175.677Z" fill="#181818"/>
<path opacity="0.2" d="M221.339 159.219L217.242 163.065L221.801 168.071L225.898 164.225L221.339 159.219Z" fill="#181818"/>
<path d="M165.287 39.7984C165.287 39.7984 162.837 40.8766 171.056 73.4063C180.118 72.6222 189.484 71.8128 193.894 71.4309C192.707 62.1693 192.2 56.439 194.993 36.9799C194.993 36.9799 190.118 36.3528 185.185 36.5409C181.326 36.6883 178.167 36.8376 174.814 37.438C170.396 38.2303 165.287 39.7984 165.287 39.7984Z" fill="#263238"/>
<path d="M185.181 36.382C185.181 36.382 186.476 36.4049 188.007 36.4049C188.926 37.8243 185.937 44.0279 180.993 48.0911C179.802 44.3876 177.023 42.3373 177.023 42.3373L185.181 36.382Z" fill="white"/>
<path d="M174.824 37.356C174.824 37.356 174.247 37.438 172.864 37.7531C171.945 39.1725 170.388 45.2243 173.099 48.3134C174.156 44.5006 177.033 42.3366 177.033 42.3366L174.824 37.356Z" fill="white"/>
<path d="M183.142 24.9539C182.777 28.3474 182.652 34.5173 185.18 36.5416C185.18 36.5416 182.481 39.2965 177.022 42.3373C173.051 39.5938 174.81 37.4387 174.81 37.4387C178.454 36.2283 178.119 33.476 177.246 30.9396L183.142 24.9539Z" fill="#FFC3BD"/>
<path d="M176.938 42.3544C176.938 42.3544 180.286 38.7087 182.015 39.4089C183.743 40.1091 182.409 41.3588 182.254 42.5317C182.1 43.7046 182.926 46.8343 180.608 46.0217C178.29 45.2078 176.938 42.3544 176.938 42.3544Z" fill="#407BFF"/>
<path d="M176.798 42.2801C176.798 42.2801 175.219 39.4832 173.51 39.8562C171.801 40.2292 172.818 41.2121 172.969 42.2636C173.164 43.6156 171.739 46.2028 173.8 45.4721C175.806 44.7612 176.798 42.2801 176.798 42.2801Z" fill="#407BFF"/>
<g opacity="0.2">
<path d="M175.93 41.674C175.948 42.4554 176.061 42.9942 176.25 43.317C176.612 42.7407 176.798 42.282 176.798 42.282C176.798 42.282 176.491 41.7343 175.991 41.1581C175.942 41.2858 175.926 41.4535 175.93 41.674Z" fill="#181818"/>
<path d="M178.154 41.1752C177.439 41.8061 176.938 42.3519 176.938 42.3519C176.938 42.3519 177.165 42.8278 177.591 43.453C177.875 43.2128 178.107 42.7731 178.21 42.0088C178.269 41.6136 178.239 41.3537 178.154 41.1752Z" fill="#181818"/>
</g>
<path d="M176.887 43.5006C176.414 43.5025 176.122 42.9834 176.087 41.7553C176.052 40.5277 176.997 41.2095 176.997 41.2095C176.997 41.2095 178.252 40.5532 178.039 42.0463C177.875 43.2071 177.376 43.4987 176.887 43.5006Z" fill="#407BFF"/>
<path opacity="0.2" d="M180.747 27.3962L177.258 30.9364C177.466 31.5368 177.641 32.148 177.737 32.7497C179.14 32.4212 181.172 30.9624 181.194 29.4611C181.205 28.7126 180.898 27.731 180.747 27.3962Z" fill="#181818"/>
<path d="M177.753 13.4914C177.753 13.4914 173.953 18.7718 173.324 21.1417C170.731 22.6494 170.208 15.2113 171.583 10.6227C175.842 13.2773 177.753 13.4914 177.753 13.4914Z" fill="#263238"/>
<path d="M186.136 19.6518C184.721 25.0714 184.238 27.3956 180.913 29.667C175.913 33.0833 169.565 30.1594 169.333 24.4259C169.124 19.2655 171.474 11.2689 177.272 10.1418C182.986 9.03119 187.551 14.2322 186.136 19.6518Z" fill="#FFC3BD"/>
<path d="M189.083 17.4897C189.083 17.4897 186.36 21.901 185.993 23.8198C184.017 25.1642 183.182 19.2814 184.017 15.5569C184.926 12.2709 189.083 17.4897 189.083 17.4897Z" fill="#263238"/>
<path d="M187.996 14.4165C187.211 15.0131 186.374 12.8078 187.161 11.1196C185.654 11.213 183.842 10.3191 184.229 8.86663C181.264 9.86033 180.164 6.84238 180.505 4.75396C180.918 2.22968 183.133 1.67247 184.433 2.33896C184.459 1.20421 187.304 -1.17012 188.395 0.686399C190.423 -0.0290132 193.688 0.191456 193.623 2.68142C194.963 2.72336 198.917 4.23932 197.46 7.79605C199.204 7.89961 200.15 10.1189 199.179 11.7937C201.416 13.1051 200.586 15.3822 199.735 16.1796C200.54 17.8569 198.091 20.3507 196.793 20.0508C195.801 21.5731 194.281 22.7155 193.288 21.4175C191.357 22.8242 189.195 21.0407 189.684 19.6664C187.497 19.3062 185.29 15.6986 187.996 14.4165Z" fill="#263238"/>
<path d="M191.224 9.08264C192.647 11.4576 192.529 14.1452 190.959 15.0855C189.391 16.0258 186.965 14.8625 185.542 12.4869C184.118 10.1119 184.237 7.42436 185.805 6.48403C187.375 5.54434 189.8 6.70768 191.224 9.08264Z" fill="#407BFF"/>
<path d="M178.014 12.8275C177.927 13.5092 176.053 13.3326 175.513 12.133C174.74 12.9444 172.917 13.3662 172.293 12.4825C171.241 14.4616 169.127 13.9438 168.574 12.9927C168.02 12.0415 167.665 10.2879 168.76 9.94167C168.122 9.39145 168.315 6.81952 169.981 7.14228C170.68 5.77181 172.596 4.21392 173.992 5.42555C174.75 4.7635 177.789 3.46865 179.037 5.89381C180.052 5.05513 181.847 5.62378 182.279 6.91101C184.258 6.3932 185.114 7.89327 185.107 8.70399C186.513 9.08838 186.605 11.5148 185.722 12.0339C186.055 13.2595 185.879 14.5734 184.587 14.4654C184.339 16.1135 182.129 16.3696 181.606 15.4706C180.2 16.4122 177.269 14.8117 178.014 12.8275Z" fill="#263238"/>
<path d="M174.664 8.16075C176.273 5.93383 182.133 5.01065 187.21 8.34628C191.785 11.3522 191.488 18.329 187.852 17.958C184.215 17.5869 180.615 13.3192 180.615 13.3192L174.664 8.16075Z" fill="#263238"/>
<path d="M186.582 24.5447C186.049 25.5765 185.089 26.2659 184.175 26.5404C182.801 26.954 182.085 25.7315 182.443 24.4195C182.765 23.2384 183.87 21.5998 185.26 21.7606C186.631 21.9194 187.192 23.3655 186.582 24.5447Z" fill="#FFC3BD"/>
<path d="M171.054 73.4062C171.054 73.4062 163.328 107.587 168.486 131.684C171.94 147.823 184.399 180.426 184.399 180.426L194.139 180.176C194.139 180.176 184.708 145.961 182.758 132.506C179.423 109.489 187.777 71.9595 187.777 71.9595L171.054 73.4062Z" fill="#407BFF"/>
<path opacity="0.2" d="M179.972 80.3082L184.842 87.9896C183.603 95.9551 182.37 105.918 182.056 115.504C175.206 103.243 178.449 86.8003 179.972 80.3082Z" fill="#181818"/>
<path d="M183.026 180.931L195.059 180.624L194.363 176.927L182.086 177.509L183.026 180.931Z" fill="#263238"/>
<path d="M176.047 73.0428C176.047 73.0428 180.58 109.291 190.405 129.081C198.342 145.066 219.519 167.82 219.519 167.82L224.934 162.242C224.934 162.242 210.629 137.513 204.731 126.894C190.269 100.859 202.088 80.9905 193.891 71.4316L176.047 73.0428Z" fill="#407BFF"/>
<path d="M218.975 168.566L225.963 161.755L223.645 158.601L216.234 165.997L218.975 168.566Z" fill="#263238"/>
<path d="M194.109 70.0617L195.316 72.0167C195.409 72.1686 195.236 72.3465 194.971 72.3694L171.022 74.4406C170.816 74.4584 170.637 74.3726 170.612 74.2443L170.229 72.2181C170.203 72.0777 170.371 71.9424 170.596 71.9227L193.722 69.9226C193.893 69.9074 194.049 69.9639 194.109 70.0617Z" fill="#407BFF"/>
<path opacity="0.5" d="M194.109 70.0617L195.316 72.0167C195.409 72.1686 195.236 72.3465 194.971 72.3694L171.022 74.4406C170.816 74.4584 170.637 74.3726 170.612 74.2443L170.229 72.2181C170.203 72.0777 170.371 71.9424 170.596 71.9227L193.722 69.9226C193.893 69.9074 194.049 69.9639 194.109 70.0617Z" fill="white"/>
<path d="M191.235 72.9157L191.855 72.8624C191.978 72.8516 192.066 72.7798 192.051 72.7029L191.531 70.0719C191.515 69.995 191.402 69.9404 191.278 69.9512L190.659 70.0045C190.536 70.0153 190.447 70.0871 190.463 70.164L190.983 72.795C190.999 72.8725 191.112 72.9265 191.235 72.9157Z" fill="#407BFF"/>
<path d="M172.789 74.5111L173.409 74.4578C173.532 74.447 173.62 74.3752 173.605 74.2983L173.085 71.6673C173.069 71.5904 172.956 71.5358 172.833 71.5466L172.214 71.5999C172.09 71.6107 172.002 71.6825 172.017 71.7594L172.538 74.3904C172.552 74.4679 172.665 74.5219 172.789 74.5111Z" fill="#407BFF"/>
<path d="M182.008 73.7138L182.628 73.6604C182.751 73.6496 182.839 73.5778 182.824 73.5009L182.304 70.8699C182.288 70.793 182.175 70.7384 182.052 70.7492L181.432 70.8026C181.309 70.8134 181.221 70.8852 181.236 70.962L181.756 73.5931C181.772 73.6699 181.885 73.7246 182.008 73.7138Z" fill="#407BFF"/>
<path d="M176.956 19.4663C176.868 19.9129 176.56 20.2287 176.268 20.1709C175.976 20.1137 175.811 19.7046 175.899 19.2585C175.986 18.8119 176.294 18.4961 176.586 18.5539C176.878 18.6111 177.044 19.0196 176.956 19.4663Z" fill="#263238"/>
<path d="M171.909 18.4739C171.821 18.9205 171.513 19.2363 171.221 19.1785C170.929 19.1213 170.764 18.7121 170.852 18.2655C170.939 17.8188 171.247 17.5031 171.539 17.5609C171.831 17.6187 171.997 18.0272 171.909 18.4739Z" fill="#263238"/>
<path d="M171.661 17.6111L170.648 17.0907C170.648 17.0907 171.034 18.0374 171.661 17.6111Z" fill="#263238"/>
<path d="M173.637 19.587C173.637 19.587 172.501 21.3609 171.484 22.1246C171.966 22.7911 173.018 22.7365 173.018 22.7365L173.637 19.587Z" fill="#ED847E"/>
<path d="M175.095 24.8662C176.677 24.8662 177.596 23.943 177.641 23.8979C177.683 23.8541 177.682 23.7836 177.639 23.741C177.595 23.6984 177.525 23.6991 177.482 23.7429C177.47 23.755 176.269 24.9533 174.304 24.5657C174.241 24.5523 174.185 24.5936 174.174 24.6527C174.162 24.7131 174.201 24.7715 174.262 24.783C174.556 24.8408 174.835 24.8662 175.095 24.8662Z" fill="#263238"/>
<path d="M179.989 17.7343C180.029 17.7343 180.068 17.7242 180.104 17.7019C180.209 17.6384 180.243 17.5018 180.179 17.3969C179.427 16.1516 178.217 16.097 178.166 16.0957C178.037 16.1008 177.942 16.1872 177.938 16.3092C177.933 16.4318 178.029 16.5348 178.151 16.5399C178.192 16.5418 179.175 16.5945 179.799 17.6276C179.841 17.6956 179.914 17.7343 179.989 17.7343Z" fill="#263238"/>
<path d="M170.504 15.9451C170.54 15.9451 170.578 15.9362 170.612 15.9166C171.675 15.3231 172.573 15.7825 172.582 15.7869C172.691 15.8441 172.825 15.8022 172.882 15.6935C172.939 15.5849 172.897 15.4508 172.789 15.3937C172.744 15.3695 171.665 14.8187 170.395 15.5284C170.288 15.5881 170.25 15.7234 170.309 15.8308C170.351 15.9038 170.426 15.9451 170.504 15.9451Z" fill="#263238"/>
<path d="M195.953 42.1778C196.383 42.5984 196.682 42.9243 197.021 43.3005C197.345 43.669 197.657 44.0413 197.96 44.4193C198.567 45.1741 199.14 45.9486 199.683 46.7435C200.751 48.3452 201.708 50.02 202.525 51.7679C203.354 53.5107 203.995 55.3443 204.506 57.2123C204.75 58.15 204.972 59.0942 205.132 60.0523C205.352 61.0581 205.437 62.6865 204.698 64.0684C204.341 64.759 203.819 65.3347 203.277 65.7597C202.732 66.1886 202.166 66.4859 201.618 66.7128C200.517 67.1562 199.472 67.3456 198.461 67.4638C196.443 67.6747 194.535 67.5991 192.662 67.3882C188.919 66.9644 185.347 66.1733 181.797 65.0793L182.378 62.7748C184.106 63.0595 185.887 63.3282 187.644 63.5093C189.403 63.7126 191.163 63.8581 192.898 63.8962C194.628 63.9204 196.354 63.8988 197.92 63.6211C198.695 63.4845 199.431 63.2793 199.992 63.0029C200.562 62.7227 200.859 62.4012 200.928 62.1731C200.973 62.0518 201.004 61.9165 201.006 61.7125C201.008 61.6121 200.995 61.4939 200.982 61.3713C200.955 61.2404 200.941 61.1248 200.882 60.8923C200.704 60.0746 200.469 59.2683 200.219 58.469C199.708 56.8704 199.035 55.3259 198.287 53.8169C197.538 52.3079 196.662 50.8561 195.693 49.4736C195.217 48.7766 194.716 48.0961 194.191 47.4424C193.93 47.1145 193.662 46.7937 193.39 46.483C193.134 46.1805 192.824 45.8375 192.614 45.6202L195.953 42.1778Z" fill="#FFC3BD"/>
<path d="M183.825 63.1249L179.371 60.7652L179.172 66.66C179.172 66.66 182.318 66.8589 184.164 65.4116L183.825 63.1249Z" fill="#FFC3BD"/>
<path d="M176.036 94.8095L179.712 54.9021L171.865 48.8935L147.909 46.6863L143.75 91.8354L176.036 94.8095Z" fill="#407BFF"/>
<path opacity="0.8" d="M176.036 94.8095L179.712 54.9021L171.865 48.8935L147.909 46.6863L143.75 91.8354L176.036 94.8095Z" fill="white"/>
<path d="M179.707 54.9021L171.859 48.8935L173.917 56.0851L179.707 54.9021Z" fill="#407BFF"/>
<path d="M146.549 98.8117C151.952 98.8117 156.332 94.4315 156.332 89.0284C156.332 83.6253 151.952 79.2452 146.549 79.2452C141.146 79.2452 136.766 83.6253 136.766 89.0284C136.766 94.4315 141.146 98.8117 146.549 98.8117Z" fill="#407BFF"/>
<path d="M151.389 95.1509C154.771 92.4797 155.346 87.5732 152.675 84.1919C150.004 80.8106 145.097 80.235 141.716 82.9061C138.335 85.5773 137.759 90.4838 140.43 93.8651C143.101 97.2464 148.008 97.8221 151.389 95.1509Z" fill="white"/>
<path d="M151.369 88.3429L147.926 87.9394L148.33 84.4964L145.862 84.2073L145.459 87.6497L142.016 87.2456L141.727 89.7133L145.169 90.1174L144.765 93.5598L147.233 93.8495L147.637 90.4072L151.079 90.8106L151.369 88.3429Z" fill="#407BFF"/>
<path opacity="0.4" d="M173.85 63.1732C173.715 64.6422 172.415 65.7229 170.946 65.5876L153.473 63.9801C152.004 63.8448 150.924 62.5448 151.058 61.0765C151.194 59.6076 152.493 58.5269 153.962 58.6615L171.435 60.269C172.904 60.4043 173.986 61.7043 173.85 63.1732Z" fill="#407BFF"/>
<path opacity="0.4" d="M167.9 70.3839C167.764 71.8528 166.464 72.9336 164.996 72.7982L152.785 71.6749C151.317 71.5396 150.235 70.2397 150.371 68.7707C150.506 67.3018 151.806 66.221 153.274 66.3564L165.485 67.4797C166.954 67.615 168.034 68.9149 167.9 70.3839Z" fill="#407BFF"/>
<path d="M176.664 61.1172L177.332 65.5215L179.179 66.66L179.379 60.7652L176.664 61.1172Z" fill="#FFC3BD"/>
<path d="M194.988 36.9806C197.787 37.4755 201.711 45.5058 201.711 45.5058L194.653 51.8886C194.653 51.8886 189.04 45.7663 189.34 42.1181C189.594 39.0207 191.422 36.3497 194.988 36.9806Z" fill="#263238"/>
<path d="M223.111 173.913C223.184 173.913 223.257 173.901 223.329 173.877C223.999 173.651 224.438 172.411 224.64 171.693C224.652 171.65 224.638 171.605 224.603 171.577C224.569 171.549 224.522 171.544 224.482 171.565C224.278 171.671 222.489 172.628 222.431 173.334C222.422 173.442 222.448 173.598 222.622 173.729C222.784 173.852 222.948 173.913 223.111 173.913ZM224.35 171.89C224.039 172.882 223.638 173.538 223.258 173.666C223.093 173.722 222.93 173.683 222.755 173.552C222.654 173.476 222.648 173.402 222.652 173.352C222.688 172.919 223.736 172.238 224.35 171.89Z" fill="#407BFF"/>
<path d="M222.843 172.17C223.478 172.17 224.257 171.967 224.6 171.758C224.633 171.738 224.654 171.701 224.653 171.661C224.652 171.622 224.63 171.586 224.596 171.566C224.536 171.533 223.119 170.754 222.357 171.025C222.158 171.095 222.017 171.228 221.939 171.42C221.818 171.72 221.951 171.892 222.041 171.969C222.21 172.113 222.507 172.17 222.843 172.17ZM224.297 171.662C223.691 171.921 222.516 172.08 222.184 171.8C222.129 171.753 222.074 171.677 222.145 171.504C222.198 171.371 222.292 171.283 222.43 171.235C222.95 171.049 223.894 171.464 224.297 171.662Z" fill="#407BFF"/>
<path d="M185.921 188.048C186.564 188.048 187.264 187.924 187.749 187.816C187.795 187.806 187.83 187.767 187.835 187.72C187.841 187.673 187.815 187.628 187.772 187.607C187.497 187.478 185.068 186.356 184.456 186.769C184.378 186.822 184.287 186.924 184.298 187.113C184.313 187.374 184.424 187.585 184.629 187.739C184.932 187.969 185.408 188.048 185.921 188.048ZM187.367 187.667C186.645 187.802 185.311 187.978 184.762 187.562C184.61 187.447 184.53 187.296 184.519 187.1C184.514 187.01 184.549 186.974 184.58 186.953C184.922 186.721 186.358 187.224 187.367 187.667Z" fill="#407BFF"/>
<path d="M187.71 187.819C187.735 187.819 187.762 187.81 187.782 187.792C187.814 187.766 187.828 187.723 187.818 187.682C187.795 187.58 187.244 185.185 185.925 185.338C185.595 185.377 185.505 185.541 185.488 185.671C185.405 186.281 186.937 187.511 187.668 187.81C187.681 187.816 187.695 187.819 187.71 187.819ZM186.045 185.553C186.887 185.553 187.378 186.947 187.54 187.506C186.749 187.091 185.655 186.092 185.707 185.702C185.711 185.673 185.723 185.586 185.952 185.559C185.983 185.555 186.014 185.553 186.045 185.553Z" fill="#407BFF"/>
<path d="M176.715 18.6035L175.703 18.0831C175.703 18.0831 176.089 19.0298 176.715 18.6035Z" fill="#263238"/>
</svg>
