<svg width="98" height="22" viewBox="0 0 98 22" fill="none" xmlns="http://www.w3.org/2000/svg">
<path d="M94.3163 20V2.47998H97.7243V20H94.3163ZM82.8203 20V2.47998H86.2283V20H82.8203ZM85.6043 12.728V9.72798H94.9403V12.728H85.6043Z" fill="#1B2063"/>
<path d="M73.1109 20V4.99998H76.5189V20H73.1109ZM68.0469 5.47998V2.47998H81.5829V5.47998H68.0469Z" fill="#1B2063"/>
<path d="M59.6772 20.456C58.0452 20.456 56.6692 20.144 55.5492 19.52C54.4292 18.896 53.5732 18.024 52.9812 16.904C52.4052 15.768 52.1172 14.44 52.1172 12.92V2.47998H55.5252V13.112C55.5252 13.944 55.6852 14.68 56.0052 15.32C56.3252 15.944 56.7892 16.432 57.3972 16.784C58.0212 17.12 58.7812 17.288 59.6772 17.288C60.5572 17.288 61.3012 17.12 61.9092 16.784C62.5332 16.432 62.9972 15.944 63.3012 15.32C63.6212 14.696 63.7812 13.96 63.7812 13.112V2.47998H67.1892V12.92C67.1892 14.44 66.9012 15.768 66.3252 16.904C65.7652 18.024 64.9252 18.896 63.8052 19.52C62.6852 20.144 61.3092 20.456 59.6772 20.456Z" fill="#1B2063"/>
<path d="M34.2734 20L40.2494 2.47998H45.8174L51.9614 20H48.4574L43.2494 4.80798L44.4734 5.33598H41.4734L42.7214 4.80798L37.6814 20H34.2734ZM38.4494 15.344L39.5294 12.464H46.6334L47.6894 15.344H38.4494Z" fill="#1B2063"/>
<path d="M5.592 20L0 2.47998H3.528L8.16 17.648L7.152 17.168H9.744L8.712 17.648L12.984 2.47998H16.392L11.208 20H5.592Z" fill="#1B2063"/>
<path d="M28.701 18.6132C27.7028 20.0691 26.5199 20.8387 25.2794 20.8387C22.9736 20.8387 20.9324 18.16 19.819 13.6737C19.797 13.5846 19.7075 13.5301 19.6181 13.5527C19.5293 13.5748 19.4751 13.6645 19.4971 13.7533C20.6665 18.4671 22.7742 21.1704 25.2794 21.1704C26.6341 21.1704 27.912 20.3512 28.9742 18.8009C29.026 18.7256 29.0067 18.6224 28.9311 18.5706C28.8557 18.5183 28.7522 18.5376 28.701 18.6132Z" fill="#1B2063"/>
<path d="M31.2443 11.1832C30.8155 13.9701 30.0688 16.3346 29.0849 18.0218C29.039 18.1008 29.0659 18.2025 29.1447 18.2484C29.2234 18.2943 29.3254 18.2677 29.3713 18.1887C30.3757 16.466 31.1368 14.061 31.5721 11.2334C31.7439 10.1156 32.2974 9.12798 33.083 8.38655C33.0619 8.25578 33.0386 8.12716 33.0141 7.99915C32.0915 8.80366 31.4394 9.91596 31.2443 11.1832Z" fill="#1B2063"/>
<path d="M19.2657 12.6989C19.2844 12.7889 19.372 12.8471 19.4617 12.8281C19.5512 12.8097 19.6091 12.7221 19.5907 12.6324C19.4948 12.1654 19.4078 11.6772 19.3315 11.1817C19.1484 9.99375 18.5624 8.94424 17.7302 8.15442C17.7069 8.28549 17.6843 8.41718 17.6641 8.55131C18.3591 9.27161 18.8442 10.1965 19.0038 11.2319C19.0807 11.7332 19.1689 12.2266 19.2657 12.6989Z" fill="#1B2063"/>
<path d="M31.4427 15.4864C31.4706 15.3994 31.4225 15.306 31.3352 15.2778C31.2482 15.2499 31.1545 15.298 31.1266 15.3853C29.8279 19.437 27.7534 21.6686 25.2859 21.6686C23.3262 21.6686 21.6103 20.2648 20.3229 17.609C20.2831 17.5269 20.1839 17.4929 20.1015 17.5321C20.0188 17.5722 19.9845 17.6711 20.0246 17.7538C21.3714 20.5315 23.1905 22 25.2859 22C27.9099 21.9997 30.0966 19.6869 31.4427 15.4864Z" fill="#1B2063"/>
<path d="M31.3577 14.6054C31.3332 14.6933 31.3846 14.7848 31.4725 14.8097C31.5604 14.8342 31.6523 14.7827 31.6768 14.6945C31.9641 13.6698 32.2021 12.5474 32.3853 11.3588C32.494 10.6508 32.7881 10.0061 33.2089 9.46499C33.1955 9.31064 33.1814 9.1566 33.1639 9.00562C32.5927 9.63741 32.1929 10.4275 32.0576 11.3086C31.8762 12.484 31.641 13.5932 31.3577 14.6054Z" fill="#1B2063"/>
<path d="M19.5435 16.6432C19.5769 16.7281 19.6736 16.77 19.7585 16.737C19.8436 16.7036 19.8856 16.6071 19.8522 16.522C19.269 15.0367 18.8188 13.2828 18.5152 11.309C18.3936 10.5207 18.0613 9.8047 17.5844 9.20996C17.5672 9.37411 17.5516 9.53918 17.5391 9.707C17.8656 10.1949 18.0941 10.7541 18.1872 11.3595C18.4947 13.3572 18.9511 15.135 19.5435 16.6432Z" fill="#1B2063"/>
<path d="M17.6928 11.4357C17.6539 11.1818 17.5853 10.9383 17.4959 10.705C17.4952 10.7696 17.4922 10.833 17.4922 10.8985C17.4922 10.98 17.4928 11.0614 17.4937 11.1429C17.4928 11.2244 17.4922 11.3058 17.4922 11.3873C17.4922 11.7474 17.5063 12.0978 17.528 12.442C18.0576 15.3094 18.9067 17.6636 20.0069 19.4003C20.6008 20.1445 21.2676 20.7521 21.973 21.2151C19.9312 19.4916 18.4102 16.0971 17.6928 11.4357Z" fill="#1B2063"/>
<path d="M33.2741 10.899C33.2741 10.6941 33.2698 10.4923 33.2625 10.2926C33.075 10.6439 32.9403 11.0276 32.8775 11.4364C32.0881 16.5646 30.3266 20.1603 27.9687 21.6829C28.6374 21.3614 29.2855 20.9158 29.8862 20.3507C31.4471 18.4045 32.6067 15.376 33.2055 11.4867C33.2224 11.3773 33.2456 11.2702 33.2729 11.1648C33.2729 11.1578 33.2729 11.1507 33.2729 11.1434C33.2735 11.0616 33.2741 10.9801 33.2741 10.899Z" fill="#1B2063"/>
<path d="M29.5167 10.9186C29.2073 12.9279 28.7096 14.732 28.0771 16.1356C28.0397 16.2189 28.0767 16.3175 28.1601 16.3548C28.2434 16.3934 28.342 16.3555 28.3794 16.2722C29.0333 14.8211 29.5258 13.0369 29.8444 10.9691C30.1338 9.08724 31.1694 7.50118 32.6268 6.48106C32.5925 6.37112 32.557 6.26209 32.5202 6.15491C30.948 7.22188 29.826 8.90839 29.5167 10.9186Z" fill="#1B2063"/>
<path d="M20.7163 10.9672C21.6113 16.781 23.7088 19.4292 25.2789 19.4292C26.1873 19.4292 27.1473 18.5903 27.981 17.0668C28.0251 16.9865 27.9954 16.8858 27.9152 16.842C27.8343 16.7979 27.7338 16.8273 27.6904 16.9078C26.9283 18.2997 26.0495 19.0978 25.2789 19.0978C23.8365 19.0978 21.8621 16.2307 21.0443 10.917C20.7454 8.97412 19.6893 7.33048 18.1991 6.25891C18.1624 6.36977 18.1284 6.484 18.0938 6.59732C19.4657 7.61958 20.4375 9.15572 20.7163 10.9672Z" fill="#1B2063"/>
<path d="M28.7132 10.7914C27.9098 16.0111 26.0628 18.2694 25.298 18.2694C24.6689 18.2694 23.1153 16.5768 22.2029 12.4985C22.1826 12.409 22.0932 12.3527 22.0047 12.3729C21.9153 12.3928 21.8589 12.4813 21.8791 12.5707C22.8099 16.7299 24.4385 18.6005 25.298 18.6005C26.3256 18.6005 28.2262 16.1346 29.0413 10.8414C29.3791 8.64585 30.6233 6.81203 32.3603 5.67371C32.3189 5.56805 32.2773 5.46331 32.2335 5.36072C30.3911 6.54621 29.0694 8.47619 28.7132 10.7914Z" fill="#1B2063"/>
<path d="M21.5465 10.8436C21.5778 11.0445 21.61 11.2411 21.6436 11.4334C21.6596 11.5234 21.7459 11.5844 21.8357 11.5678C21.9257 11.5519 21.9861 11.4659 21.9705 11.3758C21.9371 11.186 21.9049 10.9918 21.8743 10.7933C21.5279 8.54332 20.2708 6.65652 18.5096 5.46399C18.4667 5.56781 18.4232 5.67071 18.3828 5.77698C20.039 6.92112 21.2188 8.71329 21.5465 10.8436Z" fill="#1B2063"/>
<path d="M20.6421 6.76006C20.6991 6.83111 20.8036 6.84367 20.8752 6.7867C20.9469 6.72974 20.9588 6.62562 20.9019 6.55365C20.3165 5.81651 19.6243 5.19298 18.857 4.69104C18.8071 4.78996 18.7587 4.89041 18.7109 4.99239C19.4344 5.47106 20.088 6.06273 20.6421 6.76006Z" fill="#1B2063"/>
<path d="M28.0677 9.8082C28.045 9.8967 28.0986 9.98705 28.1875 10.0097C28.2012 10.0134 28.215 10.0149 28.2288 10.0149C28.3026 10.0149 28.37 9.9653 28.389 9.89027C28.9318 7.77011 30.2654 6.01897 32.0272 4.90668C31.9791 4.80561 31.9292 4.70762 31.8789 4.60962C30.0332 5.76479 28.6353 7.59218 28.0677 9.8082Z" fill="#1B2063"/>
<path d="M25.2023 17.7239C25.2286 17.7398 25.258 17.7475 25.2874 17.7475C25.3168 17.7475 25.3462 17.7398 25.3726 17.7239C25.3906 17.7132 27.1932 16.5782 28.1201 11.2709C28.136 11.1809 28.0753 11.0952 27.9856 11.0792C27.8934 11.0615 27.8095 11.1239 27.7935 11.214C27.0891 15.2476 25.8268 16.9583 25.2923 17.3769C24.9303 17.0688 23.4408 15.533 22.6916 10.6649C22.5176 9.53511 22.1362 8.4709 21.5583 7.50223C21.5114 7.42353 21.41 7.3978 21.331 7.44466C21.2523 7.49151 21.2265 7.59319 21.2734 7.6719C21.8293 8.60381 22.1963 9.62791 22.3638 10.7151C23.2533 16.4955 25.1827 17.7126 25.2023 17.7239Z" fill="#1B2063"/>
<path d="M23.1906 10.5903C23.7248 14.0595 24.6541 15.7656 25.1607 16.4737C25.192 16.5175 25.2422 16.5432 25.2958 16.5432C25.3494 16.5432 25.3996 16.5175 25.4306 16.4737C25.9369 15.7653 26.8659 14.0595 27.4004 10.5903C27.8249 7.83284 29.417 5.5372 31.6346 4.16153C31.5789 4.06506 31.5228 3.9695 31.4652 3.8761C29.1643 5.30077 27.5128 7.68064 27.0723 10.5401C26.5936 13.6482 25.8018 15.2989 25.2955 16.0823C24.7892 15.2989 23.9971 13.6488 23.5184 10.5401C23.0874 7.73913 21.4943 5.39693 19.267 3.96338C19.2103 4.0574 19.1561 4.15448 19.1016 4.25126C21.2438 5.63642 22.7753 7.89317 23.1906 10.5903Z" fill="#1B2063"/>
<path d="M27.9513 6.07592C27.8992 6.15125 27.9182 6.25446 27.9935 6.30652C28.0223 6.32674 28.0551 6.33592 28.0876 6.33592C28.1402 6.33592 28.192 6.31111 28.2242 6.26456C29.0129 5.12134 30.024 4.17533 31.1778 3.46085C31.115 3.36928 31.0522 3.27741 30.9876 3.18921C29.8019 3.92604 28.7629 4.89961 27.9513 6.07592Z" fill="#1B2063"/>
<path d="M21.5695 5.28556C21.6305 5.35416 21.7355 5.35998 21.8038 5.29873C21.8721 5.2381 21.8779 5.13305 21.817 5.06476C21.1958 4.36926 20.4864 3.76871 19.713 3.27136C19.6487 3.36048 19.5853 3.45082 19.5234 3.54362C20.2757 4.02627 20.9658 4.60937 21.5695 5.28556Z" fill="#1B2063"/>
<path d="M27.5012 6.79926C26.8628 7.91247 26.4389 9.12829 26.2414 10.4127C26.0116 11.9047 25.6897 13.1852 25.2836 14.2258C24.8774 13.1855 24.5555 11.905 24.3258 10.4127C24.0817 8.82632 23.5009 7.36215 22.5989 6.06059C22.5468 5.98556 22.443 5.96718 22.3682 6.01863C22.2932 6.071 22.2742 6.1742 22.3263 6.24954C23.1992 7.50914 23.7616 8.92677 23.9977 10.4629C24.2602 12.1654 24.6416 13.5998 25.131 14.7274C25.1574 14.7878 25.2171 14.827 25.2833 14.827C25.3491 14.827 25.4088 14.7878 25.4352 14.7274C25.9253 13.5995 26.3066 12.1647 26.5688 10.4629C26.7602 9.21863 27.1707 8.04171 27.7888 6.96433C27.8341 6.8847 27.8068 6.78333 27.7272 6.73801C27.6485 6.69238 27.5465 6.71994 27.5012 6.79926Z" fill="#1B2063"/>
<path d="M24.0897 7.73957C24.1252 7.82379 24.2226 7.86299 24.3068 7.82808C24.3911 7.79255 24.4309 7.69516 24.3954 7.61095C23.5172 5.52263 22.0504 3.80764 20.2306 2.61755C20.1584 2.70177 20.0858 2.7866 20.0156 2.8745C21.7961 4.02967 23.2324 5.70087 24.0897 7.73957Z" fill="#1B2063"/>
<path d="M25.4235 10.286C25.3806 10.5628 25.3347 10.8342 25.2851 11.0978C25.2358 10.8351 25.1892 10.5637 25.1466 10.286C25.0664 9.76534 24.95 9.2487 24.8011 8.75043C24.7748 8.66285 24.6829 8.61293 24.595 8.63926C24.5071 8.6656 24.4575 8.75778 24.4835 8.84568C24.6284 9.32925 24.7411 9.83088 24.8189 10.3362C24.9071 10.9077 25.0094 11.4516 25.1233 11.9529C25.1408 12.0282 25.2076 12.0818 25.2851 12.0818C25.3626 12.0818 25.4296 12.0282 25.4465 11.9529C25.5613 11.4473 25.664 10.9034 25.7513 10.3362C26.2481 7.10771 28.1006 4.41609 30.6839 2.78898C30.6125 2.7017 30.5402 2.61595 30.467 2.53296C27.8255 4.21182 25.9329 6.97541 25.4235 10.286Z" fill="#1B2063"/>
<path d="M25.1294 8.14438C25.1524 8.21145 25.2152 8.25617 25.2862 8.25617C25.3567 8.25617 25.4198 8.21145 25.443 8.14438C26.3089 5.62916 27.9884 3.55616 30.1309 2.17191C30.051 2.09075 29.9701 2.01266 29.8883 1.93579C27.8377 3.27931 26.2051 5.23838 25.2865 7.60814C24.3854 5.2834 22.7976 3.35342 20.8017 2.01266C20.7209 2.09045 20.6412 2.16946 20.5625 2.25153C22.6469 3.63517 24.2797 5.67663 25.1294 8.14438Z" fill="#1B2063"/>
<path d="M24.732 5.37598C24.7804 5.45377 24.8824 5.47765 24.9602 5.42957C25.038 5.38149 25.0622 5.2792 25.0138 5.20141C24.0872 3.70722 22.8586 2.44364 21.4387 1.45813C21.3489 1.52857 21.2598 1.60115 21.1719 1.67679C22.5879 2.64393 23.8128 3.89343 24.732 5.37598Z" fill="#1B2063"/>
<path d="M25.2869 5.67418C25.2422 5.75381 25.2701 5.85487 25.35 5.89958C25.3758 5.91398 25.4036 5.92071 25.4312 5.92071C25.4891 5.92071 25.5454 5.89009 25.5761 5.83619C26.548 4.10619 27.9048 2.66498 29.5062 1.59188C29.4167 1.51746 29.3264 1.4458 29.2354 1.37659C27.6292 2.47173 26.2671 3.92918 25.2869 5.67418Z" fill="#1B2063"/>
<path d="M23.8616 2.63821C23.9272 2.57421 23.9281 2.46916 23.8641 2.40362C23.3366 1.86524 22.7712 1.37891 22.1752 0.941284C22.0744 1.00284 21.9742 1.06654 21.875 1.13422C22.4943 1.58012 23.0821 2.07931 23.6273 2.63576C23.6917 2.7013 23.7964 2.70222 23.8616 2.63821Z" fill="#1B2063"/>
<path d="M25.2837 4.11431C25.0708 3.81051 24.8432 3.51283 24.6059 3.2271C24.5477 3.15697 24.4432 3.14717 24.3724 3.20566C24.302 3.26385 24.2922 3.36859 24.3507 3.43903C24.6334 3.77896 24.9008 4.13575 25.1462 4.49988C25.1768 4.54581 25.2282 4.57276 25.2837 4.57276C25.3388 4.57276 25.3903 4.54551 25.4209 4.49988C26.3377 3.14074 27.4841 1.98557 28.7899 1.06743C28.6903 1.0022 28.5905 0.939113 28.4894 0.879395C27.2618 1.76109 26.1723 2.84582 25.2837 4.11431Z" fill="#1B2063"/>
<path d="M25.1552 3.11159C25.1867 3.1511 25.2342 3.17376 25.2847 3.17376C25.335 3.17376 25.3824 3.1511 25.4143 3.11159C25.727 2.72082 26.0652 2.34138 26.4196 1.98429C26.4839 1.91936 26.4836 1.81432 26.4186 1.75001C26.3534 1.68478 26.2483 1.6857 26.184 1.75093C25.8701 2.06728 25.5678 2.40109 25.2847 2.74501C24.5965 1.90895 23.8255 1.1617 22.989 0.51123C22.8748 0.561762 22.7612 0.615967 22.6484 0.673848C23.5701 1.37332 24.4148 2.18611 25.1552 3.11159Z" fill="#1B2063"/>
<path d="M26.8775 1.33306C26.9378 1.40166 27.0426 1.4084 27.1115 1.34776C27.4022 1.09143 27.7042 0.849802 28.0129 0.619503C27.8993 0.564072 27.7854 0.512315 27.6705 0.464233C27.4053 0.667277 27.144 0.876751 26.8922 1.09909C26.8233 1.15942 26.8168 1.26416 26.8775 1.33306Z" fill="#1B2063"/>
<path d="M25.1658 1.84591C25.1974 1.88021 25.2418 1.89981 25.2883 1.89981C25.3349 1.89981 25.3793 1.88051 25.4105 1.84591C25.9364 1.26985 26.5046 0.74004 27.1083 0.258004C26.9794 0.217579 26.8501 0.18236 26.7206 0.151123C26.2173 0.565785 25.7367 1.00954 25.288 1.48943C24.8528 1.02424 24.3875 0.592735 23.9014 0.189098C23.7752 0.223092 23.6493 0.261985 23.5234 0.30486C24.1066 0.77434 24.6567 1.28792 25.1658 1.84591Z" fill="#1B2063"/>
<path d="M25.2844 0.706517C25.3264 0.706517 25.3681 0.690592 25.4005 0.659355C25.6214 0.443143 25.8505 0.236424 26.0836 0.0342998C25.9301 0.0153123 25.777 0.00551249 25.6244 0C25.5108 0.1029 25.3953 0.20396 25.2847 0.310228C25.1769 0.207022 25.0651 0.109024 24.9546 0.00918711C24.8088 0.0195996 24.6623 0.0373623 24.5156 0.0597185C24.7386 0.253881 24.957 0.452636 25.1687 0.659661C25.2005 0.690592 25.2425 0.706517 25.2844 0.706517Z" fill="#1B2063"/>
<path d="M19.8641 11.1005C20.3456 14.2285 21.259 16.8488 22.4355 18.4799C22.4676 18.5246 22.5188 18.5488 22.5699 18.5488C22.6033 18.5488 22.6373 18.5387 22.6667 18.5172C22.7408 18.4636 22.7577 18.3601 22.7041 18.286C21.5573 16.6969 20.6651 14.1271 20.1915 11.0503C19.9465 9.45837 19.1186 8.09893 17.9445 7.16028C17.9145 7.27696 17.8863 7.39517 17.8594 7.51461C18.9069 8.39875 19.6405 9.64917 19.8641 11.1005Z" fill="#1B2063"/>
<path d="M30.1331 13.1826C30.0439 13.1621 29.9542 13.2154 29.9328 13.3045C28.9333 17.4156 27.151 19.9694 25.2813 19.9694C24.6883 19.9694 24.1027 19.7201 23.5406 19.2295C23.4717 19.1695 23.3673 19.1762 23.3066 19.2451C23.2463 19.3143 23.2533 19.4188 23.3226 19.4791C23.9468 20.0245 24.6059 20.3011 25.2813 20.3011C27.3427 20.3011 29.2022 17.7151 30.255 13.3832C30.2764 13.2938 30.2219 13.2047 30.1331 13.1826Z" fill="#1B2063"/>
<path d="M30.3812 11.0488C30.3202 11.4445 30.251 11.8399 30.175 12.2236C30.1573 12.3133 30.2161 12.4006 30.3058 12.4184C30.3166 12.4205 30.3273 12.4214 30.338 12.4214C30.4155 12.4214 30.4847 12.3666 30.5003 12.2876C30.5769 11.8993 30.647 11.4996 30.7089 11.099C30.9439 9.57238 31.7457 8.27205 32.8809 7.38239C32.8527 7.26388 32.8221 7.14781 32.7908 7.03174C31.5304 7.97223 30.6372 9.38404 30.3812 11.0488Z" fill="#1B2063"/>
</svg>
