<svg width="98" height="22" viewBox="0 0 98 22" fill="none" xmlns="http://www.w3.org/2000/svg">
<path d="M94.3163 20V2.47998H97.7243V20H94.3163ZM82.8203 20V2.47998H86.2283V20H82.8203ZM85.6043 12.728V9.72798H94.9403V12.728H85.6043Z" fill="white"/>
<path d="M73.1109 20V4.99998H76.5189V20H73.1109ZM68.0469 5.47998V2.47998H81.5829V5.47998H68.0469Z" fill="white"/>
<path d="M59.6772 20.456C58.0452 20.456 56.6692 20.144 55.5492 19.52C54.4292 18.896 53.5732 18.024 52.9812 16.904C52.4052 15.768 52.1172 14.44 52.1172 12.92V2.47998H55.5252V13.112C55.5252 13.944 55.6852 14.68 56.0052 15.32C56.3252 15.944 56.7892 16.432 57.3972 16.784C58.0212 17.12 58.7812 17.288 59.6772 17.288C60.5572 17.288 61.3012 17.12 61.9092 16.784C62.5332 16.432 62.9972 15.944 63.3012 15.32C63.6212 14.696 63.7812 13.96 63.7812 13.112V2.47998H67.1892V12.92C67.1892 14.44 66.9012 15.768 66.3252 16.904C65.7652 18.024 64.9252 18.896 63.8052 19.52C62.6852 20.144 61.3092 20.456 59.6772 20.456Z" fill="white"/>
<path d="M34.2734 20L40.2494 2.47998H45.8174L51.9614 20H48.4574L43.2494 4.80798L44.4734 5.33598H41.4734L42.7214 4.80798L37.6814 20H34.2734ZM38.4494 15.344L39.5294 12.464H46.6334L47.6894 15.344H38.4494Z" fill="white"/>
<path d="M5.592 20L0 2.47998H3.528L8.16 17.648L7.152 17.168H9.744L8.712 17.648L12.984 2.47998H16.392L11.208 20H5.592Z" fill="white"/>
<path d="M28.701 18.613C27.7028 20.0689 26.5199 20.8385 25.2794 20.8385C22.9736 20.8385 20.9324 18.1597 19.819 13.6735C19.797 13.5843 19.7075 13.5298 19.6181 13.5525C19.5293 13.5745 19.4751 13.6643 19.4971 13.7531C20.6665 18.4669 22.7742 21.1701 25.2794 21.1701C26.6341 21.1701 27.912 20.3509 28.9742 18.8007C29.026 18.7254 29.0067 18.6221 28.9311 18.5704C28.8557 18.518 28.7522 18.5373 28.701 18.613Z" fill="white"/>
<path d="M31.2443 11.1831C30.8155 13.97 30.0688 16.3345 29.0849 18.0216C29.039 18.1007 29.0659 18.2023 29.1447 18.2483C29.2234 18.2942 29.3254 18.2676 29.3713 18.1885C30.3757 16.4659 31.1368 14.0609 31.5721 11.2333C31.7439 10.1155 32.2974 9.12786 33.083 8.38643C33.0619 8.25566 33.0386 8.12704 33.0141 7.99902C32.0915 8.80354 31.4394 9.91584 31.2443 11.1831Z" fill="white"/>
<path d="M19.2657 12.6987C19.2844 12.7888 19.372 12.847 19.4617 12.828C19.5512 12.8096 19.6091 12.722 19.5907 12.6323C19.4948 12.1652 19.4078 11.6771 19.3315 11.1816C19.1484 9.99363 18.5624 8.94411 17.7302 8.1543C17.7069 8.28537 17.6843 8.41706 17.6641 8.55119C18.3591 9.27149 18.8442 10.1964 19.0038 11.2318C19.0807 11.7331 19.1689 12.2265 19.2657 12.6987Z" fill="white"/>
<path d="M31.4427 15.4865C31.4706 15.3995 31.4225 15.3061 31.3352 15.2779C31.2482 15.2501 31.1545 15.2981 31.1266 15.3854C29.8279 19.4371 27.7534 21.6687 25.2859 21.6687C23.3262 21.6687 21.6103 20.2649 20.3229 17.6091C20.2831 17.527 20.1839 17.493 20.1015 17.5322C20.0188 17.5724 19.9845 17.6713 20.0246 17.754C21.3714 20.5316 23.1905 22.0001 25.2859 22.0001C27.9099 21.9998 30.0966 19.687 31.4427 15.4865Z" fill="white"/>
<path d="M31.3577 14.6051C31.3332 14.693 31.3846 14.7846 31.4725 14.8094C31.5604 14.8339 31.6523 14.7825 31.6768 14.6943C31.9641 13.6695 32.2021 12.5471 32.3853 11.3586C32.494 10.6505 32.7881 10.0059 33.2089 9.46474C33.1955 9.3104 33.1814 9.15635 33.1639 9.00537C32.5927 9.63716 32.1929 10.4273 32.0576 11.3084C31.8762 12.4838 31.641 13.593 31.3577 14.6051Z" fill="white"/>
<path d="M19.5435 16.6432C19.5769 16.7281 19.6736 16.77 19.7585 16.737C19.8436 16.7036 19.8856 16.6071 19.8522 16.522C19.269 15.0367 18.8188 13.2828 18.5152 11.309C18.3936 10.5207 18.0613 9.8047 17.5844 9.20996C17.5672 9.37411 17.5516 9.53918 17.5391 9.707C17.8656 10.1949 18.0941 10.7541 18.1872 11.3595C18.4947 13.3572 18.9511 15.135 19.5435 16.6432Z" fill="white"/>
<path d="M17.6928 11.4358C17.6539 11.1819 17.5853 10.9384 17.4959 10.7051C17.4952 10.7697 17.4922 10.8331 17.4922 10.8986C17.4922 10.9801 17.4928 11.0616 17.4937 11.143C17.4928 11.2245 17.4922 11.3059 17.4922 11.3874C17.4922 11.7475 17.5063 12.0979 17.528 12.4421C18.0576 15.3095 18.9067 17.6637 20.0069 19.4004C20.6008 20.1446 21.2676 20.7522 21.973 21.2152C19.9312 19.4917 18.4102 16.0972 17.6928 11.4358Z" fill="white"/>
<path d="M33.2741 10.8989C33.2741 10.694 33.2698 10.4922 33.2625 10.2925C33.075 10.6437 32.9403 11.0275 32.8775 11.4363C32.0881 16.5645 30.3266 20.1601 27.9687 21.6828C28.6374 21.3612 29.2855 20.9157 29.8862 20.3506C31.4471 18.4044 32.6067 15.3759 33.2055 11.4865C33.2224 11.3772 33.2456 11.27 33.2729 11.1647C33.2729 11.1576 33.2729 11.1506 33.2729 11.1432C33.2735 11.0615 33.2741 10.98 33.2741 10.8989Z" fill="white"/>
<path d="M29.5167 10.9185C29.2073 12.9278 28.7096 14.7319 28.0771 16.1354C28.0397 16.2187 28.0767 16.3174 28.1601 16.3547C28.2434 16.3933 28.342 16.3553 28.3794 16.272C29.0333 14.821 29.5258 13.0368 29.8444 10.969C30.1338 9.08712 31.1694 7.50105 32.6268 6.48094C32.5925 6.37099 32.557 6.26197 32.5202 6.15479C30.948 7.22176 29.826 8.90827 29.5167 10.9185Z" fill="white"/>
<path d="M20.7163 10.9671C21.6113 16.7809 23.7088 19.429 25.2789 19.429C26.1873 19.429 27.1473 18.5902 27.981 17.0666C28.0251 16.9864 27.9954 16.8856 27.9152 16.8418C27.8343 16.7977 27.7338 16.8271 27.6904 16.9077C26.9283 18.2996 26.0495 19.0977 25.2789 19.0977C23.8365 19.0977 21.8621 16.2306 21.0443 10.9168C20.7454 8.97399 19.6893 7.33036 18.1991 6.25879C18.1624 6.36965 18.1284 6.48388 18.0938 6.59719C19.4657 7.61945 20.4375 9.1556 20.7163 10.9671Z" fill="white"/>
<path d="M28.7132 10.7916C27.9098 16.0113 26.0628 18.2696 25.298 18.2696C24.6689 18.2696 23.1153 16.5769 22.2029 12.4986C22.1826 12.4092 22.0932 12.3528 22.0047 12.373C21.9153 12.3929 21.8589 12.4814 21.8791 12.5709C22.8099 16.73 24.4385 18.6006 25.298 18.6006C26.3256 18.6006 28.2262 16.1347 29.0413 10.8415C29.3791 8.64597 30.6233 6.81216 32.3603 5.67383C32.3189 5.56817 32.2773 5.46343 32.2335 5.36084C30.3911 6.54633 29.0694 8.47631 28.7132 10.7916Z" fill="white"/>
<path d="M21.5465 10.8434C21.5778 11.0443 21.61 11.241 21.6436 11.4333C21.6596 11.5233 21.7459 11.5843 21.8357 11.5677C21.9257 11.5518 21.9861 11.4657 21.9705 11.3757C21.9371 11.1858 21.9049 10.9917 21.8743 10.7932C21.5279 8.5432 20.2708 6.6564 18.5096 5.46387C18.4667 5.56769 18.4232 5.67059 18.3828 5.77685C20.039 6.921 21.2188 8.71317 21.5465 10.8434Z" fill="white"/>
<path d="M20.6421 6.75994C20.6991 6.83099 20.8036 6.84355 20.8752 6.78658C20.9469 6.72962 20.9588 6.6255 20.9019 6.55353C20.3165 5.81638 19.6243 5.19286 18.857 4.69092C18.8071 4.78984 18.7587 4.89028 18.7109 4.99227C19.4344 5.47093 20.088 6.06261 20.6421 6.75994Z" fill="white"/>
<path d="M28.0677 9.80795C28.045 9.89646 28.0986 9.9868 28.1875 10.0095C28.2012 10.0131 28.215 10.0147 28.2288 10.0147C28.3026 10.0147 28.37 9.96506 28.389 9.89003C28.9318 7.76987 30.2654 6.01873 32.0272 4.90643C31.9791 4.80537 31.9292 4.70737 31.8789 4.60938C30.0332 5.76455 28.6353 7.59193 28.0677 9.80795Z" fill="white"/>
<path d="M25.2023 17.724C25.2286 17.74 25.258 17.7476 25.2874 17.7476C25.3168 17.7476 25.3462 17.74 25.3726 17.724C25.3906 17.7133 27.1932 16.5784 28.1201 11.2711C28.136 11.181 28.0753 11.0953 27.9856 11.0793C27.8934 11.0616 27.8095 11.1241 27.7935 11.2141C27.0891 15.2477 25.8268 16.9584 25.2923 17.3771C24.9303 17.069 23.4408 15.5331 22.6916 10.665C22.5176 9.53524 22.1362 8.47102 21.5583 7.50236C21.5114 7.42365 21.41 7.39792 21.331 7.44478C21.2523 7.49164 21.2265 7.59331 21.2734 7.67202C21.8293 8.60393 22.1963 9.62803 22.3638 10.7152C23.2533 16.4957 25.1827 17.7127 25.2023 17.724Z" fill="white"/>
<path d="M23.1906 10.5902C23.7248 14.0594 24.6541 15.7655 25.1607 16.4735C25.192 16.5173 25.2422 16.5431 25.2958 16.5431C25.3494 16.5431 25.3996 16.5173 25.4306 16.4735C25.9369 15.7652 26.8659 14.0594 27.4004 10.5902C27.8249 7.83272 29.417 5.53707 31.6346 4.1614C31.5789 4.06493 31.5228 3.96938 31.4652 3.87598C29.1643 5.30065 27.5128 7.68051 27.0723 10.54C26.5936 13.6481 25.8018 15.2988 25.2955 16.0822C24.7892 15.2988 23.9971 13.6487 23.5184 10.54C23.0874 7.73901 21.4943 5.39681 19.267 3.96326C19.2103 4.05728 19.1561 4.15436 19.1016 4.25113C21.2438 5.6363 22.7753 7.89305 23.1906 10.5902Z" fill="white"/>
<path d="M27.9513 6.07567C27.8992 6.15101 27.9182 6.25422 27.9935 6.30628C28.0223 6.32649 28.0551 6.33568 28.0876 6.33568C28.1402 6.33568 28.192 6.31087 28.2242 6.26432C29.0129 5.12109 30.024 4.17509 31.1778 3.46061C31.115 3.36904 31.0522 3.27716 30.9876 3.18896C29.8019 3.9258 28.7629 4.89937 27.9513 6.07567Z" fill="white"/>
<path d="M21.5695 5.28569C21.6305 5.35429 21.7355 5.36011 21.8038 5.29886C21.8721 5.23822 21.8779 5.13317 21.817 5.06488C21.1958 4.36939 20.4864 3.76883 19.713 3.27148C19.6487 3.3606 19.5853 3.45095 19.5234 3.54374C20.2757 4.02639 20.9658 4.60949 21.5695 5.28569Z" fill="white"/>
<path d="M27.5012 6.79901C26.8628 7.91223 26.4389 9.12804 26.2414 10.4125C26.0116 11.9045 25.6897 13.1849 25.2836 14.2256C24.8774 13.1852 24.5555 11.9048 24.3258 10.4125C24.0817 8.82608 23.5009 7.3619 22.5989 6.06034C22.5468 5.98531 22.443 5.96694 22.3682 6.01839C22.2932 6.07075 22.2742 6.17396 22.3263 6.2493C23.1992 7.5089 23.7616 8.92653 23.9977 10.4627C24.2602 12.1651 24.6416 13.5996 25.131 14.7272C25.1574 14.7875 25.2171 14.8267 25.2833 14.8267C25.3491 14.8267 25.4088 14.7875 25.4352 14.7272C25.9253 13.5993 26.3066 12.1645 26.5688 10.4627C26.7602 9.21839 27.1707 8.04147 27.7888 6.96408C27.8341 6.88446 27.8068 6.78309 27.7272 6.73776C27.6485 6.69213 27.5465 6.71969 27.5012 6.79901Z" fill="white"/>
<path d="M24.0897 7.7397C24.1252 7.82392 24.2226 7.86311 24.3068 7.8282C24.3911 7.79267 24.4309 7.69529 24.3954 7.61107C23.5172 5.52275 22.0504 3.80776 20.2306 2.61768C20.1584 2.70189 20.0858 2.78672 20.0156 2.87462C21.7961 4.02979 23.2324 5.701 24.0897 7.7397Z" fill="white"/>
<path d="M25.4235 10.2857C25.3806 10.5626 25.3347 10.8339 25.2851 11.0976C25.2358 10.8348 25.1892 10.5635 25.1466 10.2857C25.0664 9.7651 24.95 9.24846 24.8011 8.75019C24.7748 8.6626 24.6829 8.61268 24.595 8.63902C24.5071 8.66536 24.4575 8.75754 24.4835 8.84543C24.6284 9.329 24.7411 9.83064 24.8189 10.3359C24.9071 10.9074 25.0094 11.4513 25.1233 11.9526C25.1408 12.028 25.2076 12.0816 25.2851 12.0816C25.3626 12.0816 25.4296 12.028 25.4465 11.9526C25.5613 11.447 25.664 10.9031 25.7513 10.3359C26.2481 7.10747 28.1006 4.41584 30.6839 2.78874C30.6125 2.70146 30.5402 2.61571 30.467 2.53271C27.8255 4.21157 25.9329 6.97517 25.4235 10.2857Z" fill="white"/>
<path d="M25.1294 8.14463C25.1524 8.2117 25.2152 8.25641 25.2862 8.25641C25.3567 8.25641 25.4198 8.2117 25.443 8.14463C26.3089 5.6294 27.9884 3.5564 30.1309 2.17215C30.051 2.091 29.9701 2.0129 29.8883 1.93604C27.8377 3.27955 26.2051 5.23863 25.2865 7.60838C24.3854 5.28364 22.7976 3.35366 20.8017 2.0129C20.7209 2.09069 20.6412 2.1697 20.5625 2.25178C22.6469 3.63541 24.2797 5.67687 25.1294 8.14463Z" fill="white"/>
<path d="M24.732 5.37586C24.7804 5.45364 24.8824 5.47753 24.9602 5.42945C25.038 5.38137 25.0622 5.27908 25.0138 5.20129C24.0872 3.7071 22.8586 2.44352 21.4387 1.45801C21.3489 1.52845 21.2598 1.60103 21.1719 1.67667C22.5879 2.64381 23.8128 3.8933 24.732 5.37586Z" fill="white"/>
<path d="M25.2869 5.67406C25.2422 5.75369 25.2701 5.85475 25.35 5.89946C25.3758 5.91385 25.4036 5.92059 25.4312 5.92059C25.4891 5.92059 25.5454 5.88997 25.5761 5.83607C26.548 4.10606 27.9048 2.66486 29.5062 1.59176C29.4167 1.51734 29.3264 1.44568 29.2354 1.37646C27.6292 2.47161 26.2671 3.92905 25.2869 5.67406Z" fill="white"/>
<path d="M23.8616 2.63833C23.9272 2.57433 23.9281 2.46928 23.8641 2.40374C23.3366 1.86536 22.7712 1.37904 22.1752 0.941406C22.0744 1.00296 21.9742 1.06666 21.875 1.13434C22.4943 1.58024 23.0821 2.07943 23.6273 2.63588C23.6917 2.70142 23.7964 2.70234 23.8616 2.63833Z" fill="white"/>
<path d="M25.2837 4.11431C25.0708 3.81051 24.8432 3.51283 24.6059 3.2271C24.5477 3.15697 24.4432 3.14717 24.3724 3.20566C24.302 3.26385 24.2922 3.36859 24.3507 3.43903C24.6334 3.77896 24.9008 4.13575 25.1462 4.49988C25.1768 4.54581 25.2282 4.57276 25.2837 4.57276C25.3388 4.57276 25.3903 4.54551 25.4209 4.49988C26.3377 3.14074 27.4841 1.98557 28.7899 1.06743C28.6903 1.0022 28.5905 0.939113 28.4894 0.879395C27.2618 1.76109 26.1723 2.84582 25.2837 4.11431Z" fill="white"/>
<path d="M25.1552 3.11159C25.1867 3.1511 25.2342 3.17376 25.2847 3.17376C25.335 3.17376 25.3824 3.1511 25.4143 3.11159C25.727 2.72082 26.0652 2.34138 26.4196 1.98429C26.4839 1.91936 26.4836 1.81432 26.4186 1.75001C26.3534 1.68478 26.2483 1.6857 26.184 1.75093C25.8701 2.06728 25.5678 2.40109 25.2847 2.74501C24.5965 1.90895 23.8255 1.1617 22.989 0.51123C22.8748 0.561762 22.7612 0.615967 22.6484 0.673848C23.5701 1.37332 24.4148 2.18611 25.1552 3.11159Z" fill="white"/>
<path d="M26.8775 1.33318C26.9378 1.40178 27.0426 1.40852 27.1115 1.34789C27.4022 1.09155 27.7042 0.849924 28.0129 0.619625C27.8993 0.564194 27.7854 0.512437 27.6705 0.464355C27.4053 0.667399 27.144 0.876873 26.8922 1.09921C26.8233 1.15954 26.8168 1.26428 26.8775 1.33318Z" fill="white"/>
<path d="M25.1658 1.84566C25.1974 1.87996 25.2418 1.89956 25.2883 1.89956C25.3349 1.89956 25.3793 1.88027 25.4105 1.84566C25.9364 1.26961 26.5046 0.739796 27.1083 0.25776C26.9794 0.217335 26.8501 0.182116 26.7206 0.150879C26.2173 0.56554 25.7367 1.0093 25.288 1.48919C24.8528 1.024 24.3875 0.592491 23.9014 0.188854C23.7752 0.222848 23.6493 0.261741 23.5234 0.304616C24.1066 0.774096 24.6567 1.28768 25.1658 1.84566Z" fill="white"/>
<path d="M25.2844 0.706517C25.3264 0.706517 25.3681 0.690592 25.4005 0.659355C25.6214 0.443143 25.8505 0.236424 26.0836 0.0342998C25.9301 0.0153123 25.777 0.00551249 25.6244 0C25.5108 0.1029 25.3953 0.20396 25.2847 0.310228C25.1769 0.207022 25.0651 0.109024 24.9546 0.00918711C24.8088 0.0195996 24.6623 0.0373623 24.5156 0.0597185C24.7386 0.253881 24.957 0.452636 25.1687 0.659661C25.2005 0.690592 25.2425 0.706517 25.2844 0.706517Z" fill="white"/>
<path d="M19.8641 11.1004C20.3456 14.2284 21.259 16.8487 22.4355 18.4797C22.4676 18.5245 22.5188 18.5486 22.5699 18.5486C22.6033 18.5486 22.6373 18.5385 22.6667 18.5171C22.7408 18.4635 22.7577 18.36 22.7041 18.2859C21.5573 16.6968 20.6651 14.127 20.1915 11.0501C19.9465 9.45825 19.1186 8.09881 17.9445 7.16016C17.9145 7.27684 17.8863 7.39505 17.8594 7.51449C18.9069 8.39863 19.6405 9.64904 19.8641 11.1004Z" fill="white"/>
<path d="M30.1331 13.1826C30.0439 13.1621 29.9542 13.2154 29.9328 13.3045C28.9333 17.4156 27.151 19.9694 25.2813 19.9694C24.6883 19.9694 24.1027 19.7201 23.5406 19.2295C23.4717 19.1695 23.3673 19.1762 23.3066 19.2451C23.2463 19.3143 23.2533 19.4188 23.3226 19.4791C23.9468 20.0245 24.6059 20.3011 25.2813 20.3011C27.3427 20.3011 29.2022 17.7151 30.255 13.3832C30.2764 13.2938 30.2219 13.2047 30.1331 13.1826Z" fill="white"/>
<path d="M30.3812 11.0488C30.3202 11.4445 30.251 11.8399 30.175 12.2236C30.1573 12.3133 30.2161 12.4006 30.3058 12.4184C30.3166 12.4205 30.3273 12.4214 30.338 12.4214C30.4155 12.4214 30.4847 12.3666 30.5003 12.2876C30.5769 11.8993 30.647 11.4996 30.7089 11.099C30.9439 9.57238 31.7457 8.27205 32.8809 7.38239C32.8527 7.26388 32.8221 7.14781 32.7908 7.03174C31.5304 7.97223 30.6372 9.38404 30.3812 11.0488Z" fill="white"/>
</svg>
